%TF.GenerationSoftware,KiCad,Pcbnew,9.0.4*%
%TF.CreationDate,2025-09-28T14:36:26-05:00*%
%TF.ProjectId,version 2,76657273-696f-46e2-9032-2e6b69636164,rev?*%
%TF.SameCoordinates,Original*%
%TF.FileFunction,OtherDrawing,Comment*%
%FSLAX45Y45*%
G04 Gerber Fmt 4.5, Leading zero omitted, Abs format (unit mm)*
G04 Created by KiCad (PCBNEW 9.0.4) date 2025-09-28 14:36:26*
%MOMM*%
%LPD*%
G01*
G04 APERTURE LIST*
%ADD10C,0.100000*%
%ADD11O,2.400000X1.600000*%
G04 APERTURE END LIST*
D10*
X2371429Y-1469889D02*
X2371429Y-1519889D01*
X2371429Y-1519889D02*
X2352381Y-1519889D01*
X2352381Y-1519889D02*
X2347619Y-1517508D01*
X2347619Y-1517508D02*
X2345238Y-1515127D01*
X2345238Y-1515127D02*
X2342857Y-1510365D01*
X2342857Y-1510365D02*
X2342857Y-1503222D01*
X2342857Y-1503222D02*
X2345238Y-1498460D01*
X2345238Y-1498460D02*
X2347619Y-1496079D01*
X2347619Y-1496079D02*
X2352381Y-1493698D01*
X2352381Y-1493698D02*
X2371429Y-1493698D01*
X2292857Y-1474651D02*
X2295238Y-1472270D01*
X2295238Y-1472270D02*
X2302381Y-1469889D01*
X2302381Y-1469889D02*
X2307143Y-1469889D01*
X2307143Y-1469889D02*
X2314286Y-1472270D01*
X2314286Y-1472270D02*
X2319048Y-1477032D01*
X2319048Y-1477032D02*
X2321429Y-1481794D01*
X2321429Y-1481794D02*
X2323809Y-1491318D01*
X2323809Y-1491318D02*
X2323809Y-1498460D01*
X2323809Y-1498460D02*
X2321429Y-1507984D01*
X2321429Y-1507984D02*
X2319048Y-1512746D01*
X2319048Y-1512746D02*
X2314286Y-1517508D01*
X2314286Y-1517508D02*
X2307143Y-1519889D01*
X2307143Y-1519889D02*
X2302381Y-1519889D01*
X2302381Y-1519889D02*
X2295238Y-1517508D01*
X2295238Y-1517508D02*
X2292857Y-1515127D01*
X2254762Y-1496079D02*
X2247619Y-1493698D01*
X2247619Y-1493698D02*
X2245238Y-1491318D01*
X2245238Y-1491318D02*
X2242857Y-1486556D01*
X2242857Y-1486556D02*
X2242857Y-1479413D01*
X2242857Y-1479413D02*
X2245238Y-1474651D01*
X2245238Y-1474651D02*
X2247619Y-1472270D01*
X2247619Y-1472270D02*
X2252381Y-1469889D01*
X2252381Y-1469889D02*
X2271429Y-1469889D01*
X2271429Y-1469889D02*
X2271429Y-1519889D01*
X2271429Y-1519889D02*
X2254762Y-1519889D01*
X2254762Y-1519889D02*
X2250000Y-1517508D01*
X2250000Y-1517508D02*
X2247619Y-1515127D01*
X2247619Y-1515127D02*
X2245238Y-1510365D01*
X2245238Y-1510365D02*
X2245238Y-1505603D01*
X2245238Y-1505603D02*
X2247619Y-1500841D01*
X2247619Y-1500841D02*
X2250000Y-1498460D01*
X2250000Y-1498460D02*
X2254762Y-1496079D01*
X2254762Y-1496079D02*
X2271429Y-1496079D01*
X2183333Y-1496079D02*
X2166667Y-1496079D01*
X2159524Y-1469889D02*
X2183333Y-1469889D01*
X2183333Y-1469889D02*
X2183333Y-1519889D01*
X2183333Y-1519889D02*
X2159524Y-1519889D01*
X2116667Y-1469889D02*
X2116667Y-1519889D01*
X2116667Y-1472270D02*
X2121429Y-1469889D01*
X2121429Y-1469889D02*
X2130952Y-1469889D01*
X2130952Y-1469889D02*
X2135714Y-1472270D01*
X2135714Y-1472270D02*
X2138095Y-1474651D01*
X2138095Y-1474651D02*
X2140476Y-1479413D01*
X2140476Y-1479413D02*
X2140476Y-1493698D01*
X2140476Y-1493698D02*
X2138095Y-1498460D01*
X2138095Y-1498460D02*
X2135714Y-1500841D01*
X2135714Y-1500841D02*
X2130952Y-1503222D01*
X2130952Y-1503222D02*
X2121429Y-1503222D01*
X2121429Y-1503222D02*
X2116667Y-1500841D01*
X2071428Y-1503222D02*
X2071428Y-1462746D01*
X2071428Y-1462746D02*
X2073809Y-1457984D01*
X2073809Y-1457984D02*
X2076190Y-1455603D01*
X2076190Y-1455603D02*
X2080952Y-1453222D01*
X2080952Y-1453222D02*
X2088095Y-1453222D01*
X2088095Y-1453222D02*
X2092857Y-1455603D01*
X2071428Y-1472270D02*
X2076190Y-1469889D01*
X2076190Y-1469889D02*
X2085714Y-1469889D01*
X2085714Y-1469889D02*
X2090476Y-1472270D01*
X2090476Y-1472270D02*
X2092857Y-1474651D01*
X2092857Y-1474651D02*
X2095238Y-1479413D01*
X2095238Y-1479413D02*
X2095238Y-1493698D01*
X2095238Y-1493698D02*
X2092857Y-1498460D01*
X2092857Y-1498460D02*
X2090476Y-1500841D01*
X2090476Y-1500841D02*
X2085714Y-1503222D01*
X2085714Y-1503222D02*
X2076190Y-1503222D01*
X2076190Y-1503222D02*
X2071428Y-1500841D01*
X2028571Y-1472270D02*
X2033333Y-1469889D01*
X2033333Y-1469889D02*
X2042857Y-1469889D01*
X2042857Y-1469889D02*
X2047619Y-1472270D01*
X2047619Y-1472270D02*
X2050000Y-1477032D01*
X2050000Y-1477032D02*
X2050000Y-1496079D01*
X2050000Y-1496079D02*
X2047619Y-1500841D01*
X2047619Y-1500841D02*
X2042857Y-1503222D01*
X2042857Y-1503222D02*
X2033333Y-1503222D01*
X2033333Y-1503222D02*
X2028571Y-1500841D01*
X2028571Y-1500841D02*
X2026190Y-1496079D01*
X2026190Y-1496079D02*
X2026190Y-1491318D01*
X2026190Y-1491318D02*
X2050000Y-1486556D01*
%TO.C,J3*%
X2700000Y-1432500D02*
X1700000Y-1432500D01*
%TD*%
D11*
%TO.C,U2*%
X3962000Y-4050000D03*
%TD*%
M02*
