%TF.GenerationSoftware,KiCad,Pcbnew,9.0.4*%
%TF.CreationDate,2025-09-28T14:36:26-05:00*%
%TF.ProjectId,version 2,76657273-696f-46e2-9032-2e6b69636164,rev?*%
%TF.SameCoordinates,Original*%
%TF.FileFunction,AssemblyDrawing,Top*%
%FSLAX45Y45*%
G04 Gerber Fmt 4.5, Leading zero omitted, Abs format (unit mm)*
G04 Created by KiCad (PCBNEW 9.0.4) date 2025-09-28 14:36:26*
%MOMM*%
%LPD*%
G01*
G04 APERTURE LIST*
%ADD10C,0.150000*%
%ADD11C,0.080000*%
%ADD12C,0.100000*%
G04 APERTURE END LIST*
D10*
X1873809Y-5520482D02*
X1840476Y-5472863D01*
X1816667Y-5520482D02*
X1816667Y-5420482D01*
X1816667Y-5420482D02*
X1854762Y-5420482D01*
X1854762Y-5420482D02*
X1864286Y-5425244D01*
X1864286Y-5425244D02*
X1869047Y-5430006D01*
X1869047Y-5430006D02*
X1873809Y-5439530D01*
X1873809Y-5439530D02*
X1873809Y-5453815D01*
X1873809Y-5453815D02*
X1869047Y-5463339D01*
X1869047Y-5463339D02*
X1864286Y-5468101D01*
X1864286Y-5468101D02*
X1854762Y-5472863D01*
X1854762Y-5472863D02*
X1816667Y-5472863D01*
X1892857Y-5530006D02*
X1969047Y-5530006D01*
X1992857Y-5520482D02*
X1992857Y-5420482D01*
X1992857Y-5420482D02*
X2030952Y-5420482D01*
X2030952Y-5420482D02*
X2040476Y-5425244D01*
X2040476Y-5425244D02*
X2045238Y-5430006D01*
X2045238Y-5430006D02*
X2050000Y-5439530D01*
X2050000Y-5439530D02*
X2050000Y-5453815D01*
X2050000Y-5453815D02*
X2045238Y-5463339D01*
X2045238Y-5463339D02*
X2040476Y-5468101D01*
X2040476Y-5468101D02*
X2030952Y-5472863D01*
X2030952Y-5472863D02*
X1992857Y-5472863D01*
X2107143Y-5520482D02*
X2097619Y-5515720D01*
X2097619Y-5515720D02*
X2092857Y-5510958D01*
X2092857Y-5510958D02*
X2088095Y-5501434D01*
X2088095Y-5501434D02*
X2088095Y-5472863D01*
X2088095Y-5472863D02*
X2092857Y-5463339D01*
X2092857Y-5463339D02*
X2097619Y-5458577D01*
X2097619Y-5458577D02*
X2107143Y-5453815D01*
X2107143Y-5453815D02*
X2121429Y-5453815D01*
X2121429Y-5453815D02*
X2130952Y-5458577D01*
X2130952Y-5458577D02*
X2135714Y-5463339D01*
X2135714Y-5463339D02*
X2140476Y-5472863D01*
X2140476Y-5472863D02*
X2140476Y-5501434D01*
X2140476Y-5501434D02*
X2135714Y-5510958D01*
X2135714Y-5510958D02*
X2130952Y-5515720D01*
X2130952Y-5515720D02*
X2121429Y-5520482D01*
X2121429Y-5520482D02*
X2107143Y-5520482D01*
X2169048Y-5453815D02*
X2207143Y-5453815D01*
X2183333Y-5420482D02*
X2183333Y-5506196D01*
X2183333Y-5506196D02*
X2188095Y-5515720D01*
X2188095Y-5515720D02*
X2197619Y-5520482D01*
X2197619Y-5520482D02*
X2207143Y-5520482D01*
X2278571Y-5515720D02*
X2269048Y-5520482D01*
X2269048Y-5520482D02*
X2250000Y-5520482D01*
X2250000Y-5520482D02*
X2240476Y-5515720D01*
X2240476Y-5515720D02*
X2235714Y-5506196D01*
X2235714Y-5506196D02*
X2235714Y-5468101D01*
X2235714Y-5468101D02*
X2240476Y-5458577D01*
X2240476Y-5458577D02*
X2250000Y-5453815D01*
X2250000Y-5453815D02*
X2269048Y-5453815D01*
X2269048Y-5453815D02*
X2278571Y-5458577D01*
X2278571Y-5458577D02*
X2283333Y-5468101D01*
X2283333Y-5468101D02*
X2283333Y-5477625D01*
X2283333Y-5477625D02*
X2235714Y-5487149D01*
X2326191Y-5453815D02*
X2326191Y-5520482D01*
X2326191Y-5463339D02*
X2330952Y-5458577D01*
X2330952Y-5458577D02*
X2340476Y-5453815D01*
X2340476Y-5453815D02*
X2354762Y-5453815D01*
X2354762Y-5453815D02*
X2364286Y-5458577D01*
X2364286Y-5458577D02*
X2369048Y-5468101D01*
X2369048Y-5468101D02*
X2369048Y-5520482D01*
X2402381Y-5453815D02*
X2440476Y-5453815D01*
X2416667Y-5420482D02*
X2416667Y-5506196D01*
X2416667Y-5506196D02*
X2421429Y-5515720D01*
X2421429Y-5515720D02*
X2430952Y-5520482D01*
X2430952Y-5520482D02*
X2440476Y-5520482D01*
X2473810Y-5520482D02*
X2473810Y-5453815D01*
X2473810Y-5420482D02*
X2469048Y-5425244D01*
X2469048Y-5425244D02*
X2473810Y-5430006D01*
X2473810Y-5430006D02*
X2478572Y-5425244D01*
X2478572Y-5425244D02*
X2473810Y-5420482D01*
X2473810Y-5420482D02*
X2473810Y-5430006D01*
X2535714Y-5520482D02*
X2526191Y-5515720D01*
X2526191Y-5515720D02*
X2521429Y-5510958D01*
X2521429Y-5510958D02*
X2516667Y-5501434D01*
X2516667Y-5501434D02*
X2516667Y-5472863D01*
X2516667Y-5472863D02*
X2521429Y-5463339D01*
X2521429Y-5463339D02*
X2526191Y-5458577D01*
X2526191Y-5458577D02*
X2535714Y-5453815D01*
X2535714Y-5453815D02*
X2550000Y-5453815D01*
X2550000Y-5453815D02*
X2559524Y-5458577D01*
X2559524Y-5458577D02*
X2564286Y-5463339D01*
X2564286Y-5463339D02*
X2569048Y-5472863D01*
X2569048Y-5472863D02*
X2569048Y-5501434D01*
X2569048Y-5501434D02*
X2564286Y-5510958D01*
X2564286Y-5510958D02*
X2559524Y-5515720D01*
X2559524Y-5515720D02*
X2550000Y-5520482D01*
X2550000Y-5520482D02*
X2535714Y-5520482D01*
X2611905Y-5520482D02*
X2611905Y-5453815D01*
X2611905Y-5463339D02*
X2616667Y-5458577D01*
X2616667Y-5458577D02*
X2626191Y-5453815D01*
X2626191Y-5453815D02*
X2640476Y-5453815D01*
X2640476Y-5453815D02*
X2650000Y-5458577D01*
X2650000Y-5458577D02*
X2654762Y-5468101D01*
X2654762Y-5468101D02*
X2654762Y-5520482D01*
X2654762Y-5468101D02*
X2659524Y-5458577D01*
X2659524Y-5458577D02*
X2669048Y-5453815D01*
X2669048Y-5453815D02*
X2683333Y-5453815D01*
X2683333Y-5453815D02*
X2692857Y-5458577D01*
X2692857Y-5458577D02*
X2697619Y-5468101D01*
X2697619Y-5468101D02*
X2697619Y-5520482D01*
X2783333Y-5515720D02*
X2773810Y-5520482D01*
X2773810Y-5520482D02*
X2754762Y-5520482D01*
X2754762Y-5520482D02*
X2745238Y-5515720D01*
X2745238Y-5515720D02*
X2740476Y-5506196D01*
X2740476Y-5506196D02*
X2740476Y-5468101D01*
X2740476Y-5468101D02*
X2745238Y-5458577D01*
X2745238Y-5458577D02*
X2754762Y-5453815D01*
X2754762Y-5453815D02*
X2773810Y-5453815D01*
X2773810Y-5453815D02*
X2783333Y-5458577D01*
X2783333Y-5458577D02*
X2788095Y-5468101D01*
X2788095Y-5468101D02*
X2788095Y-5477625D01*
X2788095Y-5477625D02*
X2740476Y-5487149D01*
X2816667Y-5453815D02*
X2854762Y-5453815D01*
X2830952Y-5420482D02*
X2830952Y-5506196D01*
X2830952Y-5506196D02*
X2835714Y-5515720D01*
X2835714Y-5515720D02*
X2845238Y-5520482D01*
X2845238Y-5520482D02*
X2854762Y-5520482D01*
X2926190Y-5515720D02*
X2916667Y-5520482D01*
X2916667Y-5520482D02*
X2897619Y-5520482D01*
X2897619Y-5520482D02*
X2888095Y-5515720D01*
X2888095Y-5515720D02*
X2883333Y-5506196D01*
X2883333Y-5506196D02*
X2883333Y-5468101D01*
X2883333Y-5468101D02*
X2888095Y-5458577D01*
X2888095Y-5458577D02*
X2897619Y-5453815D01*
X2897619Y-5453815D02*
X2916667Y-5453815D01*
X2916667Y-5453815D02*
X2926190Y-5458577D01*
X2926190Y-5458577D02*
X2930952Y-5468101D01*
X2930952Y-5468101D02*
X2930952Y-5477625D01*
X2930952Y-5477625D02*
X2883333Y-5487149D01*
X2973810Y-5520482D02*
X2973810Y-5453815D01*
X2973810Y-5472863D02*
X2978571Y-5463339D01*
X2978571Y-5463339D02*
X2983333Y-5458577D01*
X2983333Y-5458577D02*
X2992857Y-5453815D01*
X2992857Y-5453815D02*
X3002381Y-5453815D01*
X3011905Y-5530006D02*
X3088095Y-5530006D01*
X3097619Y-5420482D02*
X3154762Y-5420482D01*
X3126191Y-5520482D02*
X3126191Y-5420482D01*
X3188095Y-5520482D02*
X3188095Y-5453815D01*
X3188095Y-5472863D02*
X3192857Y-5463339D01*
X3192857Y-5463339D02*
X3197619Y-5458577D01*
X3197619Y-5458577D02*
X3207143Y-5453815D01*
X3207143Y-5453815D02*
X3216667Y-5453815D01*
X3250000Y-5520482D02*
X3250000Y-5453815D01*
X3250000Y-5420482D02*
X3245238Y-5425244D01*
X3245238Y-5425244D02*
X3250000Y-5430006D01*
X3250000Y-5430006D02*
X3254762Y-5425244D01*
X3254762Y-5425244D02*
X3250000Y-5420482D01*
X3250000Y-5420482D02*
X3250000Y-5430006D01*
X3297619Y-5520482D02*
X3297619Y-5453815D01*
X3297619Y-5463339D02*
X3302381Y-5458577D01*
X3302381Y-5458577D02*
X3311905Y-5453815D01*
X3311905Y-5453815D02*
X3326191Y-5453815D01*
X3326191Y-5453815D02*
X3335714Y-5458577D01*
X3335714Y-5458577D02*
X3340476Y-5468101D01*
X3340476Y-5468101D02*
X3340476Y-5520482D01*
X3340476Y-5468101D02*
X3345238Y-5458577D01*
X3345238Y-5458577D02*
X3354762Y-5453815D01*
X3354762Y-5453815D02*
X3369048Y-5453815D01*
X3369048Y-5453815D02*
X3378572Y-5458577D01*
X3378572Y-5458577D02*
X3383333Y-5468101D01*
X3383333Y-5468101D02*
X3383333Y-5520482D01*
X2390476Y-5870482D02*
X2357143Y-5822863D01*
X2333333Y-5870482D02*
X2333333Y-5770482D01*
X2333333Y-5770482D02*
X2371429Y-5770482D01*
X2371429Y-5770482D02*
X2380952Y-5775244D01*
X2380952Y-5775244D02*
X2385714Y-5780006D01*
X2385714Y-5780006D02*
X2390476Y-5789529D01*
X2390476Y-5789529D02*
X2390476Y-5803815D01*
X2390476Y-5803815D02*
X2385714Y-5813339D01*
X2385714Y-5813339D02*
X2380952Y-5818101D01*
X2380952Y-5818101D02*
X2371429Y-5822863D01*
X2371429Y-5822863D02*
X2333333Y-5822863D01*
X2419048Y-5770482D02*
X2452381Y-5870482D01*
X2452381Y-5870482D02*
X2485714Y-5770482D01*
X2571429Y-5870482D02*
X2514286Y-5870482D01*
X2542857Y-5870482D02*
X2542857Y-5770482D01*
X2542857Y-5770482D02*
X2533333Y-5784768D01*
X2533333Y-5784768D02*
X2523810Y-5794291D01*
X2523810Y-5794291D02*
X2514286Y-5799053D01*
D11*
X6667857Y-5622715D02*
X6651190Y-5598905D01*
X6639286Y-5622715D02*
X6639286Y-5572715D01*
X6639286Y-5572715D02*
X6658333Y-5572715D01*
X6658333Y-5572715D02*
X6663095Y-5575096D01*
X6663095Y-5575096D02*
X6665476Y-5577477D01*
X6665476Y-5577477D02*
X6667857Y-5582239D01*
X6667857Y-5582239D02*
X6667857Y-5589382D01*
X6667857Y-5589382D02*
X6665476Y-5594143D01*
X6665476Y-5594143D02*
X6663095Y-5596524D01*
X6663095Y-5596524D02*
X6658333Y-5598905D01*
X6658333Y-5598905D02*
X6639286Y-5598905D01*
X6715476Y-5622715D02*
X6686905Y-5622715D01*
X6701190Y-5622715D02*
X6701190Y-5572715D01*
X6701190Y-5572715D02*
X6696429Y-5579858D01*
X6696429Y-5579858D02*
X6691667Y-5584620D01*
X6691667Y-5584620D02*
X6686905Y-5587001D01*
X6744048Y-5594143D02*
X6739286Y-5591763D01*
X6739286Y-5591763D02*
X6736905Y-5589382D01*
X6736905Y-5589382D02*
X6734524Y-5584620D01*
X6734524Y-5584620D02*
X6734524Y-5582239D01*
X6734524Y-5582239D02*
X6736905Y-5577477D01*
X6736905Y-5577477D02*
X6739286Y-5575096D01*
X6739286Y-5575096D02*
X6744048Y-5572715D01*
X6744048Y-5572715D02*
X6753571Y-5572715D01*
X6753571Y-5572715D02*
X6758333Y-5575096D01*
X6758333Y-5575096D02*
X6760714Y-5577477D01*
X6760714Y-5577477D02*
X6763095Y-5582239D01*
X6763095Y-5582239D02*
X6763095Y-5584620D01*
X6763095Y-5584620D02*
X6760714Y-5589382D01*
X6760714Y-5589382D02*
X6758333Y-5591763D01*
X6758333Y-5591763D02*
X6753571Y-5594143D01*
X6753571Y-5594143D02*
X6744048Y-5594143D01*
X6744048Y-5594143D02*
X6739286Y-5596524D01*
X6739286Y-5596524D02*
X6736905Y-5598905D01*
X6736905Y-5598905D02*
X6734524Y-5603667D01*
X6734524Y-5603667D02*
X6734524Y-5613191D01*
X6734524Y-5613191D02*
X6736905Y-5617953D01*
X6736905Y-5617953D02*
X6739286Y-5620334D01*
X6739286Y-5620334D02*
X6744048Y-5622715D01*
X6744048Y-5622715D02*
X6753571Y-5622715D01*
X6753571Y-5622715D02*
X6758333Y-5620334D01*
X6758333Y-5620334D02*
X6760714Y-5617953D01*
X6760714Y-5617953D02*
X6763095Y-5613191D01*
X6763095Y-5613191D02*
X6763095Y-5603667D01*
X6763095Y-5603667D02*
X6760714Y-5598905D01*
X6760714Y-5598905D02*
X6758333Y-5596524D01*
X6758333Y-5596524D02*
X6753571Y-5594143D01*
X6017953Y-1908333D02*
X6020334Y-1910714D01*
X6020334Y-1910714D02*
X6022715Y-1917857D01*
X6022715Y-1917857D02*
X6022715Y-1922619D01*
X6022715Y-1922619D02*
X6020334Y-1929762D01*
X6020334Y-1929762D02*
X6015572Y-1934524D01*
X6015572Y-1934524D02*
X6010810Y-1936905D01*
X6010810Y-1936905D02*
X6001286Y-1939286D01*
X6001286Y-1939286D02*
X5994143Y-1939286D01*
X5994143Y-1939286D02*
X5984620Y-1936905D01*
X5984620Y-1936905D02*
X5979858Y-1934524D01*
X5979858Y-1934524D02*
X5975096Y-1929762D01*
X5975096Y-1929762D02*
X5972715Y-1922619D01*
X5972715Y-1922619D02*
X5972715Y-1917857D01*
X5972715Y-1917857D02*
X5975096Y-1910714D01*
X5975096Y-1910714D02*
X5977477Y-1908333D01*
X6022715Y-1860714D02*
X6022715Y-1889286D01*
X6022715Y-1875000D02*
X5972715Y-1875000D01*
X5972715Y-1875000D02*
X5979858Y-1879762D01*
X5979858Y-1879762D02*
X5984620Y-1884524D01*
X5984620Y-1884524D02*
X5987001Y-1889286D01*
D10*
X5723809Y-4445482D02*
X5723809Y-4526434D01*
X5723809Y-4526434D02*
X5728571Y-4535958D01*
X5728571Y-4535958D02*
X5733333Y-4540720D01*
X5733333Y-4540720D02*
X5742857Y-4545482D01*
X5742857Y-4545482D02*
X5761905Y-4545482D01*
X5761905Y-4545482D02*
X5771428Y-4540720D01*
X5771428Y-4540720D02*
X5776190Y-4535958D01*
X5776190Y-4535958D02*
X5780952Y-4526434D01*
X5780952Y-4526434D02*
X5780952Y-4445482D01*
X5871428Y-4478815D02*
X5871428Y-4545482D01*
X5847619Y-4440720D02*
X5823809Y-4512149D01*
X5823809Y-4512149D02*
X5885714Y-4512149D01*
D11*
X5991667Y-3417953D02*
X5989286Y-3420334D01*
X5989286Y-3420334D02*
X5982143Y-3422715D01*
X5982143Y-3422715D02*
X5977381Y-3422715D01*
X5977381Y-3422715D02*
X5970238Y-3420334D01*
X5970238Y-3420334D02*
X5965476Y-3415572D01*
X5965476Y-3415572D02*
X5963095Y-3410810D01*
X5963095Y-3410810D02*
X5960714Y-3401286D01*
X5960714Y-3401286D02*
X5960714Y-3394143D01*
X5960714Y-3394143D02*
X5963095Y-3384620D01*
X5963095Y-3384620D02*
X5965476Y-3379858D01*
X5965476Y-3379858D02*
X5970238Y-3375096D01*
X5970238Y-3375096D02*
X5977381Y-3372715D01*
X5977381Y-3372715D02*
X5982143Y-3372715D01*
X5982143Y-3372715D02*
X5989286Y-3375096D01*
X5989286Y-3375096D02*
X5991667Y-3377477D01*
X6015476Y-3422715D02*
X6025000Y-3422715D01*
X6025000Y-3422715D02*
X6029762Y-3420334D01*
X6029762Y-3420334D02*
X6032143Y-3417953D01*
X6032143Y-3417953D02*
X6036905Y-3410810D01*
X6036905Y-3410810D02*
X6039286Y-3401286D01*
X6039286Y-3401286D02*
X6039286Y-3382239D01*
X6039286Y-3382239D02*
X6036905Y-3377477D01*
X6036905Y-3377477D02*
X6034524Y-3375096D01*
X6034524Y-3375096D02*
X6029762Y-3372715D01*
X6029762Y-3372715D02*
X6020238Y-3372715D01*
X6020238Y-3372715D02*
X6015476Y-3375096D01*
X6015476Y-3375096D02*
X6013095Y-3377477D01*
X6013095Y-3377477D02*
X6010714Y-3382239D01*
X6010714Y-3382239D02*
X6010714Y-3394143D01*
X6010714Y-3394143D02*
X6013095Y-3398905D01*
X6013095Y-3398905D02*
X6015476Y-3401286D01*
X6015476Y-3401286D02*
X6020238Y-3403667D01*
X6020238Y-3403667D02*
X6029762Y-3403667D01*
X6029762Y-3403667D02*
X6034524Y-3401286D01*
X6034524Y-3401286D02*
X6036905Y-3398905D01*
X6036905Y-3398905D02*
X6039286Y-3394143D01*
X4696667Y-4042715D02*
X4680000Y-4018905D01*
X4668095Y-4042715D02*
X4668095Y-3992715D01*
X4668095Y-3992715D02*
X4687143Y-3992715D01*
X4687143Y-3992715D02*
X4691905Y-3995096D01*
X4691905Y-3995096D02*
X4694286Y-3997477D01*
X4694286Y-3997477D02*
X4696667Y-4002239D01*
X4696667Y-4002239D02*
X4696667Y-4009382D01*
X4696667Y-4009382D02*
X4694286Y-4014143D01*
X4694286Y-4014143D02*
X4691905Y-4016524D01*
X4691905Y-4016524D02*
X4687143Y-4018905D01*
X4687143Y-4018905D02*
X4668095Y-4018905D01*
X4739524Y-3992715D02*
X4730000Y-3992715D01*
X4730000Y-3992715D02*
X4725238Y-3995096D01*
X4725238Y-3995096D02*
X4722857Y-3997477D01*
X4722857Y-3997477D02*
X4718095Y-4004620D01*
X4718095Y-4004620D02*
X4715714Y-4014143D01*
X4715714Y-4014143D02*
X4715714Y-4033191D01*
X4715714Y-4033191D02*
X4718095Y-4037953D01*
X4718095Y-4037953D02*
X4720476Y-4040334D01*
X4720476Y-4040334D02*
X4725238Y-4042715D01*
X4725238Y-4042715D02*
X4734762Y-4042715D01*
X4734762Y-4042715D02*
X4739524Y-4040334D01*
X4739524Y-4040334D02*
X4741905Y-4037953D01*
X4741905Y-4037953D02*
X4744286Y-4033191D01*
X4744286Y-4033191D02*
X4744286Y-4021286D01*
X4744286Y-4021286D02*
X4741905Y-4016524D01*
X4741905Y-4016524D02*
X4739524Y-4014143D01*
X4739524Y-4014143D02*
X4734762Y-4011762D01*
X4734762Y-4011762D02*
X4725238Y-4011762D01*
X4725238Y-4011762D02*
X4720476Y-4014143D01*
X4720476Y-4014143D02*
X4718095Y-4016524D01*
X4718095Y-4016524D02*
X4715714Y-4021286D01*
X7117953Y-1908333D02*
X7120334Y-1910714D01*
X7120334Y-1910714D02*
X7122715Y-1917857D01*
X7122715Y-1917857D02*
X7122715Y-1922619D01*
X7122715Y-1922619D02*
X7120334Y-1929762D01*
X7120334Y-1929762D02*
X7115572Y-1934524D01*
X7115572Y-1934524D02*
X7110810Y-1936905D01*
X7110810Y-1936905D02*
X7101286Y-1939286D01*
X7101286Y-1939286D02*
X7094143Y-1939286D01*
X7094143Y-1939286D02*
X7084620Y-1936905D01*
X7084620Y-1936905D02*
X7079858Y-1934524D01*
X7079858Y-1934524D02*
X7075096Y-1929762D01*
X7075096Y-1929762D02*
X7072715Y-1922619D01*
X7072715Y-1922619D02*
X7072715Y-1917857D01*
X7072715Y-1917857D02*
X7075096Y-1910714D01*
X7075096Y-1910714D02*
X7077477Y-1908333D01*
X7077477Y-1889286D02*
X7075096Y-1886905D01*
X7075096Y-1886905D02*
X7072715Y-1882143D01*
X7072715Y-1882143D02*
X7072715Y-1870238D01*
X7072715Y-1870238D02*
X7075096Y-1865476D01*
X7075096Y-1865476D02*
X7077477Y-1863095D01*
X7077477Y-1863095D02*
X7082239Y-1860714D01*
X7082239Y-1860714D02*
X7087001Y-1860714D01*
X7087001Y-1860714D02*
X7094143Y-1863095D01*
X7094143Y-1863095D02*
X7122715Y-1891667D01*
X7122715Y-1891667D02*
X7122715Y-1860714D01*
X4695417Y-4322715D02*
X4678750Y-4298905D01*
X4666845Y-4322715D02*
X4666845Y-4272715D01*
X4666845Y-4272715D02*
X4685893Y-4272715D01*
X4685893Y-4272715D02*
X4690655Y-4275096D01*
X4690655Y-4275096D02*
X4693036Y-4277477D01*
X4693036Y-4277477D02*
X4695417Y-4282239D01*
X4695417Y-4282239D02*
X4695417Y-4289382D01*
X4695417Y-4289382D02*
X4693036Y-4294144D01*
X4693036Y-4294144D02*
X4690655Y-4296524D01*
X4690655Y-4296524D02*
X4685893Y-4298905D01*
X4685893Y-4298905D02*
X4666845Y-4298905D01*
X4712083Y-4272715D02*
X4745417Y-4272715D01*
X4745417Y-4272715D02*
X4723988Y-4322715D01*
X3591667Y-3772715D02*
X3575000Y-3748905D01*
X3563095Y-3772715D02*
X3563095Y-3722715D01*
X3563095Y-3722715D02*
X3582143Y-3722715D01*
X3582143Y-3722715D02*
X3586905Y-3725096D01*
X3586905Y-3725096D02*
X3589286Y-3727477D01*
X3589286Y-3727477D02*
X3591667Y-3732239D01*
X3591667Y-3732239D02*
X3591667Y-3739382D01*
X3591667Y-3739382D02*
X3589286Y-3744143D01*
X3589286Y-3744143D02*
X3586905Y-3746524D01*
X3586905Y-3746524D02*
X3582143Y-3748905D01*
X3582143Y-3748905D02*
X3563095Y-3748905D01*
X3636905Y-3722715D02*
X3613095Y-3722715D01*
X3613095Y-3722715D02*
X3610714Y-3746524D01*
X3610714Y-3746524D02*
X3613095Y-3744143D01*
X3613095Y-3744143D02*
X3617857Y-3741762D01*
X3617857Y-3741762D02*
X3629762Y-3741762D01*
X3629762Y-3741762D02*
X3634524Y-3744143D01*
X3634524Y-3744143D02*
X3636905Y-3746524D01*
X3636905Y-3746524D02*
X3639286Y-3751286D01*
X3639286Y-3751286D02*
X3639286Y-3763191D01*
X3639286Y-3763191D02*
X3636905Y-3767953D01*
X3636905Y-3767953D02*
X3634524Y-3770334D01*
X3634524Y-3770334D02*
X3629762Y-3772715D01*
X3629762Y-3772715D02*
X3617857Y-3772715D01*
X3617857Y-3772715D02*
X3613095Y-3770334D01*
X3613095Y-3770334D02*
X3610714Y-3767953D01*
X6667857Y-5922715D02*
X6651190Y-5898905D01*
X6639286Y-5922715D02*
X6639286Y-5872715D01*
X6639286Y-5872715D02*
X6658333Y-5872715D01*
X6658333Y-5872715D02*
X6663095Y-5875096D01*
X6663095Y-5875096D02*
X6665476Y-5877477D01*
X6665476Y-5877477D02*
X6667857Y-5882239D01*
X6667857Y-5882239D02*
X6667857Y-5889382D01*
X6667857Y-5889382D02*
X6665476Y-5894143D01*
X6665476Y-5894143D02*
X6663095Y-5896524D01*
X6663095Y-5896524D02*
X6658333Y-5898905D01*
X6658333Y-5898905D02*
X6639286Y-5898905D01*
X6715476Y-5922715D02*
X6686905Y-5922715D01*
X6701190Y-5922715D02*
X6701190Y-5872715D01*
X6701190Y-5872715D02*
X6696429Y-5879858D01*
X6696429Y-5879858D02*
X6691667Y-5884620D01*
X6691667Y-5884620D02*
X6686905Y-5887001D01*
X6758333Y-5872715D02*
X6748809Y-5872715D01*
X6748809Y-5872715D02*
X6744048Y-5875096D01*
X6744048Y-5875096D02*
X6741667Y-5877477D01*
X6741667Y-5877477D02*
X6736905Y-5884620D01*
X6736905Y-5884620D02*
X6734524Y-5894143D01*
X6734524Y-5894143D02*
X6734524Y-5913191D01*
X6734524Y-5913191D02*
X6736905Y-5917953D01*
X6736905Y-5917953D02*
X6739286Y-5920334D01*
X6739286Y-5920334D02*
X6744048Y-5922715D01*
X6744048Y-5922715D02*
X6753571Y-5922715D01*
X6753571Y-5922715D02*
X6758333Y-5920334D01*
X6758333Y-5920334D02*
X6760714Y-5917953D01*
X6760714Y-5917953D02*
X6763095Y-5913191D01*
X6763095Y-5913191D02*
X6763095Y-5901286D01*
X6763095Y-5901286D02*
X6760714Y-5896524D01*
X6760714Y-5896524D02*
X6758333Y-5894143D01*
X6758333Y-5894143D02*
X6753571Y-5891762D01*
X6753571Y-5891762D02*
X6744048Y-5891762D01*
X6744048Y-5891762D02*
X6739286Y-5894143D01*
X6739286Y-5894143D02*
X6736905Y-5896524D01*
X6736905Y-5896524D02*
X6734524Y-5901286D01*
D10*
X2233333Y-1854518D02*
X2233333Y-1783089D01*
X2233333Y-1783089D02*
X2238095Y-1768804D01*
X2238095Y-1768804D02*
X2247619Y-1759280D01*
X2247619Y-1759280D02*
X2261905Y-1754518D01*
X2261905Y-1754518D02*
X2271429Y-1754518D01*
X2195238Y-1854518D02*
X2133333Y-1854518D01*
X2133333Y-1854518D02*
X2166667Y-1816423D01*
X2166667Y-1816423D02*
X2152381Y-1816423D01*
X2152381Y-1816423D02*
X2142857Y-1811661D01*
X2142857Y-1811661D02*
X2138095Y-1806899D01*
X2138095Y-1806899D02*
X2133333Y-1797375D01*
X2133333Y-1797375D02*
X2133333Y-1773566D01*
X2133333Y-1773566D02*
X2138095Y-1764042D01*
X2138095Y-1764042D02*
X2142857Y-1759280D01*
X2142857Y-1759280D02*
X2152381Y-1754518D01*
X2152381Y-1754518D02*
X2180952Y-1754518D01*
X2180952Y-1754518D02*
X2190476Y-1759280D01*
X2190476Y-1759280D02*
X2195238Y-1764042D01*
D11*
X5567857Y-3717953D02*
X5565476Y-3720334D01*
X5565476Y-3720334D02*
X5558333Y-3722715D01*
X5558333Y-3722715D02*
X5553571Y-3722715D01*
X5553571Y-3722715D02*
X5546429Y-3720334D01*
X5546429Y-3720334D02*
X5541667Y-3715572D01*
X5541667Y-3715572D02*
X5539286Y-3710810D01*
X5539286Y-3710810D02*
X5536905Y-3701286D01*
X5536905Y-3701286D02*
X5536905Y-3694143D01*
X5536905Y-3694143D02*
X5539286Y-3684620D01*
X5539286Y-3684620D02*
X5541667Y-3679858D01*
X5541667Y-3679858D02*
X5546429Y-3675096D01*
X5546429Y-3675096D02*
X5553571Y-3672715D01*
X5553571Y-3672715D02*
X5558333Y-3672715D01*
X5558333Y-3672715D02*
X5565476Y-3675096D01*
X5565476Y-3675096D02*
X5567857Y-3677477D01*
X5615476Y-3722715D02*
X5586905Y-3722715D01*
X5601190Y-3722715D02*
X5601190Y-3672715D01*
X5601190Y-3672715D02*
X5596429Y-3679858D01*
X5596429Y-3679858D02*
X5591667Y-3684620D01*
X5591667Y-3684620D02*
X5586905Y-3687001D01*
X5646428Y-3672715D02*
X5651190Y-3672715D01*
X5651190Y-3672715D02*
X5655952Y-3675096D01*
X5655952Y-3675096D02*
X5658333Y-3677477D01*
X5658333Y-3677477D02*
X5660714Y-3682239D01*
X5660714Y-3682239D02*
X5663095Y-3691762D01*
X5663095Y-3691762D02*
X5663095Y-3703667D01*
X5663095Y-3703667D02*
X5660714Y-3713191D01*
X5660714Y-3713191D02*
X5658333Y-3717953D01*
X5658333Y-3717953D02*
X5655952Y-3720334D01*
X5655952Y-3720334D02*
X5651190Y-3722715D01*
X5651190Y-3722715D02*
X5646428Y-3722715D01*
X5646428Y-3722715D02*
X5641667Y-3720334D01*
X5641667Y-3720334D02*
X5639286Y-3717953D01*
X5639286Y-3717953D02*
X5636905Y-3713191D01*
X5636905Y-3713191D02*
X5634524Y-3703667D01*
X5634524Y-3703667D02*
X5634524Y-3691762D01*
X5634524Y-3691762D02*
X5636905Y-3682239D01*
X5636905Y-3682239D02*
X5639286Y-3677477D01*
X5639286Y-3677477D02*
X5641667Y-3675096D01*
X5641667Y-3675096D02*
X5646428Y-3672715D01*
X5967857Y-3122715D02*
X5951190Y-3098905D01*
X5939286Y-3122715D02*
X5939286Y-3072715D01*
X5939286Y-3072715D02*
X5958333Y-3072715D01*
X5958333Y-3072715D02*
X5963095Y-3075096D01*
X5963095Y-3075096D02*
X5965476Y-3077477D01*
X5965476Y-3077477D02*
X5967857Y-3082239D01*
X5967857Y-3082239D02*
X5967857Y-3089382D01*
X5967857Y-3089382D02*
X5965476Y-3094143D01*
X5965476Y-3094143D02*
X5963095Y-3096524D01*
X5963095Y-3096524D02*
X5958333Y-3098905D01*
X5958333Y-3098905D02*
X5939286Y-3098905D01*
X6015476Y-3122715D02*
X5986905Y-3122715D01*
X6001190Y-3122715D02*
X6001190Y-3072715D01*
X6001190Y-3072715D02*
X5996429Y-3079858D01*
X5996429Y-3079858D02*
X5991667Y-3084620D01*
X5991667Y-3084620D02*
X5986905Y-3087001D01*
X6063095Y-3122715D02*
X6034524Y-3122715D01*
X6048809Y-3122715D02*
X6048809Y-3072715D01*
X6048809Y-3072715D02*
X6044048Y-3079858D01*
X6044048Y-3079858D02*
X6039286Y-3084620D01*
X6039286Y-3084620D02*
X6034524Y-3087001D01*
D10*
X5467167Y-1738482D02*
X5467167Y-1809910D01*
X5467167Y-1809910D02*
X5462405Y-1824196D01*
X5462405Y-1824196D02*
X5452881Y-1833720D01*
X5452881Y-1833720D02*
X5438595Y-1838482D01*
X5438595Y-1838482D02*
X5429071Y-1838482D01*
X5562405Y-1738482D02*
X5514786Y-1738482D01*
X5514786Y-1738482D02*
X5510024Y-1786101D01*
X5510024Y-1786101D02*
X5514786Y-1781339D01*
X5514786Y-1781339D02*
X5524310Y-1776577D01*
X5524310Y-1776577D02*
X5548119Y-1776577D01*
X5548119Y-1776577D02*
X5557643Y-1781339D01*
X5557643Y-1781339D02*
X5562405Y-1786101D01*
X5562405Y-1786101D02*
X5567167Y-1795625D01*
X5567167Y-1795625D02*
X5567167Y-1819434D01*
X5567167Y-1819434D02*
X5562405Y-1828958D01*
X5562405Y-1828958D02*
X5557643Y-1833720D01*
X5557643Y-1833720D02*
X5548119Y-1838482D01*
X5548119Y-1838482D02*
X5524310Y-1838482D01*
X5524310Y-1838482D02*
X5514786Y-1833720D01*
X5514786Y-1833720D02*
X5510024Y-1828958D01*
D11*
X6667857Y-5317953D02*
X6665476Y-5320334D01*
X6665476Y-5320334D02*
X6658333Y-5322715D01*
X6658333Y-5322715D02*
X6653571Y-5322715D01*
X6653571Y-5322715D02*
X6646429Y-5320334D01*
X6646429Y-5320334D02*
X6641667Y-5315572D01*
X6641667Y-5315572D02*
X6639286Y-5310810D01*
X6639286Y-5310810D02*
X6636905Y-5301286D01*
X6636905Y-5301286D02*
X6636905Y-5294144D01*
X6636905Y-5294144D02*
X6639286Y-5284620D01*
X6639286Y-5284620D02*
X6641667Y-5279858D01*
X6641667Y-5279858D02*
X6646429Y-5275096D01*
X6646429Y-5275096D02*
X6653571Y-5272715D01*
X6653571Y-5272715D02*
X6658333Y-5272715D01*
X6658333Y-5272715D02*
X6665476Y-5275096D01*
X6665476Y-5275096D02*
X6667857Y-5277477D01*
X6715476Y-5322715D02*
X6686905Y-5322715D01*
X6701190Y-5322715D02*
X6701190Y-5272715D01*
X6701190Y-5272715D02*
X6696429Y-5279858D01*
X6696429Y-5279858D02*
X6691667Y-5284620D01*
X6691667Y-5284620D02*
X6686905Y-5287001D01*
X6763095Y-5322715D02*
X6734524Y-5322715D01*
X6748809Y-5322715D02*
X6748809Y-5272715D01*
X6748809Y-5272715D02*
X6744048Y-5279858D01*
X6744048Y-5279858D02*
X6739286Y-5284620D01*
X6739286Y-5284620D02*
X6734524Y-5287001D01*
D10*
X5722809Y-5544482D02*
X5722809Y-5625434D01*
X5722809Y-5625434D02*
X5727571Y-5634958D01*
X5727571Y-5634958D02*
X5732333Y-5639720D01*
X5732333Y-5639720D02*
X5741857Y-5644482D01*
X5741857Y-5644482D02*
X5760905Y-5644482D01*
X5760905Y-5644482D02*
X5770428Y-5639720D01*
X5770428Y-5639720D02*
X5775190Y-5634958D01*
X5775190Y-5634958D02*
X5779952Y-5625434D01*
X5779952Y-5625434D02*
X5779952Y-5544482D01*
X5875190Y-5544482D02*
X5827571Y-5544482D01*
X5827571Y-5544482D02*
X5822809Y-5592101D01*
X5822809Y-5592101D02*
X5827571Y-5587339D01*
X5827571Y-5587339D02*
X5837095Y-5582577D01*
X5837095Y-5582577D02*
X5860905Y-5582577D01*
X5860905Y-5582577D02*
X5870428Y-5587339D01*
X5870428Y-5587339D02*
X5875190Y-5592101D01*
X5875190Y-5592101D02*
X5879952Y-5601625D01*
X5879952Y-5601625D02*
X5879952Y-5625434D01*
X5879952Y-5625434D02*
X5875190Y-5634958D01*
X5875190Y-5634958D02*
X5870428Y-5639720D01*
X5870428Y-5639720D02*
X5860905Y-5644482D01*
X5860905Y-5644482D02*
X5837095Y-5644482D01*
X5837095Y-5644482D02*
X5827571Y-5639720D01*
X5827571Y-5639720D02*
X5822809Y-5634958D01*
D11*
X4695417Y-4592715D02*
X4678750Y-4568905D01*
X4666845Y-4592715D02*
X4666845Y-4542715D01*
X4666845Y-4542715D02*
X4685893Y-4542715D01*
X4685893Y-4542715D02*
X4690655Y-4545096D01*
X4690655Y-4545096D02*
X4693036Y-4547477D01*
X4693036Y-4547477D02*
X4695417Y-4552239D01*
X4695417Y-4552239D02*
X4695417Y-4559382D01*
X4695417Y-4559382D02*
X4693036Y-4564144D01*
X4693036Y-4564144D02*
X4690655Y-4566524D01*
X4690655Y-4566524D02*
X4685893Y-4568905D01*
X4685893Y-4568905D02*
X4666845Y-4568905D01*
X4723988Y-4564144D02*
X4719226Y-4561763D01*
X4719226Y-4561763D02*
X4716845Y-4559382D01*
X4716845Y-4559382D02*
X4714464Y-4554620D01*
X4714464Y-4554620D02*
X4714464Y-4552239D01*
X4714464Y-4552239D02*
X4716845Y-4547477D01*
X4716845Y-4547477D02*
X4719226Y-4545096D01*
X4719226Y-4545096D02*
X4723988Y-4542715D01*
X4723988Y-4542715D02*
X4733512Y-4542715D01*
X4733512Y-4542715D02*
X4738274Y-4545096D01*
X4738274Y-4545096D02*
X4740655Y-4547477D01*
X4740655Y-4547477D02*
X4743036Y-4552239D01*
X4743036Y-4552239D02*
X4743036Y-4554620D01*
X4743036Y-4554620D02*
X4740655Y-4559382D01*
X4740655Y-4559382D02*
X4738274Y-4561763D01*
X4738274Y-4561763D02*
X4733512Y-4564144D01*
X4733512Y-4564144D02*
X4723988Y-4564144D01*
X4723988Y-4564144D02*
X4719226Y-4566524D01*
X4719226Y-4566524D02*
X4716845Y-4568905D01*
X4716845Y-4568905D02*
X4714464Y-4573667D01*
X4714464Y-4573667D02*
X4714464Y-4583191D01*
X4714464Y-4583191D02*
X4716845Y-4587953D01*
X4716845Y-4587953D02*
X4719226Y-4590334D01*
X4719226Y-4590334D02*
X4723988Y-4592715D01*
X4723988Y-4592715D02*
X4733512Y-4592715D01*
X4733512Y-4592715D02*
X4738274Y-4590334D01*
X4738274Y-4590334D02*
X4740655Y-4587953D01*
X4740655Y-4587953D02*
X4743036Y-4583191D01*
X4743036Y-4583191D02*
X4743036Y-4573667D01*
X4743036Y-4573667D02*
X4740655Y-4568905D01*
X4740655Y-4568905D02*
X4738274Y-4566524D01*
X4738274Y-4566524D02*
X4733512Y-4564144D01*
X5967857Y-2822715D02*
X5951190Y-2798905D01*
X5939286Y-2822715D02*
X5939286Y-2772715D01*
X5939286Y-2772715D02*
X5958333Y-2772715D01*
X5958333Y-2772715D02*
X5963095Y-2775096D01*
X5963095Y-2775096D02*
X5965476Y-2777477D01*
X5965476Y-2777477D02*
X5967857Y-2782239D01*
X5967857Y-2782239D02*
X5967857Y-2789382D01*
X5967857Y-2789382D02*
X5965476Y-2794144D01*
X5965476Y-2794144D02*
X5963095Y-2796524D01*
X5963095Y-2796524D02*
X5958333Y-2798905D01*
X5958333Y-2798905D02*
X5939286Y-2798905D01*
X6015476Y-2822715D02*
X5986905Y-2822715D01*
X6001190Y-2822715D02*
X6001190Y-2772715D01*
X6001190Y-2772715D02*
X5996429Y-2779858D01*
X5996429Y-2779858D02*
X5991667Y-2784620D01*
X5991667Y-2784620D02*
X5986905Y-2787001D01*
X6046428Y-2772715D02*
X6051190Y-2772715D01*
X6051190Y-2772715D02*
X6055952Y-2775096D01*
X6055952Y-2775096D02*
X6058333Y-2777477D01*
X6058333Y-2777477D02*
X6060714Y-2782239D01*
X6060714Y-2782239D02*
X6063095Y-2791763D01*
X6063095Y-2791763D02*
X6063095Y-2803667D01*
X6063095Y-2803667D02*
X6060714Y-2813191D01*
X6060714Y-2813191D02*
X6058333Y-2817953D01*
X6058333Y-2817953D02*
X6055952Y-2820334D01*
X6055952Y-2820334D02*
X6051190Y-2822715D01*
X6051190Y-2822715D02*
X6046428Y-2822715D01*
X6046428Y-2822715D02*
X6041667Y-2820334D01*
X6041667Y-2820334D02*
X6039286Y-2817953D01*
X6039286Y-2817953D02*
X6036905Y-2813191D01*
X6036905Y-2813191D02*
X6034524Y-2803667D01*
X6034524Y-2803667D02*
X6034524Y-2791763D01*
X6034524Y-2791763D02*
X6036905Y-2782239D01*
X6036905Y-2782239D02*
X6039286Y-2777477D01*
X6039286Y-2777477D02*
X6041667Y-2775096D01*
X6041667Y-2775096D02*
X6046428Y-2772715D01*
D10*
X4653364Y-5905087D02*
X4653364Y-5976515D01*
X4653364Y-5976515D02*
X4648602Y-5990801D01*
X4648602Y-5990801D02*
X4639079Y-6000325D01*
X4639079Y-6000325D02*
X4624793Y-6005087D01*
X4624793Y-6005087D02*
X4615269Y-6005087D01*
X4696222Y-5914611D02*
X4700983Y-5909849D01*
X4700983Y-5909849D02*
X4710507Y-5905087D01*
X4710507Y-5905087D02*
X4734317Y-5905087D01*
X4734317Y-5905087D02*
X4743841Y-5909849D01*
X4743841Y-5909849D02*
X4748602Y-5914611D01*
X4748602Y-5914611D02*
X4753364Y-5924134D01*
X4753364Y-5924134D02*
X4753364Y-5933658D01*
X4753364Y-5933658D02*
X4748602Y-5947944D01*
X4748602Y-5947944D02*
X4691460Y-6005087D01*
X4691460Y-6005087D02*
X4753364Y-6005087D01*
D11*
X6667857Y-5022715D02*
X6651190Y-4998905D01*
X6639286Y-5022715D02*
X6639286Y-4972715D01*
X6639286Y-4972715D02*
X6658333Y-4972715D01*
X6658333Y-4972715D02*
X6663095Y-4975096D01*
X6663095Y-4975096D02*
X6665476Y-4977477D01*
X6665476Y-4977477D02*
X6667857Y-4982239D01*
X6667857Y-4982239D02*
X6667857Y-4989382D01*
X6667857Y-4989382D02*
X6665476Y-4994144D01*
X6665476Y-4994144D02*
X6663095Y-4996524D01*
X6663095Y-4996524D02*
X6658333Y-4998905D01*
X6658333Y-4998905D02*
X6639286Y-4998905D01*
X6715476Y-5022715D02*
X6686905Y-5022715D01*
X6701190Y-5022715D02*
X6701190Y-4972715D01*
X6701190Y-4972715D02*
X6696429Y-4979858D01*
X6696429Y-4979858D02*
X6691667Y-4984620D01*
X6691667Y-4984620D02*
X6686905Y-4987001D01*
X6758333Y-4989382D02*
X6758333Y-5022715D01*
X6746428Y-4970334D02*
X6734524Y-5006048D01*
X6734524Y-5006048D02*
X6765476Y-5006048D01*
X3191667Y-3772715D02*
X3175000Y-3748905D01*
X3163095Y-3772715D02*
X3163095Y-3722715D01*
X3163095Y-3722715D02*
X3182143Y-3722715D01*
X3182143Y-3722715D02*
X3186905Y-3725096D01*
X3186905Y-3725096D02*
X3189286Y-3727477D01*
X3189286Y-3727477D02*
X3191667Y-3732239D01*
X3191667Y-3732239D02*
X3191667Y-3739382D01*
X3191667Y-3739382D02*
X3189286Y-3744143D01*
X3189286Y-3744143D02*
X3186905Y-3746524D01*
X3186905Y-3746524D02*
X3182143Y-3748905D01*
X3182143Y-3748905D02*
X3163095Y-3748905D01*
X3234524Y-3739382D02*
X3234524Y-3772715D01*
X3222619Y-3720334D02*
X3210714Y-3756048D01*
X3210714Y-3756048D02*
X3241667Y-3756048D01*
X2622715Y-4908333D02*
X2598905Y-4925000D01*
X2622715Y-4936905D02*
X2572715Y-4936905D01*
X2572715Y-4936905D02*
X2572715Y-4917857D01*
X2572715Y-4917857D02*
X2575096Y-4913095D01*
X2575096Y-4913095D02*
X2577477Y-4910714D01*
X2577477Y-4910714D02*
X2582239Y-4908333D01*
X2582239Y-4908333D02*
X2589382Y-4908333D01*
X2589382Y-4908333D02*
X2594144Y-4910714D01*
X2594144Y-4910714D02*
X2596524Y-4913095D01*
X2596524Y-4913095D02*
X2598905Y-4917857D01*
X2598905Y-4917857D02*
X2598905Y-4936905D01*
X2577477Y-4889286D02*
X2575096Y-4886905D01*
X2575096Y-4886905D02*
X2572715Y-4882143D01*
X2572715Y-4882143D02*
X2572715Y-4870238D01*
X2572715Y-4870238D02*
X2575096Y-4865476D01*
X2575096Y-4865476D02*
X2577477Y-4863095D01*
X2577477Y-4863095D02*
X2582239Y-4860714D01*
X2582239Y-4860714D02*
X2587001Y-4860714D01*
X2587001Y-4860714D02*
X2594144Y-4863095D01*
X2594144Y-4863095D02*
X2622715Y-4891667D01*
X2622715Y-4891667D02*
X2622715Y-4860714D01*
X5567857Y-3422715D02*
X5551191Y-3398905D01*
X5539286Y-3422715D02*
X5539286Y-3372715D01*
X5539286Y-3372715D02*
X5558333Y-3372715D01*
X5558333Y-3372715D02*
X5563095Y-3375096D01*
X5563095Y-3375096D02*
X5565476Y-3377477D01*
X5565476Y-3377477D02*
X5567857Y-3382239D01*
X5567857Y-3382239D02*
X5567857Y-3389382D01*
X5567857Y-3389382D02*
X5565476Y-3394143D01*
X5565476Y-3394143D02*
X5563095Y-3396524D01*
X5563095Y-3396524D02*
X5558333Y-3398905D01*
X5558333Y-3398905D02*
X5539286Y-3398905D01*
X5615476Y-3422715D02*
X5586905Y-3422715D01*
X5601190Y-3422715D02*
X5601190Y-3372715D01*
X5601190Y-3372715D02*
X5596429Y-3379858D01*
X5596429Y-3379858D02*
X5591667Y-3384620D01*
X5591667Y-3384620D02*
X5586905Y-3387001D01*
X5634524Y-3377477D02*
X5636905Y-3375096D01*
X5636905Y-3375096D02*
X5641667Y-3372715D01*
X5641667Y-3372715D02*
X5653571Y-3372715D01*
X5653571Y-3372715D02*
X5658333Y-3375096D01*
X5658333Y-3375096D02*
X5660714Y-3377477D01*
X5660714Y-3377477D02*
X5663095Y-3382239D01*
X5663095Y-3382239D02*
X5663095Y-3387001D01*
X5663095Y-3387001D02*
X5660714Y-3394143D01*
X5660714Y-3394143D02*
X5632143Y-3422715D01*
X5632143Y-3422715D02*
X5663095Y-3422715D01*
X2912953Y-4908333D02*
X2915334Y-4910714D01*
X2915334Y-4910714D02*
X2917715Y-4917857D01*
X2917715Y-4917857D02*
X2917715Y-4922619D01*
X2917715Y-4922619D02*
X2915334Y-4929762D01*
X2915334Y-4929762D02*
X2910572Y-4934524D01*
X2910572Y-4934524D02*
X2905810Y-4936905D01*
X2905810Y-4936905D02*
X2896286Y-4939286D01*
X2896286Y-4939286D02*
X2889143Y-4939286D01*
X2889143Y-4939286D02*
X2879620Y-4936905D01*
X2879620Y-4936905D02*
X2874858Y-4934524D01*
X2874858Y-4934524D02*
X2870096Y-4929762D01*
X2870096Y-4929762D02*
X2867715Y-4922619D01*
X2867715Y-4922619D02*
X2867715Y-4917857D01*
X2867715Y-4917857D02*
X2870096Y-4910714D01*
X2870096Y-4910714D02*
X2872477Y-4908333D01*
X2867715Y-4891667D02*
X2867715Y-4860714D01*
X2867715Y-4860714D02*
X2886762Y-4877381D01*
X2886762Y-4877381D02*
X2886762Y-4870238D01*
X2886762Y-4870238D02*
X2889143Y-4865476D01*
X2889143Y-4865476D02*
X2891524Y-4863095D01*
X2891524Y-4863095D02*
X2896286Y-4860714D01*
X2896286Y-4860714D02*
X2908191Y-4860714D01*
X2908191Y-4860714D02*
X2912953Y-4863095D01*
X2912953Y-4863095D02*
X2915334Y-4865476D01*
X2915334Y-4865476D02*
X2917715Y-4870238D01*
X2917715Y-4870238D02*
X2917715Y-4884524D01*
X2917715Y-4884524D02*
X2915334Y-4889286D01*
X2915334Y-4889286D02*
X2912953Y-4891667D01*
X5591667Y-3117953D02*
X5589286Y-3120334D01*
X5589286Y-3120334D02*
X5582143Y-3122715D01*
X5582143Y-3122715D02*
X5577381Y-3122715D01*
X5577381Y-3122715D02*
X5570238Y-3120334D01*
X5570238Y-3120334D02*
X5565476Y-3115572D01*
X5565476Y-3115572D02*
X5563095Y-3110810D01*
X5563095Y-3110810D02*
X5560714Y-3101286D01*
X5560714Y-3101286D02*
X5560714Y-3094143D01*
X5560714Y-3094143D02*
X5563095Y-3084620D01*
X5563095Y-3084620D02*
X5565476Y-3079858D01*
X5565476Y-3079858D02*
X5570238Y-3075096D01*
X5570238Y-3075096D02*
X5577381Y-3072715D01*
X5577381Y-3072715D02*
X5582143Y-3072715D01*
X5582143Y-3072715D02*
X5589286Y-3075096D01*
X5589286Y-3075096D02*
X5591667Y-3077477D01*
X5620238Y-3094143D02*
X5615476Y-3091762D01*
X5615476Y-3091762D02*
X5613095Y-3089382D01*
X5613095Y-3089382D02*
X5610714Y-3084620D01*
X5610714Y-3084620D02*
X5610714Y-3082239D01*
X5610714Y-3082239D02*
X5613095Y-3077477D01*
X5613095Y-3077477D02*
X5615476Y-3075096D01*
X5615476Y-3075096D02*
X5620238Y-3072715D01*
X5620238Y-3072715D02*
X5629762Y-3072715D01*
X5629762Y-3072715D02*
X5634524Y-3075096D01*
X5634524Y-3075096D02*
X5636905Y-3077477D01*
X5636905Y-3077477D02*
X5639286Y-3082239D01*
X5639286Y-3082239D02*
X5639286Y-3084620D01*
X5639286Y-3084620D02*
X5636905Y-3089382D01*
X5636905Y-3089382D02*
X5634524Y-3091762D01*
X5634524Y-3091762D02*
X5629762Y-3094143D01*
X5629762Y-3094143D02*
X5620238Y-3094143D01*
X5620238Y-3094143D02*
X5615476Y-3096524D01*
X5615476Y-3096524D02*
X5613095Y-3098905D01*
X5613095Y-3098905D02*
X5610714Y-3103667D01*
X5610714Y-3103667D02*
X5610714Y-3113191D01*
X5610714Y-3113191D02*
X5613095Y-3117953D01*
X5613095Y-3117953D02*
X5615476Y-3120334D01*
X5615476Y-3120334D02*
X5620238Y-3122715D01*
X5620238Y-3122715D02*
X5629762Y-3122715D01*
X5629762Y-3122715D02*
X5634524Y-3120334D01*
X5634524Y-3120334D02*
X5636905Y-3117953D01*
X5636905Y-3117953D02*
X5639286Y-3113191D01*
X5639286Y-3113191D02*
X5639286Y-3103667D01*
X5639286Y-3103667D02*
X5636905Y-3098905D01*
X5636905Y-3098905D02*
X5634524Y-3096524D01*
X5634524Y-3096524D02*
X5629762Y-3094143D01*
X5591667Y-2822715D02*
X5575000Y-2798905D01*
X5563095Y-2822715D02*
X5563095Y-2772715D01*
X5563095Y-2772715D02*
X5582143Y-2772715D01*
X5582143Y-2772715D02*
X5586905Y-2775096D01*
X5586905Y-2775096D02*
X5589286Y-2777477D01*
X5589286Y-2777477D02*
X5591667Y-2782239D01*
X5591667Y-2782239D02*
X5591667Y-2789382D01*
X5591667Y-2789382D02*
X5589286Y-2794144D01*
X5589286Y-2794144D02*
X5586905Y-2796524D01*
X5586905Y-2796524D02*
X5582143Y-2798905D01*
X5582143Y-2798905D02*
X5563095Y-2798905D01*
X5615476Y-2822715D02*
X5625000Y-2822715D01*
X5625000Y-2822715D02*
X5629762Y-2820334D01*
X5629762Y-2820334D02*
X5632143Y-2817953D01*
X5632143Y-2817953D02*
X5636905Y-2810810D01*
X5636905Y-2810810D02*
X5639286Y-2801286D01*
X5639286Y-2801286D02*
X5639286Y-2782239D01*
X5639286Y-2782239D02*
X5636905Y-2777477D01*
X5636905Y-2777477D02*
X5634524Y-2775096D01*
X5634524Y-2775096D02*
X5629762Y-2772715D01*
X5629762Y-2772715D02*
X5620238Y-2772715D01*
X5620238Y-2772715D02*
X5615476Y-2775096D01*
X5615476Y-2775096D02*
X5613095Y-2777477D01*
X5613095Y-2777477D02*
X5610714Y-2782239D01*
X5610714Y-2782239D02*
X5610714Y-2794144D01*
X5610714Y-2794144D02*
X5613095Y-2798905D01*
X5613095Y-2798905D02*
X5615476Y-2801286D01*
X5615476Y-2801286D02*
X5620238Y-2803667D01*
X5620238Y-2803667D02*
X5629762Y-2803667D01*
X5629762Y-2803667D02*
X5634524Y-2801286D01*
X5634524Y-2801286D02*
X5636905Y-2798905D01*
X5636905Y-2798905D02*
X5639286Y-2794144D01*
X6667857Y-4722715D02*
X6651190Y-4698905D01*
X6639286Y-4722715D02*
X6639286Y-4672715D01*
X6639286Y-4672715D02*
X6658333Y-4672715D01*
X6658333Y-4672715D02*
X6663095Y-4675096D01*
X6663095Y-4675096D02*
X6665476Y-4677477D01*
X6665476Y-4677477D02*
X6667857Y-4682239D01*
X6667857Y-4682239D02*
X6667857Y-4689382D01*
X6667857Y-4689382D02*
X6665476Y-4694144D01*
X6665476Y-4694144D02*
X6663095Y-4696524D01*
X6663095Y-4696524D02*
X6658333Y-4698905D01*
X6658333Y-4698905D02*
X6639286Y-4698905D01*
X6715476Y-4722715D02*
X6686905Y-4722715D01*
X6701190Y-4722715D02*
X6701190Y-4672715D01*
X6701190Y-4672715D02*
X6696429Y-4679858D01*
X6696429Y-4679858D02*
X6691667Y-4684620D01*
X6691667Y-4684620D02*
X6686905Y-4687001D01*
X6760714Y-4672715D02*
X6736905Y-4672715D01*
X6736905Y-4672715D02*
X6734524Y-4696524D01*
X6734524Y-4696524D02*
X6736905Y-4694144D01*
X6736905Y-4694144D02*
X6741667Y-4691763D01*
X6741667Y-4691763D02*
X6753571Y-4691763D01*
X6753571Y-4691763D02*
X6758333Y-4694144D01*
X6758333Y-4694144D02*
X6760714Y-4696524D01*
X6760714Y-4696524D02*
X6763095Y-4701286D01*
X6763095Y-4701286D02*
X6763095Y-4713191D01*
X6763095Y-4713191D02*
X6760714Y-4717953D01*
X6760714Y-4717953D02*
X6758333Y-4720334D01*
X6758333Y-4720334D02*
X6753571Y-4722715D01*
X6753571Y-4722715D02*
X6741667Y-4722715D01*
X6741667Y-4722715D02*
X6736905Y-4720334D01*
X6736905Y-4720334D02*
X6734524Y-4717953D01*
X6667857Y-6222715D02*
X6651190Y-6198905D01*
X6639286Y-6222715D02*
X6639286Y-6172715D01*
X6639286Y-6172715D02*
X6658333Y-6172715D01*
X6658333Y-6172715D02*
X6663095Y-6175096D01*
X6663095Y-6175096D02*
X6665476Y-6177477D01*
X6665476Y-6177477D02*
X6667857Y-6182239D01*
X6667857Y-6182239D02*
X6667857Y-6189382D01*
X6667857Y-6189382D02*
X6665476Y-6194143D01*
X6665476Y-6194143D02*
X6663095Y-6196524D01*
X6663095Y-6196524D02*
X6658333Y-6198905D01*
X6658333Y-6198905D02*
X6639286Y-6198905D01*
X6715476Y-6222715D02*
X6686905Y-6222715D01*
X6701190Y-6222715D02*
X6701190Y-6172715D01*
X6701190Y-6172715D02*
X6696429Y-6179858D01*
X6696429Y-6179858D02*
X6691667Y-6184620D01*
X6691667Y-6184620D02*
X6686905Y-6187001D01*
X6732143Y-6172715D02*
X6765476Y-6172715D01*
X6765476Y-6172715D02*
X6744048Y-6222715D01*
D10*
X3286667Y-1753732D02*
X3286667Y-1825160D01*
X3286667Y-1825160D02*
X3281905Y-1839446D01*
X3281905Y-1839446D02*
X3272381Y-1848970D01*
X3272381Y-1848970D02*
X3258095Y-1853732D01*
X3258095Y-1853732D02*
X3248571Y-1853732D01*
X3386667Y-1853732D02*
X3329524Y-1853732D01*
X3358095Y-1853732D02*
X3358095Y-1753732D01*
X3358095Y-1753732D02*
X3348571Y-1768018D01*
X3348571Y-1768018D02*
X3339048Y-1777541D01*
X3339048Y-1777541D02*
X3329524Y-1782303D01*
D11*
X4417953Y-4440833D02*
X4420334Y-4443214D01*
X4420334Y-4443214D02*
X4422715Y-4450357D01*
X4422715Y-4450357D02*
X4422715Y-4455119D01*
X4422715Y-4455119D02*
X4420334Y-4462262D01*
X4420334Y-4462262D02*
X4415572Y-4467024D01*
X4415572Y-4467024D02*
X4410810Y-4469405D01*
X4410810Y-4469405D02*
X4401286Y-4471786D01*
X4401286Y-4471786D02*
X4394144Y-4471786D01*
X4394144Y-4471786D02*
X4384620Y-4469405D01*
X4384620Y-4469405D02*
X4379858Y-4467024D01*
X4379858Y-4467024D02*
X4375096Y-4462262D01*
X4375096Y-4462262D02*
X4372715Y-4455119D01*
X4372715Y-4455119D02*
X4372715Y-4450357D01*
X4372715Y-4450357D02*
X4375096Y-4443214D01*
X4375096Y-4443214D02*
X4377477Y-4440833D01*
X4372715Y-4397976D02*
X4372715Y-4407500D01*
X4372715Y-4407500D02*
X4375096Y-4412262D01*
X4375096Y-4412262D02*
X4377477Y-4414643D01*
X4377477Y-4414643D02*
X4384620Y-4419405D01*
X4384620Y-4419405D02*
X4394144Y-4421786D01*
X4394144Y-4421786D02*
X4413191Y-4421786D01*
X4413191Y-4421786D02*
X4417953Y-4419405D01*
X4417953Y-4419405D02*
X4420334Y-4417024D01*
X4420334Y-4417024D02*
X4422715Y-4412262D01*
X4422715Y-4412262D02*
X4422715Y-4402738D01*
X4422715Y-4402738D02*
X4420334Y-4397976D01*
X4420334Y-4397976D02*
X4417953Y-4395595D01*
X4417953Y-4395595D02*
X4413191Y-4393214D01*
X4413191Y-4393214D02*
X4401286Y-4393214D01*
X4401286Y-4393214D02*
X4396524Y-4395595D01*
X4396524Y-4395595D02*
X4394144Y-4397976D01*
X4394144Y-4397976D02*
X4391763Y-4402738D01*
X4391763Y-4402738D02*
X4391763Y-4412262D01*
X4391763Y-4412262D02*
X4394144Y-4417024D01*
X4394144Y-4417024D02*
X4396524Y-4419405D01*
X4396524Y-4419405D02*
X4401286Y-4421786D01*
X5967857Y-3722715D02*
X5951190Y-3698905D01*
X5939286Y-3722715D02*
X5939286Y-3672715D01*
X5939286Y-3672715D02*
X5958333Y-3672715D01*
X5958333Y-3672715D02*
X5963095Y-3675096D01*
X5963095Y-3675096D02*
X5965476Y-3677477D01*
X5965476Y-3677477D02*
X5967857Y-3682239D01*
X5967857Y-3682239D02*
X5967857Y-3689382D01*
X5967857Y-3689382D02*
X5965476Y-3694143D01*
X5965476Y-3694143D02*
X5963095Y-3696524D01*
X5963095Y-3696524D02*
X5958333Y-3698905D01*
X5958333Y-3698905D02*
X5939286Y-3698905D01*
X6015476Y-3722715D02*
X5986905Y-3722715D01*
X6001190Y-3722715D02*
X6001190Y-3672715D01*
X6001190Y-3672715D02*
X5996429Y-3679858D01*
X5996429Y-3679858D02*
X5991667Y-3684620D01*
X5991667Y-3684620D02*
X5986905Y-3687001D01*
X6032143Y-3672715D02*
X6063095Y-3672715D01*
X6063095Y-3672715D02*
X6046428Y-3691762D01*
X6046428Y-3691762D02*
X6053571Y-3691762D01*
X6053571Y-3691762D02*
X6058333Y-3694143D01*
X6058333Y-3694143D02*
X6060714Y-3696524D01*
X6060714Y-3696524D02*
X6063095Y-3701286D01*
X6063095Y-3701286D02*
X6063095Y-3713191D01*
X6063095Y-3713191D02*
X6060714Y-3717953D01*
X6060714Y-3717953D02*
X6058333Y-3720334D01*
X6058333Y-3720334D02*
X6053571Y-3722715D01*
X6053571Y-3722715D02*
X6039286Y-3722715D01*
X6039286Y-3722715D02*
X6034524Y-3720334D01*
X6034524Y-3720334D02*
X6032143Y-3717953D01*
D10*
X6425333Y-1746557D02*
X6425333Y-1825890D01*
X6425333Y-1825890D02*
X6430000Y-1835223D01*
X6430000Y-1835223D02*
X6434667Y-1839890D01*
X6434667Y-1839890D02*
X6444000Y-1844557D01*
X6444000Y-1844557D02*
X6462667Y-1844557D01*
X6462667Y-1844557D02*
X6472000Y-1839890D01*
X6472000Y-1839890D02*
X6476667Y-1835223D01*
X6476667Y-1835223D02*
X6481333Y-1825890D01*
X6481333Y-1825890D02*
X6481333Y-1746557D01*
X6518667Y-1746557D02*
X6579333Y-1746557D01*
X6579333Y-1746557D02*
X6546667Y-1783890D01*
X6546667Y-1783890D02*
X6560667Y-1783890D01*
X6560667Y-1783890D02*
X6570000Y-1788557D01*
X6570000Y-1788557D02*
X6574667Y-1793223D01*
X6574667Y-1793223D02*
X6579333Y-1802557D01*
X6579333Y-1802557D02*
X6579333Y-1825890D01*
X6579333Y-1825890D02*
X6574667Y-1835223D01*
X6574667Y-1835223D02*
X6570000Y-1839890D01*
X6570000Y-1839890D02*
X6560667Y-1844557D01*
X6560667Y-1844557D02*
X6532667Y-1844557D01*
X6532667Y-1844557D02*
X6523333Y-1839890D01*
X6523333Y-1839890D02*
X6518667Y-1835223D01*
D11*
X4691667Y-4870453D02*
X4689286Y-4872834D01*
X4689286Y-4872834D02*
X4682143Y-4875215D01*
X4682143Y-4875215D02*
X4677381Y-4875215D01*
X4677381Y-4875215D02*
X4670238Y-4872834D01*
X4670238Y-4872834D02*
X4665476Y-4868072D01*
X4665476Y-4868072D02*
X4663095Y-4863310D01*
X4663095Y-4863310D02*
X4660714Y-4853786D01*
X4660714Y-4853786D02*
X4660714Y-4846644D01*
X4660714Y-4846644D02*
X4663095Y-4837120D01*
X4663095Y-4837120D02*
X4665476Y-4832358D01*
X4665476Y-4832358D02*
X4670238Y-4827596D01*
X4670238Y-4827596D02*
X4677381Y-4825215D01*
X4677381Y-4825215D02*
X4682143Y-4825215D01*
X4682143Y-4825215D02*
X4689286Y-4827596D01*
X4689286Y-4827596D02*
X4691667Y-4829977D01*
X4708333Y-4825215D02*
X4741667Y-4825215D01*
X4741667Y-4825215D02*
X4720238Y-4875215D01*
X3991667Y-3767953D02*
X3989286Y-3770334D01*
X3989286Y-3770334D02*
X3982143Y-3772715D01*
X3982143Y-3772715D02*
X3977381Y-3772715D01*
X3977381Y-3772715D02*
X3970238Y-3770334D01*
X3970238Y-3770334D02*
X3965476Y-3765572D01*
X3965476Y-3765572D02*
X3963095Y-3760810D01*
X3963095Y-3760810D02*
X3960714Y-3751286D01*
X3960714Y-3751286D02*
X3960714Y-3744143D01*
X3960714Y-3744143D02*
X3963095Y-3734620D01*
X3963095Y-3734620D02*
X3965476Y-3729858D01*
X3965476Y-3729858D02*
X3970238Y-3725096D01*
X3970238Y-3725096D02*
X3977381Y-3722715D01*
X3977381Y-3722715D02*
X3982143Y-3722715D01*
X3982143Y-3722715D02*
X3989286Y-3725096D01*
X3989286Y-3725096D02*
X3991667Y-3727477D01*
X4034524Y-3739382D02*
X4034524Y-3772715D01*
X4022619Y-3720334D02*
X4010714Y-3756048D01*
X4010714Y-3756048D02*
X4041667Y-3756048D01*
D10*
X4192857Y-1315720D02*
X4207143Y-1320482D01*
X4207143Y-1320482D02*
X4230952Y-1320482D01*
X4230952Y-1320482D02*
X4240476Y-1315720D01*
X4240476Y-1315720D02*
X4245238Y-1310958D01*
X4245238Y-1310958D02*
X4250000Y-1301434D01*
X4250000Y-1301434D02*
X4250000Y-1291910D01*
X4250000Y-1291910D02*
X4245238Y-1282387D01*
X4245238Y-1282387D02*
X4240476Y-1277625D01*
X4240476Y-1277625D02*
X4230952Y-1272863D01*
X4230952Y-1272863D02*
X4211905Y-1268101D01*
X4211905Y-1268101D02*
X4202381Y-1263339D01*
X4202381Y-1263339D02*
X4197619Y-1258577D01*
X4197619Y-1258577D02*
X4192857Y-1249053D01*
X4192857Y-1249053D02*
X4192857Y-1239530D01*
X4192857Y-1239530D02*
X4197619Y-1230006D01*
X4197619Y-1230006D02*
X4202381Y-1225244D01*
X4202381Y-1225244D02*
X4211905Y-1220482D01*
X4211905Y-1220482D02*
X4235714Y-1220482D01*
X4235714Y-1220482D02*
X4250000Y-1225244D01*
X4283333Y-1220482D02*
X4307143Y-1320482D01*
X4307143Y-1320482D02*
X4326190Y-1249053D01*
X4326190Y-1249053D02*
X4345238Y-1320482D01*
X4345238Y-1320482D02*
X4369048Y-1220482D01*
X4383333Y-1330006D02*
X4459524Y-1330006D01*
X4478571Y-1315720D02*
X4492857Y-1320482D01*
X4492857Y-1320482D02*
X4516667Y-1320482D01*
X4516667Y-1320482D02*
X4526190Y-1315720D01*
X4526190Y-1315720D02*
X4530952Y-1310958D01*
X4530952Y-1310958D02*
X4535714Y-1301434D01*
X4535714Y-1301434D02*
X4535714Y-1291910D01*
X4535714Y-1291910D02*
X4530952Y-1282387D01*
X4530952Y-1282387D02*
X4526190Y-1277625D01*
X4526190Y-1277625D02*
X4516667Y-1272863D01*
X4516667Y-1272863D02*
X4497619Y-1268101D01*
X4497619Y-1268101D02*
X4488095Y-1263339D01*
X4488095Y-1263339D02*
X4483333Y-1258577D01*
X4483333Y-1258577D02*
X4478571Y-1249053D01*
X4478571Y-1249053D02*
X4478571Y-1239530D01*
X4478571Y-1239530D02*
X4483333Y-1230006D01*
X4483333Y-1230006D02*
X4488095Y-1225244D01*
X4488095Y-1225244D02*
X4497619Y-1220482D01*
X4497619Y-1220482D02*
X4521429Y-1220482D01*
X4521429Y-1220482D02*
X4535714Y-1225244D01*
X4578571Y-1320482D02*
X4578571Y-1220482D01*
X4578571Y-1220482D02*
X4616667Y-1220482D01*
X4616667Y-1220482D02*
X4626190Y-1225244D01*
X4626190Y-1225244D02*
X4630952Y-1230006D01*
X4630952Y-1230006D02*
X4635714Y-1239530D01*
X4635714Y-1239530D02*
X4635714Y-1253815D01*
X4635714Y-1253815D02*
X4630952Y-1263339D01*
X4630952Y-1263339D02*
X4626190Y-1268101D01*
X4626190Y-1268101D02*
X4616667Y-1272863D01*
X4616667Y-1272863D02*
X4578571Y-1272863D01*
X4669048Y-1220482D02*
X4730952Y-1220482D01*
X4730952Y-1220482D02*
X4697619Y-1258577D01*
X4697619Y-1258577D02*
X4711905Y-1258577D01*
X4711905Y-1258577D02*
X4721429Y-1263339D01*
X4721429Y-1263339D02*
X4726190Y-1268101D01*
X4726190Y-1268101D02*
X4730952Y-1277625D01*
X4730952Y-1277625D02*
X4730952Y-1301434D01*
X4730952Y-1301434D02*
X4726190Y-1310958D01*
X4726190Y-1310958D02*
X4721429Y-1315720D01*
X4721429Y-1315720D02*
X4711905Y-1320482D01*
X4711905Y-1320482D02*
X4683333Y-1320482D01*
X4683333Y-1320482D02*
X4673810Y-1315720D01*
X4673810Y-1315720D02*
X4669048Y-1310958D01*
X4759524Y-1220482D02*
X4816667Y-1220482D01*
X4788095Y-1320482D02*
X4788095Y-1220482D01*
X4366667Y-2060720D02*
X4380952Y-2065482D01*
X4380952Y-2065482D02*
X4404762Y-2065482D01*
X4404762Y-2065482D02*
X4414286Y-2060720D01*
X4414286Y-2060720D02*
X4419048Y-2055958D01*
X4419048Y-2055958D02*
X4423810Y-2046434D01*
X4423810Y-2046434D02*
X4423810Y-2036910D01*
X4423810Y-2036910D02*
X4419048Y-2027387D01*
X4419048Y-2027387D02*
X4414286Y-2022625D01*
X4414286Y-2022625D02*
X4404762Y-2017863D01*
X4404762Y-2017863D02*
X4385714Y-2013101D01*
X4385714Y-2013101D02*
X4376191Y-2008339D01*
X4376191Y-2008339D02*
X4371429Y-2003577D01*
X4371429Y-2003577D02*
X4366667Y-1994053D01*
X4366667Y-1994053D02*
X4366667Y-1984529D01*
X4366667Y-1984529D02*
X4371429Y-1975006D01*
X4371429Y-1975006D02*
X4376191Y-1970244D01*
X4376191Y-1970244D02*
X4385714Y-1965482D01*
X4385714Y-1965482D02*
X4409524Y-1965482D01*
X4409524Y-1965482D02*
X4423810Y-1970244D01*
X4457143Y-1965482D02*
X4480952Y-2065482D01*
X4480952Y-2065482D02*
X4500000Y-1994053D01*
X4500000Y-1994053D02*
X4519048Y-2065482D01*
X4519048Y-2065482D02*
X4542857Y-1965482D01*
X4633333Y-2065482D02*
X4576191Y-2065482D01*
X4604762Y-2065482D02*
X4604762Y-1965482D01*
X4604762Y-1965482D02*
X4595238Y-1979768D01*
X4595238Y-1979768D02*
X4585714Y-1989291D01*
X4585714Y-1989291D02*
X4576191Y-1994053D01*
X3492809Y-5514482D02*
X3492809Y-5595434D01*
X3492809Y-5595434D02*
X3497571Y-5604958D01*
X3497571Y-5604958D02*
X3502333Y-5609720D01*
X3502333Y-5609720D02*
X3511857Y-5614482D01*
X3511857Y-5614482D02*
X3530905Y-5614482D01*
X3530905Y-5614482D02*
X3540428Y-5609720D01*
X3540428Y-5609720D02*
X3545190Y-5604958D01*
X3545190Y-5604958D02*
X3549952Y-5595434D01*
X3549952Y-5595434D02*
X3549952Y-5514482D01*
X3649952Y-5614482D02*
X3592809Y-5614482D01*
X3621381Y-5614482D02*
X3621381Y-5514482D01*
X3621381Y-5514482D02*
X3611857Y-5528768D01*
X3611857Y-5528768D02*
X3602333Y-5538291D01*
X3602333Y-5538291D02*
X3592809Y-5543053D01*
D11*
X2741667Y-4622715D02*
X2725000Y-4598905D01*
X2713095Y-4622715D02*
X2713095Y-4572715D01*
X2713095Y-4572715D02*
X2732143Y-4572715D01*
X2732143Y-4572715D02*
X2736905Y-4575096D01*
X2736905Y-4575096D02*
X2739286Y-4577477D01*
X2739286Y-4577477D02*
X2741667Y-4582239D01*
X2741667Y-4582239D02*
X2741667Y-4589382D01*
X2741667Y-4589382D02*
X2739286Y-4594144D01*
X2739286Y-4594144D02*
X2736905Y-4596524D01*
X2736905Y-4596524D02*
X2732143Y-4598905D01*
X2732143Y-4598905D02*
X2713095Y-4598905D01*
X2758333Y-4572715D02*
X2789286Y-4572715D01*
X2789286Y-4572715D02*
X2772619Y-4591763D01*
X2772619Y-4591763D02*
X2779762Y-4591763D01*
X2779762Y-4591763D02*
X2784524Y-4594144D01*
X2784524Y-4594144D02*
X2786905Y-4596524D01*
X2786905Y-4596524D02*
X2789286Y-4601286D01*
X2789286Y-4601286D02*
X2789286Y-4613191D01*
X2789286Y-4613191D02*
X2786905Y-4617953D01*
X2786905Y-4617953D02*
X2784524Y-4620334D01*
X2784524Y-4620334D02*
X2779762Y-4622715D01*
X2779762Y-4622715D02*
X2765476Y-4622715D01*
X2765476Y-4622715D02*
X2760714Y-4620334D01*
X2760714Y-4620334D02*
X2758333Y-4617953D01*
D10*
X3503809Y-4375482D02*
X3503809Y-4456434D01*
X3503809Y-4456434D02*
X3508571Y-4465958D01*
X3508571Y-4465958D02*
X3513333Y-4470720D01*
X3513333Y-4470720D02*
X3522857Y-4475482D01*
X3522857Y-4475482D02*
X3541905Y-4475482D01*
X3541905Y-4475482D02*
X3551428Y-4470720D01*
X3551428Y-4470720D02*
X3556190Y-4465958D01*
X3556190Y-4465958D02*
X3560952Y-4456434D01*
X3560952Y-4456434D02*
X3560952Y-4375482D01*
X3603809Y-4385006D02*
X3608571Y-4380244D01*
X3608571Y-4380244D02*
X3618095Y-4375482D01*
X3618095Y-4375482D02*
X3641905Y-4375482D01*
X3641905Y-4375482D02*
X3651428Y-4380244D01*
X3651428Y-4380244D02*
X3656190Y-4385006D01*
X3656190Y-4385006D02*
X3660952Y-4394530D01*
X3660952Y-4394530D02*
X3660952Y-4404053D01*
X3660952Y-4404053D02*
X3656190Y-4418339D01*
X3656190Y-4418339D02*
X3599048Y-4475482D01*
X3599048Y-4475482D02*
X3660952Y-4475482D01*
D11*
X4696667Y-3757953D02*
X4694286Y-3760334D01*
X4694286Y-3760334D02*
X4687143Y-3762715D01*
X4687143Y-3762715D02*
X4682381Y-3762715D01*
X4682381Y-3762715D02*
X4675238Y-3760334D01*
X4675238Y-3760334D02*
X4670476Y-3755572D01*
X4670476Y-3755572D02*
X4668095Y-3750810D01*
X4668095Y-3750810D02*
X4665714Y-3741286D01*
X4665714Y-3741286D02*
X4665714Y-3734143D01*
X4665714Y-3734143D02*
X4668095Y-3724620D01*
X4668095Y-3724620D02*
X4670476Y-3719858D01*
X4670476Y-3719858D02*
X4675238Y-3715096D01*
X4675238Y-3715096D02*
X4682381Y-3712715D01*
X4682381Y-3712715D02*
X4687143Y-3712715D01*
X4687143Y-3712715D02*
X4694286Y-3715096D01*
X4694286Y-3715096D02*
X4696667Y-3717477D01*
X4741905Y-3712715D02*
X4718095Y-3712715D01*
X4718095Y-3712715D02*
X4715714Y-3736524D01*
X4715714Y-3736524D02*
X4718095Y-3734143D01*
X4718095Y-3734143D02*
X4722857Y-3731762D01*
X4722857Y-3731762D02*
X4734762Y-3731762D01*
X4734762Y-3731762D02*
X4739524Y-3734143D01*
X4739524Y-3734143D02*
X4741905Y-3736524D01*
X4741905Y-3736524D02*
X4744286Y-3741286D01*
X4744286Y-3741286D02*
X4744286Y-3753191D01*
X4744286Y-3753191D02*
X4741905Y-3757953D01*
X4741905Y-3757953D02*
X4739524Y-3760334D01*
X4739524Y-3760334D02*
X4734762Y-3762715D01*
X4734762Y-3762715D02*
X4722857Y-3762715D01*
X4722857Y-3762715D02*
X4718095Y-3760334D01*
X4718095Y-3760334D02*
X4715714Y-3757953D01*
D12*
%TO.C,RV1*%
X2880000Y-5955000D02*
G75*
G02*
X2660000Y-5955000I-110000J0D01*
G01*
X2660000Y-5955000D02*
G75*
G02*
X2880000Y-5955000I110000J0D01*
G01*
X2930000Y-6075000D02*
X2930000Y-5675000D01*
X2930000Y-6075000D02*
X1961000Y-6075000D01*
X2930000Y-5675000D02*
X2830000Y-5575000D01*
X1961000Y-6075000D02*
X1961000Y-5575000D01*
X1961000Y-5575000D02*
X2830000Y-5575000D01*
%TO.C,R18*%
X6600000Y-5537500D02*
X6800000Y-5537500D01*
X6600000Y-5662500D02*
X6600000Y-5537500D01*
X6800000Y-5537500D02*
X6800000Y-5662500D01*
X6800000Y-5662500D02*
X6600000Y-5662500D01*
%TO.C,C1*%
X5937500Y-1800000D02*
X6062500Y-1800000D01*
X5937500Y-2000000D02*
X5937500Y-1800000D01*
X6062500Y-1800000D02*
X6062500Y-2000000D01*
X6062500Y-2000000D02*
X5937500Y-2000000D01*
%TO.C,U4*%
X5291000Y-3985000D02*
X5291000Y-5013000D01*
X5291000Y-5013000D02*
X6307000Y-5013000D01*
X5481500Y-3991000D02*
X6116500Y-3991000D01*
X5481500Y-5007000D02*
X5481500Y-3991000D01*
X6016500Y-5007000D02*
X5481500Y-5007000D01*
X6116500Y-3991000D02*
X6116500Y-4907000D01*
X6116500Y-4907000D02*
X6016500Y-5007000D01*
X6307000Y-3985000D02*
X5291000Y-3985000D01*
X6307000Y-5013000D02*
X6307000Y-3985000D01*
%TO.C,C9*%
X5900000Y-3337500D02*
X6100000Y-3337500D01*
X5900000Y-3462500D02*
X5900000Y-3337500D01*
X6100000Y-3337500D02*
X6100000Y-3462500D01*
X6100000Y-3462500D02*
X5900000Y-3462500D01*
%TO.C,R6*%
X4605000Y-3957500D02*
X4805000Y-3957500D01*
X4605000Y-4082500D02*
X4605000Y-3957500D01*
X4805000Y-3957500D02*
X4805000Y-4082500D01*
X4805000Y-4082500D02*
X4605000Y-4082500D01*
%TO.C,C2*%
X7037500Y-1800000D02*
X7162500Y-1800000D01*
X7037500Y-2000000D02*
X7037500Y-1800000D01*
X7162500Y-1800000D02*
X7162500Y-2000000D01*
X7162500Y-2000000D02*
X7037500Y-2000000D01*
%TO.C,R7*%
X4603750Y-4237500D02*
X4803750Y-4237500D01*
X4603750Y-4362500D02*
X4603750Y-4237500D01*
X4803750Y-4237500D02*
X4803750Y-4362500D01*
X4803750Y-4362500D02*
X4603750Y-4362500D01*
%TO.C,R5*%
X3500000Y-3687500D02*
X3700000Y-3687500D01*
X3500000Y-3812500D02*
X3500000Y-3687500D01*
X3700000Y-3687500D02*
X3700000Y-3812500D01*
X3700000Y-3812500D02*
X3500000Y-3812500D01*
%TO.C,R16*%
X6600000Y-5837500D02*
X6800000Y-5837500D01*
X6600000Y-5962500D02*
X6600000Y-5837500D01*
X6800000Y-5837500D02*
X6800000Y-5962500D01*
X6800000Y-5962500D02*
X6600000Y-5962500D01*
%TO.C,J3*%
X2520000Y-2109500D02*
X2470000Y-2167500D01*
X2570000Y-2167500D02*
X2520000Y-2109500D01*
X2647000Y-2167500D02*
X1753000Y-2167500D01*
X1753000Y-1432500D01*
X2647000Y-1432500D01*
X2647000Y-2167500D01*
%TO.C,C10*%
X5500000Y-3637500D02*
X5700000Y-3637500D01*
X5500000Y-3762500D02*
X5500000Y-3637500D01*
X5700000Y-3637500D02*
X5700000Y-3762500D01*
X5700000Y-3762500D02*
X5500000Y-3762500D01*
%TO.C,R11*%
X5900000Y-3037500D02*
X6100000Y-3037500D01*
X5900000Y-3162500D02*
X5900000Y-3037500D01*
X6100000Y-3037500D02*
X6100000Y-3162500D01*
X6100000Y-3162500D02*
X5900000Y-3162500D01*
%TO.C,J5*%
X5246500Y-1666000D02*
X5691000Y-1666000D01*
X5246500Y-1920000D02*
X5246500Y-1666000D01*
X5691000Y-1666000D02*
X5754500Y-1729500D01*
X5754500Y-1729500D02*
X5754500Y-1920000D01*
X5754500Y-1920000D02*
X5246500Y-1920000D01*
%TO.C,C11*%
X6600000Y-5237500D02*
X6800000Y-5237500D01*
X6600000Y-5362500D02*
X6600000Y-5237500D01*
X6800000Y-5237500D02*
X6800000Y-5362500D01*
X6800000Y-5362500D02*
X6600000Y-5362500D01*
%TO.C,U5*%
X5291000Y-5085000D02*
X5291000Y-6113000D01*
X5291000Y-6113000D02*
X6307000Y-6113000D01*
X5481500Y-5091000D02*
X6116500Y-5091000D01*
X5481500Y-6107000D02*
X5481500Y-5091000D01*
X6016500Y-6107000D02*
X5481500Y-6107000D01*
X6116500Y-5091000D02*
X6116500Y-6007000D01*
X6116500Y-6007000D02*
X6016500Y-6107000D01*
X6307000Y-5085000D02*
X5291000Y-5085000D01*
X6307000Y-6113000D02*
X6307000Y-5085000D01*
%TO.C,R8*%
X4603750Y-4507500D02*
X4803750Y-4507500D01*
X4603750Y-4632500D02*
X4603750Y-4507500D01*
X4803750Y-4507500D02*
X4803750Y-4632500D01*
X4803750Y-4632500D02*
X4603750Y-4632500D01*
%TO.C,R10*%
X5900000Y-2737500D02*
X6100000Y-2737500D01*
X5900000Y-2862500D02*
X5900000Y-2737500D01*
X6100000Y-2737500D02*
X6100000Y-2862500D01*
X6100000Y-2862500D02*
X5900000Y-2862500D01*
%TO.C,J2*%
X4186698Y-5584605D02*
X4186698Y-6334605D01*
X4186698Y-6334605D02*
X5186698Y-6334605D01*
X4191698Y-6214605D02*
X5181698Y-6214605D01*
X5186698Y-5584605D02*
X4186698Y-5584605D01*
X5186698Y-6334605D02*
X5186698Y-5584605D01*
%TO.C,R14*%
X6600000Y-4937500D02*
X6800000Y-4937500D01*
X6600000Y-5062500D02*
X6600000Y-4937500D01*
X6800000Y-4937500D02*
X6800000Y-5062500D01*
X6800000Y-5062500D02*
X6600000Y-5062500D01*
%TO.C,R4*%
X3100000Y-3687500D02*
X3300000Y-3687500D01*
X3100000Y-3812500D02*
X3100000Y-3687500D01*
X3300000Y-3687500D02*
X3300000Y-3812500D01*
X3300000Y-3812500D02*
X3100000Y-3812500D01*
%TO.C,R2*%
X2537500Y-4800000D02*
X2662500Y-4800000D01*
X2537500Y-5000000D02*
X2537500Y-4800000D01*
X2662500Y-4800000D02*
X2662500Y-5000000D01*
X2662500Y-5000000D02*
X2537500Y-5000000D01*
%TO.C,R12*%
X5500000Y-3337500D02*
X5700000Y-3337500D01*
X5500000Y-3462500D02*
X5500000Y-3337500D01*
X5700000Y-3337500D02*
X5700000Y-3462500D01*
X5700000Y-3462500D02*
X5500000Y-3462500D01*
%TO.C,C3*%
X2832500Y-4800000D02*
X2957500Y-4800000D01*
X2832500Y-5000000D02*
X2832500Y-4800000D01*
X2957500Y-4800000D02*
X2957500Y-5000000D01*
X2957500Y-5000000D02*
X2832500Y-5000000D01*
%TO.C,C8*%
X5500000Y-3037500D02*
X5700000Y-3037500D01*
X5500000Y-3162500D02*
X5500000Y-3037500D01*
X5700000Y-3037500D02*
X5700000Y-3162500D01*
X5700000Y-3162500D02*
X5500000Y-3162500D01*
%TO.C,R9*%
X5500000Y-2737500D02*
X5700000Y-2737500D01*
X5500000Y-2862500D02*
X5500000Y-2737500D01*
X5700000Y-2737500D02*
X5700000Y-2862500D01*
X5700000Y-2862500D02*
X5500000Y-2862500D01*
%TO.C,R15*%
X6600000Y-4637500D02*
X6800000Y-4637500D01*
X6600000Y-4762500D02*
X6600000Y-4637500D01*
X6800000Y-4637500D02*
X6800000Y-4762500D01*
X6800000Y-4762500D02*
X6600000Y-4762500D01*
%TO.C,R17*%
X6600000Y-6137500D02*
X6800000Y-6137500D01*
X6600000Y-6262500D02*
X6600000Y-6137500D01*
X6800000Y-6137500D02*
X6800000Y-6262500D01*
X6800000Y-6262500D02*
X6600000Y-6262500D01*
%TO.C,J1*%
X2945000Y-1398250D02*
X3695000Y-1398250D01*
X2945000Y-2218250D02*
X2945000Y-1398250D01*
X3045000Y-1998250D02*
X3045000Y-2218250D01*
X3045000Y-2218250D02*
X2945000Y-2218250D01*
X3145000Y-1998250D02*
X3195000Y-1927539D01*
X3195000Y-1927539D02*
X3245000Y-1998250D01*
X3595000Y-1998250D02*
X3045000Y-1998250D01*
X3595000Y-2218250D02*
X3595000Y-1998250D01*
X3695000Y-1398250D02*
X3695000Y-2218250D01*
X3695000Y-2218250D02*
X3595000Y-2218250D01*
%TO.C,C6*%
X4337500Y-4332500D02*
X4462500Y-4332500D01*
X4337500Y-4532500D02*
X4337500Y-4332500D01*
X4462500Y-4332500D02*
X4462500Y-4532500D01*
X4462500Y-4532500D02*
X4337500Y-4532500D01*
%TO.C,R13*%
X5900000Y-3637500D02*
X6100000Y-3637500D01*
X5900000Y-3762500D02*
X5900000Y-3637500D01*
X6100000Y-3637500D02*
X6100000Y-3762500D01*
X6100000Y-3762500D02*
X5900000Y-3762500D01*
%TO.C,U3*%
X6305000Y-1652500D02*
X6402500Y-1555000D01*
X6305000Y-2045000D02*
X6305000Y-1652500D01*
X6402500Y-1555000D02*
X6695000Y-1555000D01*
X6695000Y-1555000D02*
X6695000Y-2045000D01*
X6695000Y-2045000D02*
X6305000Y-2045000D01*
%TO.C,C7*%
X4600000Y-4790000D02*
X4800000Y-4790000D01*
X4600000Y-4915000D02*
X4600000Y-4790000D01*
X4800000Y-4790000D02*
X4800000Y-4915000D01*
X4800000Y-4915000D02*
X4600000Y-4915000D01*
%TO.C,C4*%
X3900000Y-3687500D02*
X4100000Y-3687500D01*
X3900000Y-3812500D02*
X3900000Y-3687500D01*
X4100000Y-3687500D02*
X4100000Y-3812500D01*
X4100000Y-3812500D02*
X3900000Y-3812500D01*
%TO.C,SW1*%
X4015000Y-1540000D02*
X4980000Y-1540000D01*
X4015000Y-1795000D02*
X4015000Y-1540000D01*
X4435000Y-1415000D02*
X4435000Y-1540000D01*
X4445000Y-1405000D02*
X4435000Y-1415000D01*
X4460000Y-1390000D02*
X4445000Y-1405000D01*
X4545000Y-1390000D02*
X4460000Y-1390000D01*
X4565000Y-1410000D02*
X4545000Y-1390000D01*
X4565000Y-1540000D02*
X4565000Y-1410000D01*
X4985000Y-1540000D02*
X4985000Y-1795000D01*
X4985000Y-1795000D02*
X4015000Y-1795000D01*
%TO.C,U1*%
X3061000Y-5055000D02*
X3061000Y-6083000D01*
X3061000Y-6083000D02*
X4077000Y-6083000D01*
X3251500Y-5061000D02*
X3886500Y-5061000D01*
X3251500Y-6077000D02*
X3251500Y-5061000D01*
X3786500Y-6077000D02*
X3251500Y-6077000D01*
X3886500Y-5061000D02*
X3886500Y-5977000D01*
X3886500Y-5977000D02*
X3786500Y-6077000D01*
X4077000Y-5055000D02*
X3061000Y-5055000D01*
X4077000Y-6083000D02*
X4077000Y-5055000D01*
%TO.C,R3*%
X2650000Y-4537500D02*
X2850000Y-4537500D01*
X2650000Y-4662500D02*
X2650000Y-4537500D01*
X2850000Y-4537500D02*
X2850000Y-4662500D01*
X2850000Y-4662500D02*
X2650000Y-4662500D01*
%TO.C,U2*%
X3073000Y-3917000D02*
X3073000Y-4945000D01*
X3073000Y-4945000D02*
X4089000Y-4945000D01*
X3263500Y-4023000D02*
X3363500Y-3923000D01*
X3263500Y-4939000D02*
X3263500Y-4023000D01*
X3363500Y-3923000D02*
X3898500Y-3923000D01*
X3898500Y-3923000D02*
X3898500Y-4939000D01*
X3898500Y-4939000D02*
X3263500Y-4939000D01*
X4089000Y-3917000D02*
X3073000Y-3917000D01*
X4089000Y-4945000D02*
X4089000Y-3917000D01*
%TO.C,C5*%
X4605000Y-3677500D02*
X4805000Y-3677500D01*
X4605000Y-3802500D02*
X4605000Y-3677500D01*
X4805000Y-3677500D02*
X4805000Y-3802500D01*
X4805000Y-3802500D02*
X4605000Y-3802500D01*
%TD*%
M02*
