%TF.GenerationSoftware,KiCad,Pcbnew,9.0.4*%
%TF.CreationDate,2025-09-28T14:36:25-05:00*%
%TF.ProjectId,version 2,76657273-696f-46e2-9032-2e6b69636164,rev?*%
%TF.SameCoordinates,Original*%
%TF.FileFunction,Copper,L1,Top*%
%TF.FilePolarity,Positive*%
%FSLAX45Y45*%
G04 Gerber Fmt 4.5, Leading zero omitted, Abs format (unit mm)*
G04 Created by KiCad (PCBNEW 9.0.4) date 2025-09-28 14:36:25*
%MOMM*%
%LPD*%
G01*
G04 APERTURE LIST*
G04 Aperture macros list*
%AMRoundRect*
0 Rectangle with rounded corners*
0 $1 Rounding radius*
0 $2 $3 $4 $5 $6 $7 $8 $9 X,Y pos of 4 corners*
0 Add a 4 corners polygon primitive as box body*
4,1,4,$2,$3,$4,$5,$6,$7,$8,$9,$2,$3,0*
0 Add four circle primitives for the rounded corners*
1,1,$1+$1,$2,$3*
1,1,$1+$1,$4,$5*
1,1,$1+$1,$6,$7*
1,1,$1+$1,$8,$9*
0 Add four rect primitives between the rounded corners*
20,1,$1+$1,$2,$3,$4,$5,0*
20,1,$1+$1,$4,$5,$6,$7,0*
20,1,$1+$1,$6,$7,$8,$9,0*
20,1,$1+$1,$8,$9,$2,$3,0*%
G04 Aperture macros list end*
%TA.AperFunction,ComponentPad*%
%ADD10C,1.650000*%
%TD*%
%TA.AperFunction,ComponentPad*%
%ADD11RoundRect,0.412500X0.412500X0.412500X-0.412500X0.412500X-0.412500X-0.412500X0.412500X-0.412500X0*%
%TD*%
%TA.AperFunction,SMDPad,CuDef*%
%ADD12RoundRect,0.250000X0.262500X0.450000X-0.262500X0.450000X-0.262500X-0.450000X0.262500X-0.450000X0*%
%TD*%
%TA.AperFunction,SMDPad,CuDef*%
%ADD13RoundRect,0.250000X-0.475000X0.250000X-0.475000X-0.250000X0.475000X-0.250000X0.475000X0.250000X0*%
%TD*%
%TA.AperFunction,ComponentPad*%
%ADD14R,2.400000X1.600000*%
%TD*%
%TA.AperFunction,ComponentPad*%
%ADD15O,2.400000X1.600000*%
%TD*%
%TA.AperFunction,SMDPad,CuDef*%
%ADD16RoundRect,0.250000X0.250000X0.475000X-0.250000X0.475000X-0.250000X-0.475000X0.250000X-0.475000X0*%
%TD*%
%TA.AperFunction,SMDPad,CuDef*%
%ADD17RoundRect,0.250000X-0.262500X-0.450000X0.262500X-0.450000X0.262500X0.450000X-0.262500X0.450000X0*%
%TD*%
%TA.AperFunction,SMDPad,CuDef*%
%ADD18RoundRect,0.150000X0.150000X0.425000X-0.150000X0.425000X-0.150000X-0.425000X0.150000X-0.425000X0*%
%TD*%
%TA.AperFunction,SMDPad,CuDef*%
%ADD19RoundRect,0.075000X0.075000X0.500000X-0.075000X0.500000X-0.075000X-0.500000X0.075000X-0.500000X0*%
%TD*%
%TA.AperFunction,SMDPad,CuDef*%
%ADD20RoundRect,0.250000X0.840000X0.750000X-0.840000X0.750000X-0.840000X-0.750000X0.840000X-0.750000X0*%
%TD*%
%TA.AperFunction,SMDPad,CuDef*%
%ADD21RoundRect,0.250000X-0.250000X-0.475000X0.250000X-0.475000X0.250000X0.475000X-0.250000X0.475000X0*%
%TD*%
%TA.AperFunction,ComponentPad*%
%ADD22R,1.700000X1.700000*%
%TD*%
%TA.AperFunction,ComponentPad*%
%ADD23O,1.700000X1.700000*%
%TD*%
%TA.AperFunction,ComponentPad*%
%ADD24R,3.000000X3.000000*%
%TD*%
%TA.AperFunction,ComponentPad*%
%ADD25C,3.000000*%
%TD*%
%TA.AperFunction,SMDPad,CuDef*%
%ADD26RoundRect,0.250000X0.450000X-0.262500X0.450000X0.262500X-0.450000X0.262500X-0.450000X-0.262500X0*%
%TD*%
%TA.AperFunction,SMDPad,CuDef*%
%ADD27RoundRect,0.250000X0.475000X-0.250000X0.475000X0.250000X-0.475000X0.250000X-0.475000X-0.250000X0*%
%TD*%
%TA.AperFunction,ComponentPad*%
%ADD28RoundRect,0.250000X-0.600000X-0.750000X0.600000X-0.750000X0.600000X0.750000X-0.600000X0.750000X0*%
%TD*%
%TA.AperFunction,ComponentPad*%
%ADD29O,1.700000X2.000000*%
%TD*%
%TA.AperFunction,SMDPad,CuDef*%
%ADD30RoundRect,0.150000X-0.825000X-0.150000X0.825000X-0.150000X0.825000X0.150000X-0.825000X0.150000X0*%
%TD*%
%TA.AperFunction,SMDPad,CuDef*%
%ADD31R,1.000000X0.800000*%
%TD*%
%TA.AperFunction,SMDPad,CuDef*%
%ADD32R,0.700000X1.500000*%
%TD*%
%TA.AperFunction,ViaPad*%
%ADD33C,0.600000*%
%TD*%
%TA.AperFunction,Conductor*%
%ADD34C,0.200000*%
%TD*%
G04 APERTURE END LIST*
D10*
%TO.P,RV1,3,3*%
%TO.N,unconnected-(RV1-Pad3)*%
X2192000Y-5825000D03*
%TO.P,RV1,2,2*%
%TO.N,Net-(RV1-Pad2)*%
X2446000Y-5825000D03*
D11*
%TO.P,RV1,1,1*%
%TO.N,Net-(RV1-Pad1)*%
X2700000Y-5825000D03*
%TD*%
D12*
%TO.P,R18,1*%
%TO.N,2.5V*%
X6791250Y-5600000D03*
%TO.P,R18,2*%
%TO.N,Net-(U5A-+)*%
X6608750Y-5600000D03*
%TD*%
D13*
%TO.P,C1,1*%
%TO.N,+5V*%
X6000000Y-1805000D03*
%TO.P,C1,2*%
%TO.N,GND*%
X6000000Y-1995000D03*
%TD*%
D14*
%TO.P,U4,1*%
%TO.N,Out6*%
X6180000Y-4880000D03*
D15*
%TO.P,U4,2,-*%
X6180000Y-4626000D03*
%TO.P,U4,3,+*%
%TO.N,Out5*%
X6180000Y-4372000D03*
%TO.P,U4,4*%
%TO.N,N/C*%
X6180000Y-4118000D03*
%TO.P,U4,5,+*%
%TO.N,Net-(U4B-+)*%
X5418000Y-4118000D03*
%TO.P,U4,6,-*%
%TO.N,Out4*%
X5418000Y-4372000D03*
%TO.P,U4,7*%
X5418000Y-4626000D03*
%TO.P,U4,8*%
%TO.N,N/C*%
X5418000Y-4880000D03*
%TD*%
D16*
%TO.P,C9,1*%
%TO.N,Net-(C9-Pad1)*%
X6095000Y-3400000D03*
%TO.P,C9,2*%
%TO.N,Out4*%
X5905000Y-3400000D03*
%TD*%
D17*
%TO.P,R6,1*%
%TO.N,Out2*%
X4613750Y-4020000D03*
%TO.P,R6,2*%
%TO.N,Net-(C5-Pad2)*%
X4796250Y-4020000D03*
%TD*%
D13*
%TO.P,C2,1*%
%TO.N,2.5V*%
X7100000Y-1805000D03*
%TO.P,C2,2*%
%TO.N,GND*%
X7100000Y-1995000D03*
%TD*%
D12*
%TO.P,R7,1*%
%TO.N,Net-(C5-Pad2)*%
X4795000Y-4300000D03*
%TO.P,R7,2*%
%TO.N,Net-(C6-Pad2)*%
X4612500Y-4300000D03*
%TD*%
%TO.P,R5,1*%
%TO.N,Net-(C4-Pad1)*%
X3691250Y-3750000D03*
%TO.P,R5,2*%
%TO.N,Net-(U2A--)*%
X3508750Y-3750000D03*
%TD*%
%TO.P,R16,1*%
%TO.N,Net-(C11-Pad2)*%
X6791250Y-5900000D03*
%TO.P,R16,2*%
%TO.N,Net-(U5A--)*%
X6608750Y-5900000D03*
%TD*%
D18*
%TO.P,J3,A1,GND*%
%TO.N,GND*%
X2520000Y-2168000D03*
%TO.P,J3,A4,VBUS*%
%TO.N,Net-(J3-VBUS-PadA4)*%
X2440000Y-2168000D03*
D19*
%TO.P,J3,A5,CC1*%
%TO.N,unconnected-(J3-CC1-PadA5)*%
X2325000Y-2168000D03*
%TO.P,J3,A6,D+*%
%TO.N,unconnected-(J3-D+-PadA6)*%
X2225000Y-2168000D03*
%TO.P,J3,A7,D-*%
%TO.N,unconnected-(J3-D--PadA7)*%
X2175000Y-2168000D03*
%TO.P,J3,A8,SBU1*%
%TO.N,unconnected-(J3-SBU1-PadA8)*%
X2075000Y-2168000D03*
D18*
%TO.P,J3,A9,VBUS*%
%TO.N,Net-(J3-VBUS-PadA4)*%
X1960000Y-2168000D03*
%TO.P,J3,A12,GND*%
%TO.N,GND*%
X1880000Y-2168000D03*
%TO.P,J3,B1,GND*%
X1880000Y-2168000D03*
%TO.P,J3,B4,VBUS*%
%TO.N,Net-(J3-VBUS-PadA4)*%
X1960000Y-2168000D03*
D19*
%TO.P,J3,B5,CC2*%
%TO.N,unconnected-(J3-CC2-PadB5)*%
X2025000Y-2168000D03*
%TO.P,J3,B6,D+*%
%TO.N,unconnected-(J3-D+-PadB6)*%
X2125000Y-2168000D03*
%TO.P,J3,B7,D-*%
%TO.N,unconnected-(J3-D--PadB7)*%
X2275000Y-2168000D03*
%TO.P,J3,B8,SBU2*%
%TO.N,unconnected-(J3-SBU2-PadB8)*%
X2375000Y-2168000D03*
D18*
%TO.P,J3,B9,VBUS*%
%TO.N,Net-(J3-VBUS-PadA4)*%
X2440000Y-2168000D03*
%TO.P,J3,B12,GND*%
%TO.N,GND*%
X2520000Y-2168000D03*
D20*
%TO.P,J3,S1,SHIELD*%
%TO.N,unconnected-(J3-SHIELD-PadS1)*%
X2711000Y-2110500D03*
X2711000Y-1717500D03*
X1689000Y-2110500D03*
X1689000Y-1717500D03*
%TD*%
D21*
%TO.P,C10,1*%
%TO.N,Net-(C10-Pad1)*%
X5505000Y-3700000D03*
%TO.P,C10,2*%
%TO.N,Out5*%
X5695000Y-3700000D03*
%TD*%
D17*
%TO.P,R11,1*%
%TO.N,Out3*%
X5908750Y-3100000D03*
%TO.P,R11,2*%
%TO.N,Net-(C9-Pad1)*%
X6091250Y-3100000D03*
%TD*%
D22*
%TO.P,J5,1,Pin_1*%
%TO.N,Net-(J5-Pin_1)*%
X5627500Y-1793000D03*
D23*
%TO.P,J5,2,Pin_2*%
%TO.N,GND*%
X5373500Y-1793000D03*
%TD*%
D21*
%TO.P,C11,1*%
%TO.N,Out6*%
X6605000Y-5300000D03*
%TO.P,C11,2*%
%TO.N,Net-(C11-Pad2)*%
X6795000Y-5300000D03*
%TD*%
D14*
%TO.P,U5,1*%
%TO.N,Net-(R17-Pad2)*%
X6180000Y-5980000D03*
D15*
%TO.P,U5,2,-*%
%TO.N,Net-(U5A--)*%
X6180000Y-5726000D03*
%TO.P,U5,3,+*%
%TO.N,Net-(U5A-+)*%
X6180000Y-5472000D03*
%TO.P,U5,4*%
%TO.N,N/C*%
X6180000Y-5218000D03*
%TO.P,U5,5*%
X5418000Y-5218000D03*
%TO.P,U5,6*%
X5418000Y-5472000D03*
%TO.P,U5,7*%
X5418000Y-5726000D03*
%TO.P,U5,8*%
X5418000Y-5980000D03*
%TD*%
D12*
%TO.P,R8,1*%
%TO.N,Net-(C5-Pad2)*%
X4795000Y-4570000D03*
%TO.P,R8,2*%
%TO.N,Net-(U2B--)*%
X4612500Y-4570000D03*
%TD*%
D17*
%TO.P,R10,1*%
%TO.N,Out3*%
X5908750Y-2800000D03*
%TO.P,R10,2*%
%TO.N,GND*%
X6091250Y-2800000D03*
%TD*%
D24*
%TO.P,J2,1,Pin_1*%
%TO.N,Electrodo 1*%
X4432698Y-5959605D03*
D25*
%TO.P,J2,2,Pin_2*%
%TO.N,Electrodo 2*%
X4940698Y-5959605D03*
%TD*%
D17*
%TO.P,R14,1*%
%TO.N,Out6*%
X6608750Y-5000000D03*
%TO.P,R14,2*%
%TO.N,Net-(U4B-+)*%
X6791250Y-5000000D03*
%TD*%
D12*
%TO.P,R4,1*%
%TO.N,Net-(U2A--)*%
X3291250Y-3750000D03*
%TO.P,R4,2*%
%TO.N,2.5V*%
X3108750Y-3750000D03*
%TD*%
D26*
%TO.P,R2,1*%
%TO.N,Net-(C3-Pad1)*%
X2600000Y-4991250D03*
%TO.P,R2,2*%
%TO.N,GND*%
X2600000Y-4808750D03*
%TD*%
D12*
%TO.P,R12,1*%
%TO.N,Out4*%
X5691250Y-3400000D03*
%TO.P,R12,2*%
%TO.N,Net-(C10-Pad1)*%
X5508750Y-3400000D03*
%TD*%
D27*
%TO.P,C3,1*%
%TO.N,Net-(C3-Pad1)*%
X2895000Y-4995000D03*
%TO.P,C3,2*%
%TO.N,Out1*%
X2895000Y-4805000D03*
%TD*%
D16*
%TO.P,C8,1*%
%TO.N,Out3*%
X5695000Y-3100000D03*
%TO.P,C8,2*%
%TO.N,Net-(C10-Pad1)*%
X5505000Y-3100000D03*
%TD*%
D17*
%TO.P,R9,1*%
%TO.N,+5V*%
X5508750Y-2800000D03*
%TO.P,R9,2*%
%TO.N,Out3*%
X5691250Y-2800000D03*
%TD*%
%TO.P,R15,1*%
%TO.N,Net-(U4B-+)*%
X6608750Y-4700000D03*
%TO.P,R15,2*%
%TO.N,2.5V*%
X6791250Y-4700000D03*
%TD*%
D12*
%TO.P,R17,1*%
%TO.N,Net-(U5A--)*%
X6791250Y-6200000D03*
%TO.P,R17,2*%
%TO.N,Net-(R17-Pad2)*%
X6608750Y-6200000D03*
%TD*%
D28*
%TO.P,J1,1,Pin_1*%
%TO.N,Net-(J1-Pin_1)*%
X3195000Y-2068250D03*
D29*
%TO.P,J1,2,Pin_2*%
%TO.N,GND*%
X3445000Y-2068250D03*
%TD*%
D27*
%TO.P,C6,1*%
%TO.N,Net-(U2B--)*%
X4400000Y-4527500D03*
%TO.P,C6,2*%
%TO.N,Net-(C6-Pad2)*%
X4400000Y-4337500D03*
%TD*%
D12*
%TO.P,R13,1*%
%TO.N,Net-(C9-Pad1)*%
X6091250Y-3700000D03*
%TO.P,R13,2*%
%TO.N,Out5*%
X5908750Y-3700000D03*
%TD*%
D30*
%TO.P,U3,1,DNC*%
%TO.N,unconnected-(U3-DNC-Pad1)*%
X6252500Y-1609500D03*
%TO.P,U3,2,Vin*%
%TO.N,+5V*%
X6252500Y-1736500D03*
%TO.P,U3,3,Temp*%
%TO.N,unconnected-(U3-Temp-Pad3)*%
X6252500Y-1863500D03*
%TO.P,U3,4,GND*%
%TO.N,GND*%
X6252500Y-1990500D03*
%TO.P,U3,5,Trim/NR*%
%TO.N,unconnected-(U3-Trim{slash}NR-Pad5)*%
X6747500Y-1990500D03*
%TO.P,U3,6,Vout*%
%TO.N,2.5V*%
X6747500Y-1863500D03*
%TO.P,U3,7,NC*%
%TO.N,unconnected-(U3-NC-Pad7)*%
X6747500Y-1736500D03*
%TO.P,U3,8,DNC*%
%TO.N,unconnected-(U3-DNC-Pad8)*%
X6747500Y-1609500D03*
%TD*%
D21*
%TO.P,C7,1*%
%TO.N,Net-(C6-Pad2)*%
X4605000Y-4852500D03*
%TO.P,C7,2*%
%TO.N,Out3*%
X4795000Y-4852500D03*
%TD*%
%TO.P,C4,1*%
%TO.N,Net-(C4-Pad1)*%
X3905000Y-3750000D03*
%TO.P,C4,2*%
%TO.N,Out2*%
X4095000Y-3750000D03*
%TD*%
D31*
%TO.P,SW1,*%
%TO.N,*%
X5015000Y-1778000D03*
X5015000Y-1557000D03*
X3985000Y-1778000D03*
X3985000Y-1557000D03*
D32*
%TO.P,SW1,1,1*%
%TO.N,Net-(J5-Pin_1)*%
X4800000Y-1843000D03*
%TO.P,SW1,2,2*%
%TO.N,Net-(J1-Pin_1)*%
X4650000Y-1843000D03*
%TO.P,SW1,3,3*%
%TO.N,+5V*%
X4350000Y-1843000D03*
%TO.P,SW1,4,4*%
%TO.N,Net-(J3-VBUS-PadA4)*%
X4200000Y-1843000D03*
%TD*%
D14*
%TO.P,U1,1,Rg*%
%TO.N,Net-(RV1-Pad1)*%
X3950000Y-5950000D03*
D15*
%TO.P,U1,2,-*%
%TO.N,Electrodo 1*%
X3950000Y-5696000D03*
%TO.P,U1,3,+*%
%TO.N,Electrodo 2*%
X3950000Y-5442000D03*
%TO.P,U1,4,Vs-*%
%TO.N,GND*%
X3950000Y-5188000D03*
%TO.P,U1,5,Ref*%
%TO.N,2.5V*%
X3188000Y-5188000D03*
%TO.P,U1,6*%
%TO.N,Net-(C3-Pad1)*%
X3188000Y-5442000D03*
%TO.P,U1,7,Vs+*%
%TO.N,+5V*%
X3188000Y-5696000D03*
%TO.P,U1,8,Rg*%
%TO.N,Net-(RV1-Pad2)*%
X3188000Y-5950000D03*
%TD*%
D12*
%TO.P,R3,1*%
%TO.N,Out1*%
X2841250Y-4600000D03*
%TO.P,R3,2*%
%TO.N,2.5V*%
X2658750Y-4600000D03*
%TD*%
D14*
%TO.P,U2,1*%
%TO.N,Net-(C4-Pad1)*%
X3200000Y-4050000D03*
D15*
%TO.P,U2,2,-*%
%TO.N,Net-(U2A--)*%
X3200000Y-4304000D03*
%TO.P,U2,3,+*%
%TO.N,Out1*%
X3200000Y-4558000D03*
%TO.P,U2,4*%
%TO.N,N/C*%
X3200000Y-4812000D03*
%TO.P,U2,5,+*%
%TO.N,2.5V*%
X3962000Y-4812000D03*
%TO.P,U2,6,-*%
%TO.N,Net-(U2B--)*%
X3962000Y-4558000D03*
%TO.P,U2,7*%
%TO.N,Net-(C6-Pad2)*%
X3962000Y-4304000D03*
%TO.P,U2,8*%
%TO.N,N/C*%
X3962000Y-4050000D03*
%TD*%
D21*
%TO.P,C5,1*%
%TO.N,2.5V*%
X4610000Y-3740000D03*
%TO.P,C5,2*%
%TO.N,Net-(C5-Pad2)*%
X4800000Y-3740000D03*
%TD*%
D33*
%TO.N,GND*%
X7200000Y-2550000D03*
X6200000Y-2150000D03*
X2600000Y-1900000D03*
X2000000Y-2400000D03*
X7100000Y-2100000D03*
%TO.N,2.5V*%
X2545000Y-4600000D03*
X3610000Y-5000000D03*
X7150000Y-2250000D03*
X3675000Y-4750000D03*
X6950000Y-5600000D03*
X7300000Y-2000000D03*
X3490000Y-5000000D03*
X4600000Y-3500000D03*
X3437500Y-4537500D03*
X6950000Y-4700000D03*
X5700000Y-2250000D03*
X2950000Y-3750000D03*
%TO.N,+5V*%
X5800000Y-1800000D03*
X5550000Y-2550000D03*
X4350000Y-2050000D03*
%TO.N,Out4*%
X5600000Y-3850000D03*
%TO.N,Out5*%
X5700000Y-3850000D03*
X5800000Y-3850000D03*
%TO.N,Net-(J1-Pin_1)*%
X4440000Y-1870000D03*
%TO.N,Net-(J5-Pin_1)*%
X4918000Y-2000000D03*
%TD*%
D34*
%TO.N,GND*%
X2600000Y-1984026D02*
X2572000Y-2012026D01*
X6200000Y-2150000D02*
X6050000Y-2150000D01*
X6050000Y-2150000D02*
X6000000Y-2100000D01*
X7100000Y-2100000D02*
X7100000Y-1995000D01*
X2572000Y-2012026D02*
X2572000Y-2116000D01*
X6200000Y-2150000D02*
X6252500Y-2097500D01*
X1880000Y-2280000D02*
X1880000Y-2168000D01*
X6252500Y-2097500D02*
X6252500Y-1990500D01*
X6000000Y-2100000D02*
X6000000Y-1995000D01*
X2000000Y-2400000D02*
X1880000Y-2280000D01*
X2572000Y-2116000D02*
X2520000Y-2168000D01*
X2600000Y-1900000D02*
X2600000Y-1984026D01*
%TO.N,2.5V*%
X6900000Y-1805000D02*
X6841500Y-1863500D01*
X3437500Y-4612500D02*
X3500000Y-4675000D01*
X2545000Y-4600000D02*
X2658750Y-4600000D01*
X3437500Y-4537500D02*
X3437500Y-4612500D01*
X4600000Y-3500000D02*
X4600000Y-3730000D01*
X7205000Y-1805000D02*
X7100000Y-1805000D01*
X7100000Y-1805000D02*
X6900000Y-1805000D01*
X5700000Y-2250000D02*
X7150000Y-2250000D01*
X6791250Y-5600000D02*
X6950000Y-5600000D01*
X3600000Y-4675000D02*
X3675000Y-4750000D01*
X7300000Y-2000000D02*
X7300000Y-1900000D01*
X3500000Y-4675000D02*
X3600000Y-4675000D01*
X7300000Y-2010000D02*
X7300000Y-2000000D01*
X2950000Y-3750000D02*
X3102833Y-3750000D01*
X3490000Y-5000000D02*
X3610000Y-5000000D01*
X6791250Y-4700000D02*
X6950000Y-4700000D01*
X7300000Y-1900000D02*
X7205000Y-1805000D01*
X4600000Y-3730000D02*
X4610000Y-3740000D01*
%TO.N,Net-(C3-Pad1)*%
X2891250Y-4991250D02*
X2895000Y-4995000D01*
X2600000Y-4991250D02*
X2600000Y-5050000D01*
X2895000Y-5345000D02*
X3022000Y-5472000D01*
X3022000Y-5472000D02*
X3218000Y-5472000D01*
X2600000Y-5050000D02*
X2895000Y-5345000D01*
X2895000Y-4995000D02*
X2895000Y-5345000D01*
%TO.N,Out1*%
X2895000Y-4755000D02*
X2895000Y-4805000D01*
X2891250Y-4801250D02*
X2895000Y-4805000D01*
X3158000Y-4600000D02*
X3200000Y-4558000D01*
X2841250Y-4600000D02*
X3050000Y-4600000D01*
X3050000Y-4600000D02*
X3158000Y-4600000D01*
X3050000Y-4600000D02*
X2895000Y-4755000D01*
%TO.N,Net-(RV1-Pad1)*%
X3750000Y-6150000D02*
X3125000Y-6150000D01*
X3125000Y-6150000D02*
X2800000Y-5825000D01*
X3950000Y-5950000D02*
X3750000Y-6150000D01*
X2800000Y-5825000D02*
X2700000Y-5825000D01*
%TO.N,Net-(U2A--)*%
X3141250Y-3900000D02*
X3358750Y-3900000D01*
X3000000Y-3900000D02*
X2950000Y-3950000D01*
X2950000Y-4235000D02*
X3025333Y-4310333D01*
X3025333Y-4310333D02*
X3220000Y-4310333D01*
X2950000Y-3950000D02*
X2950000Y-4235000D01*
X3291250Y-3750000D02*
X3141250Y-3900000D01*
X3358750Y-3900000D02*
X3508750Y-3750000D01*
X3141250Y-3900000D02*
X3000000Y-3900000D01*
%TO.N,Electrodo 1*%
X4432698Y-5807698D02*
X4432698Y-5959605D01*
X3950000Y-5696000D02*
X4321000Y-5696000D01*
X3951000Y-5697000D02*
X3950000Y-5696000D01*
X4321000Y-5696000D02*
X4432698Y-5807698D01*
%TO.N,Electrodo 2*%
X3950000Y-5442000D02*
X4642000Y-5442000D01*
X4642000Y-5442000D02*
X4940698Y-5740698D01*
X4940698Y-5740698D02*
X4940698Y-5959605D01*
%TO.N,+5V*%
X6060000Y-1660000D02*
X5855000Y-1660000D01*
X4606000Y-1587000D02*
X4350000Y-1843000D01*
X4856137Y-1660000D02*
X4783137Y-1587000D01*
X6252500Y-1736500D02*
X6136500Y-1736500D01*
X5855000Y-1660000D02*
X5724500Y-1660000D01*
X6000000Y-1805000D02*
X5855000Y-1660000D01*
X4783137Y-1587000D02*
X4606000Y-1587000D01*
X5800000Y-1800000D02*
X5800000Y-1735500D01*
X5508750Y-2591250D02*
X5508750Y-2800000D01*
X5724500Y-1660000D02*
X4856137Y-1660000D01*
X6136500Y-1736500D02*
X6060000Y-1660000D01*
X5800000Y-1735500D02*
X5724500Y-1660000D01*
X4350000Y-2050000D02*
X4350000Y-1843000D01*
X5550000Y-2550000D02*
X5508750Y-2591250D01*
%TO.N,Net-(C4-Pad1)*%
X3905000Y-3750000D02*
X3691250Y-3750000D01*
X3220000Y-4056333D02*
X3384917Y-4056333D01*
X3384917Y-4056333D02*
X3691250Y-3750000D01*
%TO.N,Out2*%
X4613750Y-4020000D02*
X4365000Y-4020000D01*
X4365000Y-4020000D02*
X4095000Y-3750000D01*
X4613750Y-4020000D02*
X4613750Y-3998500D01*
%TO.N,Net-(C5-Pad2)*%
X4800000Y-3740000D02*
X4800000Y-4565000D01*
X4800000Y-4565000D02*
X4795000Y-4570000D01*
%TO.N,Net-(C6-Pad2)*%
X4612500Y-4322500D02*
X4705000Y-4415000D01*
X4400000Y-4337500D02*
X4575000Y-4337500D01*
X4400000Y-4337500D02*
X3995500Y-4337500D01*
X3995500Y-4337500D02*
X3962000Y-4304000D01*
X4612500Y-4300000D02*
X4612500Y-4322500D01*
X4605000Y-4835000D02*
X4605000Y-4852500D01*
X4705000Y-4415000D02*
X4705000Y-4735000D01*
X3904667Y-4310333D02*
X3982000Y-4310333D01*
X4575000Y-4337500D02*
X4612500Y-4300000D01*
X4018000Y-4346333D02*
X3982000Y-4310333D01*
X4705000Y-4735000D02*
X4605000Y-4835000D01*
X4372833Y-4310333D02*
X4400000Y-4337500D01*
%TO.N,Net-(U2B--)*%
X4400000Y-4527500D02*
X4570000Y-4527500D01*
X4570000Y-4527500D02*
X4612500Y-4570000D01*
X4400000Y-4527500D02*
X4432500Y-4560000D01*
X3992500Y-4527500D02*
X3962000Y-4558000D01*
X4400000Y-4527500D02*
X3992500Y-4527500D01*
X4010000Y-4536333D02*
X3982000Y-4564333D01*
%TO.N,Out3*%
X5300000Y-2950000D02*
X5100000Y-3150000D01*
X5541250Y-2950000D02*
X5300000Y-2950000D01*
X4947500Y-4852500D02*
X4795000Y-4852500D01*
X5695000Y-2995000D02*
X5650000Y-2950000D01*
X5850000Y-2950000D02*
X5758750Y-2950000D01*
X5100000Y-4700000D02*
X4947500Y-4852500D01*
X5908750Y-3100000D02*
X5908750Y-3008750D01*
X5908750Y-3008750D02*
X5850000Y-2950000D01*
X5695000Y-3100000D02*
X5695000Y-2995000D01*
X5691250Y-2800000D02*
X5541250Y-2950000D01*
X5100000Y-3150000D02*
X5100000Y-4700000D01*
X5650000Y-2950000D02*
X5758750Y-2950000D01*
X5758750Y-2950000D02*
X5908750Y-2800000D01*
X5541250Y-2950000D02*
X5650000Y-2950000D01*
%TO.N,Net-(C10-Pad1)*%
X5505000Y-3100000D02*
X5505000Y-3700000D01*
%TO.N,Net-(C9-Pad1)*%
X6091250Y-3100000D02*
X6091250Y-3700000D01*
%TO.N,Out4*%
X5600000Y-3850000D02*
X5600000Y-3450000D01*
X5600000Y-3450000D02*
X5650000Y-3400000D01*
X5905000Y-3400000D02*
X5691250Y-3400000D01*
X5650000Y-3400000D02*
X5691250Y-3400000D01*
X5418000Y-4626000D02*
X5418000Y-4372000D01*
%TO.N,Out5*%
X5800000Y-3750000D02*
X5850000Y-3700000D01*
X5700000Y-3850000D02*
X5700000Y-3705000D01*
X5800000Y-3850000D02*
X5800000Y-3750000D01*
X5700000Y-3705000D02*
X5695000Y-3700000D01*
X5850000Y-3700000D02*
X5908750Y-3700000D01*
%TO.N,Net-(C11-Pad2)*%
X6791250Y-5900000D02*
X6950000Y-5900000D01*
X6950000Y-5300000D02*
X6795000Y-5300000D01*
X6950000Y-5900000D02*
X7010000Y-5840000D01*
X7010000Y-5360000D02*
X6950000Y-5300000D01*
X7010000Y-5840000D02*
X7010000Y-5360000D01*
%TO.N,Out6*%
X6400000Y-5000000D02*
X6300000Y-5000000D01*
X6300000Y-5000000D02*
X6180000Y-4880000D01*
X6180000Y-4626000D02*
X6180000Y-4880000D01*
X6608750Y-5000000D02*
X6400000Y-5000000D01*
X6605000Y-5300000D02*
X6605000Y-5205000D01*
X6605000Y-5205000D02*
X6400000Y-5000000D01*
%TO.N,Net-(U4B-+)*%
X6608750Y-4700000D02*
X6608750Y-4817500D01*
X5430000Y-4043333D02*
X5430000Y-4079000D01*
X5537000Y-3936333D02*
X5430000Y-4043333D01*
X6608750Y-4817500D02*
X6791250Y-5000000D01*
X6608750Y-4700000D02*
X6608750Y-4228083D01*
X6608750Y-4228083D02*
X6317000Y-3936333D01*
X6317000Y-3936333D02*
X5537000Y-3936333D01*
%TO.N,Net-(U5A--)*%
X6434750Y-5726000D02*
X6180000Y-5726000D01*
X6608750Y-5900000D02*
X6434750Y-5726000D01*
X6608750Y-5900000D02*
X6608750Y-6017500D01*
X6608750Y-6017500D02*
X6791250Y-6200000D01*
%TO.N,Net-(R17-Pad2)*%
X6608750Y-6200000D02*
X6600000Y-6200000D01*
X6380000Y-5980000D02*
X6180000Y-5980000D01*
X6600000Y-6200000D02*
X6380000Y-5980000D01*
%TO.N,Net-(U5A-+)*%
X6472000Y-5472000D02*
X6180000Y-5472000D01*
X6600000Y-5600000D02*
X6472000Y-5472000D01*
X6608750Y-5600000D02*
X6600000Y-5600000D01*
%TO.N,Net-(J1-Pin_1)*%
X4440000Y-1870000D02*
X4441000Y-1871000D01*
X4441000Y-1871000D02*
X4639000Y-1871000D01*
%TO.N,Net-(J3-VBUS-PadA4)*%
X2034500Y-2300000D02*
X1960000Y-2225500D01*
X3850000Y-2300000D02*
X2520000Y-2300000D01*
X1940000Y-2191500D02*
X1940000Y-2134000D01*
X2460000Y-2300000D02*
X2520000Y-2300000D01*
X2440000Y-2220000D02*
X2490000Y-2270000D01*
X2048500Y-2300000D02*
X2460000Y-2300000D01*
X1960000Y-2225500D02*
X1960000Y-2168000D01*
X2520000Y-2300000D02*
X2490000Y-2270000D01*
X2048500Y-2300000D02*
X2034500Y-2300000D01*
X4200000Y-1950000D02*
X4189000Y-1961000D01*
X2440000Y-2168000D02*
X2440000Y-2220000D01*
X4200000Y-1843000D02*
X4200000Y-1950000D01*
X4189000Y-1961000D02*
X3850000Y-2300000D01*
%TO.N,Net-(J5-Pin_1)*%
X4918000Y-2000000D02*
X4789000Y-1871000D01*
%TO.N,Net-(RV1-Pad2)*%
X2571000Y-5700000D02*
X2446000Y-5825000D01*
X3100000Y-5950000D02*
X2850000Y-5700000D01*
X2850000Y-5700000D02*
X2571000Y-5700000D01*
X3188000Y-5950000D02*
X3100000Y-5950000D01*
%TD*%
%TA.AperFunction,Conductor*%
%TO.N,GND*%
G36*
X5521680Y-2501435D02*
G01*
X5523116Y-2504900D01*
X5521680Y-2508365D01*
X5520666Y-2509143D01*
X5519269Y-2509950D01*
X5519268Y-2509950D01*
X5509950Y-2519269D01*
X5509950Y-2519269D01*
X5503361Y-2530681D01*
X5503361Y-2530682D01*
X5499950Y-2543410D01*
X5499950Y-2555523D01*
X5498515Y-2558988D01*
X5490299Y-2567204D01*
X5484704Y-2572799D01*
X5484704Y-2572799D01*
X5480748Y-2579651D01*
X5480748Y-2579651D01*
X5478700Y-2587294D01*
X5478700Y-2705335D01*
X5477265Y-2708800D01*
X5474258Y-2710214D01*
X5474030Y-2710235D01*
X5474030Y-2710235D01*
X5461212Y-2714720D01*
X5461211Y-2714721D01*
X5450285Y-2722785D01*
X5442221Y-2733711D01*
X5442220Y-2733712D01*
X5437735Y-2746530D01*
X5437735Y-2746530D01*
X5437450Y-2749572D01*
X5437450Y-2850427D01*
X5437735Y-2853470D01*
X5437735Y-2853470D01*
X5442220Y-2866288D01*
X5442221Y-2866288D01*
X5450285Y-2877215D01*
X5461211Y-2885279D01*
X5461212Y-2885279D01*
X5461212Y-2885279D01*
X5461212Y-2885279D01*
X5461212Y-2885279D01*
X5470957Y-2888689D01*
X5474030Y-2889765D01*
X5477073Y-2890050D01*
X5477074Y-2890050D01*
X5540426Y-2890050D01*
X5540427Y-2890050D01*
X5543470Y-2889765D01*
X5547078Y-2888502D01*
X5550822Y-2888712D01*
X5553321Y-2891509D01*
X5553111Y-2895253D01*
X5552161Y-2896592D01*
X5530238Y-2918515D01*
X5526773Y-2919950D01*
X5296044Y-2919950D01*
X5288401Y-2921998D01*
X5288401Y-2921998D01*
X5281549Y-2925954D01*
X5281549Y-2925954D01*
X5075954Y-3131549D01*
X5075954Y-3131549D01*
X5071998Y-3138401D01*
X5071998Y-3138401D01*
X5069950Y-3146044D01*
X5069950Y-4685523D01*
X5068515Y-4688988D01*
X4936488Y-4821015D01*
X4933023Y-4822450D01*
X4869950Y-4822450D01*
X4866485Y-4821015D01*
X4865050Y-4817550D01*
X4865050Y-4799574D01*
X4865050Y-4799572D01*
X4864765Y-4796530D01*
X4864765Y-4796530D01*
X4860280Y-4783712D01*
X4860279Y-4783711D01*
X4852215Y-4772785D01*
X4841289Y-4764721D01*
X4841288Y-4764720D01*
X4828470Y-4760235D01*
X4825428Y-4759950D01*
X4825427Y-4759950D01*
X4764573Y-4759950D01*
X4764572Y-4759950D01*
X4761530Y-4760235D01*
X4761530Y-4760235D01*
X4748712Y-4764720D01*
X4748711Y-4764721D01*
X4737785Y-4772785D01*
X4729721Y-4783711D01*
X4729720Y-4783712D01*
X4725235Y-4796530D01*
X4725235Y-4796530D01*
X4724950Y-4799572D01*
X4724950Y-4905428D01*
X4725235Y-4908470D01*
X4725235Y-4908470D01*
X4729720Y-4921288D01*
X4729721Y-4921289D01*
X4737785Y-4932215D01*
X4748711Y-4940279D01*
X4748712Y-4940279D01*
X4748712Y-4940279D01*
X4748712Y-4940279D01*
X4748712Y-4940280D01*
X4758523Y-4943712D01*
X4761530Y-4944765D01*
X4764573Y-4945050D01*
X4764574Y-4945050D01*
X4825426Y-4945050D01*
X4825427Y-4945050D01*
X4828470Y-4944765D01*
X4841288Y-4940279D01*
X4845882Y-4936889D01*
X4852215Y-4932215D01*
X4860279Y-4921289D01*
X4860279Y-4921288D01*
X4860279Y-4921288D01*
X4864765Y-4908470D01*
X4865050Y-4905427D01*
X4865050Y-4887450D01*
X4866485Y-4883985D01*
X4869950Y-4882550D01*
X4951456Y-4882550D01*
X4954123Y-4881835D01*
X4959099Y-4880502D01*
X4965951Y-4876546D01*
X4971546Y-4870951D01*
X4972352Y-4870146D01*
X5277950Y-4870146D01*
X5277950Y-4889854D01*
X5281795Y-4909183D01*
X5281795Y-4909184D01*
X5289337Y-4927391D01*
X5289337Y-4927391D01*
X5292941Y-4932785D01*
X5300242Y-4943712D01*
X5300286Y-4943778D01*
X5314222Y-4957714D01*
X5330609Y-4968663D01*
X5348817Y-4976205D01*
X5368146Y-4980050D01*
X5467854Y-4980050D01*
X5487184Y-4976205D01*
X5505391Y-4968663D01*
X5521778Y-4957714D01*
X5535714Y-4943778D01*
X5546663Y-4927391D01*
X5554205Y-4909184D01*
X5558050Y-4889854D01*
X5558050Y-4870146D01*
X5554205Y-4850817D01*
X5546663Y-4832609D01*
X5535714Y-4816222D01*
X5521778Y-4802286D01*
X5518432Y-4800050D01*
X5516365Y-4798669D01*
X5505391Y-4791337D01*
X5505391Y-4791337D01*
X5505391Y-4791337D01*
X5487184Y-4783795D01*
X5487183Y-4783795D01*
X5467854Y-4779950D01*
X5467854Y-4779950D01*
X5368146Y-4779950D01*
X5368146Y-4779950D01*
X5348817Y-4783795D01*
X5348816Y-4783795D01*
X5330609Y-4791337D01*
X5314222Y-4802286D01*
X5300286Y-4816222D01*
X5289337Y-4832609D01*
X5281795Y-4850816D01*
X5281795Y-4850817D01*
X5277950Y-4870146D01*
X4972352Y-4870146D01*
X5124046Y-4718451D01*
X5128002Y-4711599D01*
X5130050Y-4703957D01*
X5130050Y-4703957D01*
X5130050Y-4362146D01*
X5277950Y-4362146D01*
X5277950Y-4381854D01*
X5281795Y-4401183D01*
X5281795Y-4401184D01*
X5285879Y-4411044D01*
X5289337Y-4419391D01*
X5300286Y-4435778D01*
X5314222Y-4449714D01*
X5330609Y-4460663D01*
X5348817Y-4468205D01*
X5368146Y-4472050D01*
X5383050Y-4472050D01*
X5386515Y-4473485D01*
X5387950Y-4476950D01*
X5387950Y-4521050D01*
X5386515Y-4524515D01*
X5383050Y-4525950D01*
X5368146Y-4525950D01*
X5348817Y-4529795D01*
X5348816Y-4529795D01*
X5330609Y-4537337D01*
X5314222Y-4548286D01*
X5300286Y-4562222D01*
X5289337Y-4578609D01*
X5281795Y-4596816D01*
X5281795Y-4596817D01*
X5277950Y-4616146D01*
X5277950Y-4635854D01*
X5281795Y-4655183D01*
X5281795Y-4655184D01*
X5287629Y-4669269D01*
X5289337Y-4673391D01*
X5294208Y-4680681D01*
X5299758Y-4688988D01*
X5300286Y-4689778D01*
X5314222Y-4703714D01*
X5330609Y-4714663D01*
X5348817Y-4722205D01*
X5368146Y-4726050D01*
X5467854Y-4726050D01*
X5487184Y-4722205D01*
X5505391Y-4714663D01*
X5521778Y-4703714D01*
X5535714Y-4689778D01*
X5546663Y-4673391D01*
X5554205Y-4655184D01*
X5558050Y-4635854D01*
X5558050Y-4616146D01*
X5554205Y-4596817D01*
X5546663Y-4578609D01*
X5535714Y-4562222D01*
X5521778Y-4548286D01*
X5505391Y-4537337D01*
X5505391Y-4537337D01*
X5505391Y-4537337D01*
X5487184Y-4529795D01*
X5487183Y-4529795D01*
X5467854Y-4525950D01*
X5467854Y-4525950D01*
X5452950Y-4525950D01*
X5449485Y-4524515D01*
X5448050Y-4521050D01*
X5448050Y-4476950D01*
X5449485Y-4473485D01*
X5452950Y-4472050D01*
X5467854Y-4472050D01*
X5487184Y-4468205D01*
X5505391Y-4460663D01*
X5521778Y-4449714D01*
X5535714Y-4435778D01*
X5546663Y-4419391D01*
X5554205Y-4401184D01*
X5558050Y-4381854D01*
X5558050Y-4362146D01*
X5558050Y-4362146D01*
X6039950Y-4362146D01*
X6039950Y-4381854D01*
X6043795Y-4401183D01*
X6043795Y-4401184D01*
X6047879Y-4411044D01*
X6051337Y-4419391D01*
X6062286Y-4435778D01*
X6076222Y-4449714D01*
X6092609Y-4460663D01*
X6110816Y-4468205D01*
X6130146Y-4472050D01*
X6229854Y-4472050D01*
X6249183Y-4468205D01*
X6267391Y-4460663D01*
X6283778Y-4449714D01*
X6297714Y-4435778D01*
X6308663Y-4419391D01*
X6316205Y-4401184D01*
X6320050Y-4381854D01*
X6320050Y-4362146D01*
X6316205Y-4342817D01*
X6308663Y-4324609D01*
X6297714Y-4308222D01*
X6283778Y-4294286D01*
X6267391Y-4283337D01*
X6267391Y-4283337D01*
X6267391Y-4283337D01*
X6249184Y-4275795D01*
X6249183Y-4275795D01*
X6229854Y-4271950D01*
X6229854Y-4271950D01*
X6130146Y-4271950D01*
X6130145Y-4271950D01*
X6110817Y-4275795D01*
X6110816Y-4275795D01*
X6092609Y-4283337D01*
X6076222Y-4294286D01*
X6062286Y-4308222D01*
X6051337Y-4324609D01*
X6043795Y-4342816D01*
X6043795Y-4342817D01*
X6039950Y-4362146D01*
X5558050Y-4362146D01*
X5554205Y-4342817D01*
X5546663Y-4324609D01*
X5535714Y-4308222D01*
X5521778Y-4294286D01*
X5505391Y-4283337D01*
X5505391Y-4283337D01*
X5505391Y-4283337D01*
X5487184Y-4275795D01*
X5487183Y-4275795D01*
X5467854Y-4271950D01*
X5467854Y-4271950D01*
X5368146Y-4271950D01*
X5368146Y-4271950D01*
X5348817Y-4275795D01*
X5348816Y-4275795D01*
X5330609Y-4283337D01*
X5314222Y-4294286D01*
X5300286Y-4308222D01*
X5289337Y-4324609D01*
X5281795Y-4342816D01*
X5281795Y-4342817D01*
X5277950Y-4362146D01*
X5130050Y-4362146D01*
X5130050Y-4108145D01*
X5277950Y-4108145D01*
X5277950Y-4127854D01*
X5281795Y-4147183D01*
X5281795Y-4147184D01*
X5282982Y-4150050D01*
X5289337Y-4165391D01*
X5300286Y-4181778D01*
X5314222Y-4195714D01*
X5330609Y-4206663D01*
X5348817Y-4214205D01*
X5368146Y-4218050D01*
X5467854Y-4218050D01*
X5487184Y-4214205D01*
X5505391Y-4206663D01*
X5521778Y-4195714D01*
X5535714Y-4181778D01*
X5546663Y-4165391D01*
X5554205Y-4147183D01*
X5558050Y-4127854D01*
X5558050Y-4108146D01*
X5558050Y-4108145D01*
X6039950Y-4108145D01*
X6039950Y-4127854D01*
X6043795Y-4147183D01*
X6043795Y-4147184D01*
X6044982Y-4150050D01*
X6051337Y-4165391D01*
X6062286Y-4181778D01*
X6076222Y-4195714D01*
X6092609Y-4206663D01*
X6110816Y-4214205D01*
X6130146Y-4218050D01*
X6229854Y-4218050D01*
X6249183Y-4214205D01*
X6267391Y-4206663D01*
X6283778Y-4195714D01*
X6297714Y-4181778D01*
X6308663Y-4165391D01*
X6316205Y-4147183D01*
X6320050Y-4127854D01*
X6320050Y-4108146D01*
X6316205Y-4088816D01*
X6308663Y-4070609D01*
X6297714Y-4054222D01*
X6283778Y-4040286D01*
X6267391Y-4029337D01*
X6267391Y-4029337D01*
X6267391Y-4029337D01*
X6249184Y-4021795D01*
X6249183Y-4021795D01*
X6229854Y-4017950D01*
X6229854Y-4017950D01*
X6130146Y-4017950D01*
X6130145Y-4017950D01*
X6110817Y-4021795D01*
X6110816Y-4021795D01*
X6092609Y-4029337D01*
X6076222Y-4040286D01*
X6062286Y-4054222D01*
X6051337Y-4070609D01*
X6043795Y-4088816D01*
X6043795Y-4088817D01*
X6039950Y-4108145D01*
X5558050Y-4108145D01*
X5554205Y-4088816D01*
X5546663Y-4070609D01*
X5535714Y-4054222D01*
X5521778Y-4040286D01*
X5505391Y-4029337D01*
X5505391Y-4029337D01*
X5505391Y-4029337D01*
X5498804Y-4026608D01*
X5496152Y-4023956D01*
X5496152Y-4020206D01*
X5497214Y-4018617D01*
X5548012Y-3967819D01*
X5551477Y-3966383D01*
X6302523Y-3966383D01*
X6305988Y-3967819D01*
X6577265Y-4239095D01*
X6578700Y-4242560D01*
X6578700Y-4605335D01*
X6577265Y-4608800D01*
X6574258Y-4610214D01*
X6574030Y-4610235D01*
X6574030Y-4610235D01*
X6561212Y-4614720D01*
X6561211Y-4614721D01*
X6550285Y-4622785D01*
X6542221Y-4633711D01*
X6542220Y-4633712D01*
X6537735Y-4646530D01*
X6537735Y-4646530D01*
X6537450Y-4649572D01*
X6537450Y-4750428D01*
X6537735Y-4753470D01*
X6537735Y-4753470D01*
X6542220Y-4766288D01*
X6542221Y-4766289D01*
X6550285Y-4777215D01*
X6561211Y-4785279D01*
X6561212Y-4785279D01*
X6561212Y-4785279D01*
X6561212Y-4785279D01*
X6561212Y-4785280D01*
X6574030Y-4789765D01*
X6574030Y-4789765D01*
X6574257Y-4789786D01*
X6577573Y-4791538D01*
X6578700Y-4794665D01*
X6578700Y-4821456D01*
X6580748Y-4829099D01*
X6581871Y-4831044D01*
X6581871Y-4831044D01*
X6584704Y-4835951D01*
X6584704Y-4835951D01*
X6652161Y-4903408D01*
X6653596Y-4906873D01*
X6652161Y-4910338D01*
X6648696Y-4911773D01*
X6647078Y-4911498D01*
X6645915Y-4911091D01*
X6643470Y-4910235D01*
X6643470Y-4910235D01*
X6643469Y-4910235D01*
X6640427Y-4909950D01*
X6640427Y-4909950D01*
X6577073Y-4909950D01*
X6577072Y-4909950D01*
X6574030Y-4910235D01*
X6574030Y-4910235D01*
X6561212Y-4914720D01*
X6561211Y-4914721D01*
X6550285Y-4922785D01*
X6542221Y-4933711D01*
X6542220Y-4933712D01*
X6537735Y-4946530D01*
X6537735Y-4946530D01*
X6537450Y-4949572D01*
X6537450Y-4965050D01*
X6536015Y-4968515D01*
X6532550Y-4969950D01*
X6324434Y-4969950D01*
X6320969Y-4968515D01*
X6319534Y-4965050D01*
X6319628Y-4964094D01*
X6320050Y-4961975D01*
X6320050Y-4798025D01*
X6318887Y-4792177D01*
X6316230Y-4788201D01*
X6314455Y-4785545D01*
X6310372Y-4782816D01*
X6307823Y-4781113D01*
X6301975Y-4779950D01*
X6301974Y-4779950D01*
X6214950Y-4779950D01*
X6211485Y-4778515D01*
X6210050Y-4775050D01*
X6210050Y-4730950D01*
X6211485Y-4727485D01*
X6214950Y-4726050D01*
X6229854Y-4726050D01*
X6249183Y-4722205D01*
X6267391Y-4714663D01*
X6283778Y-4703714D01*
X6297714Y-4689778D01*
X6308663Y-4673391D01*
X6316205Y-4655184D01*
X6320050Y-4635854D01*
X6320050Y-4616146D01*
X6316205Y-4596817D01*
X6308663Y-4578609D01*
X6297714Y-4562222D01*
X6283778Y-4548286D01*
X6267391Y-4537337D01*
X6267391Y-4537337D01*
X6267391Y-4537337D01*
X6249184Y-4529795D01*
X6249183Y-4529795D01*
X6229854Y-4525950D01*
X6229854Y-4525950D01*
X6130146Y-4525950D01*
X6130145Y-4525950D01*
X6110817Y-4529795D01*
X6110816Y-4529795D01*
X6092609Y-4537337D01*
X6076222Y-4548286D01*
X6062286Y-4562222D01*
X6051337Y-4578609D01*
X6043795Y-4596816D01*
X6043795Y-4596817D01*
X6039950Y-4616146D01*
X6039950Y-4635854D01*
X6043795Y-4655183D01*
X6043795Y-4655184D01*
X6049629Y-4669269D01*
X6051337Y-4673391D01*
X6056208Y-4680681D01*
X6061758Y-4688988D01*
X6062286Y-4689778D01*
X6076222Y-4703714D01*
X6092609Y-4714663D01*
X6110816Y-4722205D01*
X6130146Y-4726050D01*
X6145050Y-4726050D01*
X6148515Y-4727485D01*
X6149950Y-4730950D01*
X6149950Y-4775050D01*
X6148515Y-4778515D01*
X6145050Y-4779950D01*
X6058025Y-4779950D01*
X6052177Y-4781113D01*
X6045545Y-4785545D01*
X6041675Y-4791337D01*
X6041113Y-4792177D01*
X6039950Y-4798025D01*
X6039950Y-4961975D01*
X6041113Y-4967823D01*
X6042079Y-4969269D01*
X6045545Y-4974455D01*
X6048163Y-4976205D01*
X6052177Y-4978887D01*
X6058025Y-4980050D01*
X6235523Y-4980050D01*
X6238988Y-4981485D01*
X6275954Y-5018451D01*
X6281549Y-5024046D01*
X6288401Y-5028002D01*
X6291948Y-5028952D01*
X6296044Y-5030050D01*
X6296044Y-5030050D01*
X6303956Y-5030050D01*
X6385523Y-5030050D01*
X6388988Y-5031485D01*
X6561355Y-5203852D01*
X6562790Y-5207317D01*
X6561355Y-5210782D01*
X6559509Y-5211942D01*
X6558711Y-5212221D01*
X6547785Y-5220285D01*
X6539721Y-5231211D01*
X6539720Y-5231212D01*
X6535235Y-5244030D01*
X6535235Y-5244030D01*
X6534950Y-5247072D01*
X6534950Y-5352928D01*
X6535235Y-5355970D01*
X6535235Y-5355970D01*
X6539720Y-5368788D01*
X6539721Y-5368789D01*
X6547785Y-5379715D01*
X6558711Y-5387779D01*
X6558712Y-5387779D01*
X6558712Y-5387779D01*
X6558712Y-5387779D01*
X6558712Y-5387780D01*
X6571530Y-5392265D01*
X6574573Y-5392550D01*
X6574574Y-5392550D01*
X6635426Y-5392550D01*
X6635427Y-5392550D01*
X6638470Y-5392265D01*
X6651288Y-5387779D01*
X6662215Y-5379715D01*
X6663317Y-5378222D01*
X6670279Y-5368789D01*
X6670279Y-5368788D01*
X6670279Y-5368788D01*
X6674765Y-5355970D01*
X6675050Y-5352927D01*
X6675050Y-5247073D01*
X6674765Y-5244030D01*
X6670279Y-5231212D01*
X6670279Y-5231212D01*
X6670279Y-5231211D01*
X6662215Y-5220285D01*
X6651288Y-5212221D01*
X6651288Y-5212220D01*
X6638332Y-5207687D01*
X6635535Y-5205188D01*
X6635050Y-5203062D01*
X6635050Y-5201044D01*
X6634184Y-5197813D01*
X6633002Y-5193401D01*
X6633002Y-5193401D01*
X6633002Y-5193401D01*
X6629046Y-5186549D01*
X6480912Y-5038415D01*
X6479477Y-5034950D01*
X6480912Y-5031485D01*
X6484377Y-5030050D01*
X6532550Y-5030050D01*
X6536015Y-5031485D01*
X6537450Y-5034950D01*
X6537450Y-5050428D01*
X6537735Y-5053470D01*
X6537735Y-5053470D01*
X6542220Y-5066288D01*
X6542221Y-5066289D01*
X6550285Y-5077215D01*
X6561211Y-5085279D01*
X6561212Y-5085279D01*
X6561212Y-5085279D01*
X6561212Y-5085279D01*
X6561212Y-5085280D01*
X6574030Y-5089765D01*
X6577073Y-5090050D01*
X6577074Y-5090050D01*
X6640426Y-5090050D01*
X6640427Y-5090050D01*
X6643470Y-5089765D01*
X6656288Y-5085279D01*
X6667215Y-5077215D01*
X6675279Y-5066288D01*
X6679765Y-5053470D01*
X6680050Y-5050427D01*
X6680050Y-4949573D01*
X6679765Y-4946530D01*
X6679247Y-4945050D01*
X6678502Y-4942922D01*
X6678712Y-4939178D01*
X6681509Y-4936679D01*
X6685253Y-4936889D01*
X6686592Y-4937839D01*
X6718515Y-4969762D01*
X6719950Y-4973227D01*
X6719950Y-5050428D01*
X6720235Y-5053470D01*
X6720235Y-5053470D01*
X6724720Y-5066288D01*
X6724721Y-5066289D01*
X6732785Y-5077215D01*
X6743711Y-5085279D01*
X6743712Y-5085279D01*
X6743712Y-5085279D01*
X6743712Y-5085279D01*
X6743712Y-5085280D01*
X6756530Y-5089765D01*
X6759573Y-5090050D01*
X6759574Y-5090050D01*
X6822926Y-5090050D01*
X6822927Y-5090050D01*
X6825970Y-5089765D01*
X6838788Y-5085279D01*
X6849715Y-5077215D01*
X6857779Y-5066288D01*
X6862265Y-5053470D01*
X6862550Y-5050427D01*
X6862550Y-4949573D01*
X6862265Y-4946530D01*
X6861647Y-4944765D01*
X6857779Y-4933712D01*
X6857779Y-4933711D01*
X6849715Y-4922785D01*
X6838788Y-4914721D01*
X6838788Y-4914720D01*
X6825970Y-4910235D01*
X6822927Y-4909950D01*
X6822927Y-4909950D01*
X6759573Y-4909950D01*
X6759572Y-4909950D01*
X6756530Y-4910235D01*
X6756530Y-4910235D01*
X6756530Y-4910235D01*
X6750141Y-4912471D01*
X6746396Y-4912261D01*
X6745058Y-4911311D01*
X6640235Y-4806488D01*
X6638800Y-4803023D01*
X6638800Y-4794665D01*
X6640235Y-4791200D01*
X6643243Y-4789786D01*
X6643470Y-4789765D01*
X6656288Y-4785279D01*
X6658413Y-4783711D01*
X6667215Y-4777215D01*
X6675279Y-4766289D01*
X6675279Y-4766288D01*
X6675279Y-4766288D01*
X6679765Y-4753470D01*
X6680050Y-4750427D01*
X6680050Y-4649573D01*
X6680050Y-4649572D01*
X6719950Y-4649572D01*
X6719950Y-4750428D01*
X6720235Y-4753470D01*
X6720235Y-4753470D01*
X6724720Y-4766288D01*
X6724721Y-4766289D01*
X6732785Y-4777215D01*
X6743711Y-4785279D01*
X6743712Y-4785279D01*
X6743712Y-4785279D01*
X6743712Y-4785279D01*
X6743712Y-4785280D01*
X6756530Y-4789765D01*
X6756530Y-4789765D01*
X6759573Y-4790050D01*
X6759574Y-4790050D01*
X6822926Y-4790050D01*
X6822927Y-4790050D01*
X6825970Y-4789765D01*
X6838788Y-4785279D01*
X6840913Y-4783711D01*
X6849715Y-4777215D01*
X6857779Y-4766289D01*
X6857779Y-4766288D01*
X6857779Y-4766288D01*
X6862265Y-4753470D01*
X6862550Y-4750427D01*
X6862550Y-4734950D01*
X6863985Y-4731485D01*
X6867450Y-4730050D01*
X6907239Y-4730050D01*
X6910704Y-4731485D01*
X6919269Y-4740050D01*
X6920935Y-4741012D01*
X6930681Y-4746639D01*
X6930681Y-4746639D01*
X6930681Y-4746639D01*
X6936588Y-4748222D01*
X6943410Y-4750050D01*
X6943410Y-4750050D01*
X6943411Y-4750050D01*
X6956589Y-4750050D01*
X6956589Y-4750050D01*
X6969319Y-4746639D01*
X6980731Y-4740050D01*
X6990050Y-4730731D01*
X6996639Y-4719319D01*
X7000050Y-4706590D01*
X7000050Y-4706590D01*
X7000050Y-4693411D01*
X7000050Y-4693410D01*
X6999073Y-4689765D01*
X6996639Y-4680681D01*
X6996639Y-4680681D01*
X6996639Y-4680681D01*
X6990050Y-4669269D01*
X6980731Y-4659950D01*
X6969319Y-4653361D01*
X6969318Y-4653361D01*
X6956589Y-4649950D01*
X6956589Y-4649950D01*
X6943411Y-4649950D01*
X6943410Y-4649950D01*
X6930681Y-4653361D01*
X6930681Y-4653361D01*
X6919268Y-4659950D01*
X6919268Y-4659950D01*
X6910704Y-4668515D01*
X6907239Y-4669950D01*
X6867450Y-4669950D01*
X6863985Y-4668515D01*
X6862550Y-4665050D01*
X6862550Y-4649573D01*
X6862550Y-4649572D01*
X6862265Y-4646530D01*
X6862265Y-4646530D01*
X6857779Y-4633712D01*
X6857779Y-4633711D01*
X6849715Y-4622785D01*
X6838788Y-4614721D01*
X6838788Y-4614720D01*
X6825970Y-4610235D01*
X6822927Y-4609950D01*
X6822927Y-4609950D01*
X6759573Y-4609950D01*
X6759572Y-4609950D01*
X6756530Y-4610235D01*
X6756530Y-4610235D01*
X6743712Y-4614720D01*
X6743711Y-4614721D01*
X6732785Y-4622785D01*
X6724721Y-4633711D01*
X6724720Y-4633712D01*
X6720235Y-4646530D01*
X6720235Y-4646530D01*
X6719950Y-4649572D01*
X6680050Y-4649572D01*
X6679765Y-4646530D01*
X6677497Y-4640050D01*
X6675279Y-4633712D01*
X6675279Y-4633711D01*
X6667215Y-4622785D01*
X6656288Y-4614721D01*
X6656288Y-4614720D01*
X6643470Y-4610235D01*
X6643242Y-4610214D01*
X6639927Y-4608461D01*
X6638800Y-4605335D01*
X6638800Y-4224127D01*
X6637834Y-4220523D01*
X6636752Y-4216485D01*
X6636752Y-4216484D01*
X6636752Y-4216484D01*
X6632796Y-4209632D01*
X6335451Y-3912288D01*
X6335451Y-3912287D01*
X6334258Y-3911599D01*
X6328599Y-3908331D01*
X6320956Y-3906283D01*
X6320956Y-3906283D01*
X5820545Y-3906283D01*
X5817080Y-3904848D01*
X5815645Y-3901383D01*
X5817080Y-3897919D01*
X5819034Y-3896791D01*
X5819022Y-3896762D01*
X5819239Y-3896672D01*
X5819277Y-3896650D01*
X5819277Y-3896650D01*
X5819319Y-3896639D01*
X5830731Y-3890050D01*
X5840050Y-3880731D01*
X5846639Y-3869319D01*
X5850050Y-3856589D01*
X5850050Y-3856589D01*
X5850050Y-3843410D01*
X5850050Y-3843410D01*
X5847140Y-3832550D01*
X5846639Y-3830681D01*
X5846639Y-3830681D01*
X5846639Y-3830681D01*
X5840050Y-3819268D01*
X5831485Y-3810704D01*
X5830050Y-3807239D01*
X5830050Y-3764477D01*
X5831485Y-3761012D01*
X5832556Y-3759941D01*
X5836021Y-3758506D01*
X5839486Y-3759941D01*
X5840646Y-3761787D01*
X5842221Y-3766288D01*
X5842221Y-3766288D01*
X5842221Y-3766288D01*
X5850285Y-3777215D01*
X5861211Y-3785279D01*
X5861212Y-3785279D01*
X5861212Y-3785279D01*
X5861212Y-3785279D01*
X5861212Y-3785279D01*
X5868356Y-3787779D01*
X5874030Y-3789765D01*
X5877073Y-3790050D01*
X5877074Y-3790050D01*
X5940426Y-3790050D01*
X5940427Y-3790050D01*
X5943470Y-3789765D01*
X5956288Y-3785279D01*
X5963106Y-3780248D01*
X5967215Y-3777215D01*
X5975279Y-3766288D01*
X5975279Y-3766288D01*
X5975279Y-3766288D01*
X5979765Y-3753470D01*
X5980050Y-3750427D01*
X5980050Y-3649573D01*
X5979765Y-3646530D01*
X5975279Y-3633712D01*
X5975279Y-3633712D01*
X5975279Y-3633711D01*
X5967215Y-3622785D01*
X5956288Y-3614721D01*
X5956288Y-3614720D01*
X5943470Y-3610235D01*
X5940427Y-3609950D01*
X5940427Y-3609950D01*
X5877073Y-3609950D01*
X5877072Y-3609950D01*
X5874030Y-3610235D01*
X5874030Y-3610235D01*
X5861212Y-3614720D01*
X5861211Y-3614721D01*
X5850285Y-3622785D01*
X5842221Y-3633711D01*
X5842220Y-3633712D01*
X5837735Y-3646530D01*
X5837735Y-3646530D01*
X5837450Y-3649572D01*
X5837450Y-3669718D01*
X5836015Y-3673183D01*
X5835000Y-3673961D01*
X5831549Y-3675954D01*
X5831548Y-3675954D01*
X5775954Y-3731549D01*
X5774193Y-3734598D01*
X5771218Y-3736881D01*
X5767500Y-3736392D01*
X5765217Y-3733416D01*
X5765050Y-3732148D01*
X5765050Y-3647074D01*
X5765050Y-3647072D01*
X5764765Y-3644030D01*
X5764765Y-3644030D01*
X5760279Y-3631212D01*
X5760279Y-3631211D01*
X5752215Y-3620285D01*
X5741288Y-3612221D01*
X5741288Y-3612220D01*
X5728470Y-3607735D01*
X5725427Y-3607450D01*
X5725427Y-3607450D01*
X5664573Y-3607450D01*
X5664572Y-3607450D01*
X5661530Y-3607735D01*
X5661530Y-3607735D01*
X5648712Y-3612220D01*
X5648712Y-3612220D01*
X5637860Y-3620230D01*
X5634220Y-3621132D01*
X5631007Y-3619197D01*
X5630050Y-3616287D01*
X5630050Y-3484903D01*
X5631485Y-3481438D01*
X5634950Y-3480003D01*
X5637860Y-3480960D01*
X5643711Y-3485279D01*
X5643712Y-3485279D01*
X5643712Y-3485279D01*
X5643712Y-3485279D01*
X5650856Y-3487779D01*
X5656530Y-3489765D01*
X5659573Y-3490050D01*
X5659574Y-3490050D01*
X5722926Y-3490050D01*
X5722927Y-3490050D01*
X5725970Y-3489765D01*
X5738788Y-3485279D01*
X5739298Y-3484903D01*
X5749715Y-3477215D01*
X5757779Y-3466288D01*
X5757779Y-3466288D01*
X5757779Y-3466288D01*
X5762265Y-3453470D01*
X5762550Y-3450427D01*
X5762550Y-3434950D01*
X5763985Y-3431485D01*
X5767450Y-3430050D01*
X5830050Y-3430050D01*
X5833515Y-3431485D01*
X5834950Y-3434950D01*
X5834950Y-3452927D01*
X5835235Y-3455970D01*
X5835235Y-3455970D01*
X5839720Y-3468788D01*
X5839721Y-3468788D01*
X5847785Y-3479715D01*
X5858711Y-3487779D01*
X5858712Y-3487779D01*
X5858712Y-3487779D01*
X5858712Y-3487779D01*
X5858712Y-3487779D01*
X5864632Y-3489851D01*
X5871530Y-3492265D01*
X5874573Y-3492550D01*
X5874574Y-3492550D01*
X5935426Y-3492550D01*
X5935427Y-3492550D01*
X5938470Y-3492265D01*
X5951288Y-3487779D01*
X5955186Y-3484903D01*
X5962215Y-3479715D01*
X5970279Y-3468788D01*
X5970279Y-3468788D01*
X5970279Y-3468788D01*
X5974765Y-3455970D01*
X5975050Y-3452927D01*
X5975050Y-3347073D01*
X5974765Y-3344030D01*
X5971154Y-3333711D01*
X5970279Y-3331212D01*
X5970279Y-3331211D01*
X5962215Y-3320285D01*
X5951288Y-3312221D01*
X5951288Y-3312220D01*
X5938470Y-3307735D01*
X5935427Y-3307450D01*
X5935427Y-3307450D01*
X5874573Y-3307450D01*
X5874572Y-3307450D01*
X5871530Y-3307735D01*
X5871530Y-3307735D01*
X5858712Y-3312220D01*
X5858711Y-3312221D01*
X5847785Y-3320285D01*
X5839721Y-3331211D01*
X5839720Y-3331212D01*
X5835235Y-3344030D01*
X5835235Y-3344030D01*
X5834950Y-3347072D01*
X5834950Y-3365050D01*
X5833515Y-3368515D01*
X5830050Y-3369950D01*
X5767450Y-3369950D01*
X5763985Y-3368515D01*
X5762550Y-3365050D01*
X5762550Y-3349574D01*
X5762550Y-3349572D01*
X5762315Y-3347073D01*
X5762265Y-3346530D01*
X5757779Y-3333712D01*
X5757779Y-3333712D01*
X5757779Y-3333711D01*
X5749715Y-3322785D01*
X5738788Y-3314721D01*
X5738788Y-3314720D01*
X5725970Y-3310235D01*
X5722927Y-3309950D01*
X5722927Y-3309950D01*
X5659573Y-3309950D01*
X5659572Y-3309950D01*
X5656530Y-3310235D01*
X5656530Y-3310235D01*
X5643712Y-3314720D01*
X5643711Y-3314721D01*
X5632785Y-3322785D01*
X5624721Y-3333711D01*
X5624720Y-3333712D01*
X5620235Y-3346530D01*
X5620235Y-3346530D01*
X5619950Y-3349572D01*
X5619950Y-3385523D01*
X5618515Y-3388988D01*
X5588415Y-3419088D01*
X5584950Y-3420523D01*
X5581485Y-3419088D01*
X5580050Y-3415623D01*
X5580050Y-3349574D01*
X5580050Y-3349572D01*
X5579816Y-3347073D01*
X5579765Y-3346530D01*
X5575279Y-3333712D01*
X5575279Y-3333712D01*
X5575279Y-3333711D01*
X5567215Y-3322785D01*
X5556289Y-3314721D01*
X5556288Y-3314720D01*
X5543470Y-3310235D01*
X5540428Y-3309950D01*
X5540427Y-3309950D01*
X5539950Y-3309950D01*
X5536485Y-3308515D01*
X5535050Y-3305050D01*
X5535050Y-3196938D01*
X5536485Y-3193473D01*
X5538332Y-3192313D01*
X5538470Y-3192265D01*
X5538470Y-3192265D01*
X5551288Y-3187779D01*
X5562215Y-3179715D01*
X5570279Y-3168788D01*
X5574765Y-3155970D01*
X5575050Y-3152927D01*
X5575050Y-3047073D01*
X5574765Y-3044030D01*
X5571154Y-3033711D01*
X5570280Y-3031212D01*
X5570279Y-3031211D01*
X5562215Y-3020285D01*
X5551289Y-3012221D01*
X5551288Y-3012220D01*
X5538470Y-3007735D01*
X5535428Y-3007450D01*
X5535427Y-3007450D01*
X5474573Y-3007450D01*
X5474572Y-3007450D01*
X5471530Y-3007735D01*
X5471530Y-3007735D01*
X5458712Y-3012220D01*
X5458711Y-3012221D01*
X5447785Y-3020285D01*
X5439721Y-3031211D01*
X5439720Y-3031212D01*
X5435235Y-3044030D01*
X5435235Y-3044030D01*
X5434950Y-3047072D01*
X5434950Y-3152927D01*
X5435235Y-3155970D01*
X5435235Y-3155970D01*
X5439720Y-3168788D01*
X5439721Y-3168788D01*
X5447785Y-3179715D01*
X5458711Y-3187779D01*
X5458712Y-3187779D01*
X5458712Y-3187779D01*
X5458712Y-3187779D01*
X5458712Y-3187779D01*
X5462615Y-3189145D01*
X5471530Y-3192265D01*
X5471530Y-3192265D01*
X5471668Y-3192313D01*
X5474465Y-3194812D01*
X5474950Y-3196938D01*
X5474950Y-3306437D01*
X5473515Y-3309901D01*
X5471668Y-3311062D01*
X5461212Y-3314720D01*
X5461211Y-3314721D01*
X5450285Y-3322785D01*
X5442221Y-3333711D01*
X5442220Y-3333712D01*
X5437735Y-3346530D01*
X5437735Y-3346530D01*
X5437450Y-3349572D01*
X5437450Y-3450427D01*
X5437735Y-3453470D01*
X5437735Y-3453470D01*
X5442220Y-3466288D01*
X5442221Y-3466288D01*
X5450285Y-3477215D01*
X5461211Y-3485279D01*
X5461212Y-3485279D01*
X5461212Y-3485279D01*
X5461212Y-3485279D01*
X5461212Y-3485279D01*
X5471668Y-3488938D01*
X5474465Y-3491437D01*
X5474950Y-3493563D01*
X5474950Y-3603062D01*
X5473515Y-3606527D01*
X5471668Y-3607687D01*
X5458712Y-3612220D01*
X5458711Y-3612221D01*
X5447785Y-3620285D01*
X5439721Y-3631211D01*
X5439720Y-3631212D01*
X5435235Y-3644030D01*
X5435235Y-3644030D01*
X5434950Y-3647072D01*
X5434950Y-3752927D01*
X5435235Y-3755970D01*
X5435235Y-3755970D01*
X5439720Y-3768788D01*
X5439721Y-3768788D01*
X5447785Y-3779715D01*
X5458711Y-3787779D01*
X5458712Y-3787779D01*
X5458712Y-3787779D01*
X5458712Y-3787779D01*
X5458712Y-3787779D01*
X5465201Y-3790050D01*
X5471530Y-3792265D01*
X5474573Y-3792550D01*
X5474574Y-3792550D01*
X5535426Y-3792550D01*
X5535427Y-3792550D01*
X5538470Y-3792265D01*
X5551288Y-3787779D01*
X5551289Y-3787779D01*
X5562140Y-3779770D01*
X5565780Y-3778867D01*
X5568993Y-3780803D01*
X5569950Y-3783713D01*
X5569950Y-3807239D01*
X5568515Y-3810704D01*
X5559950Y-3819268D01*
X5559950Y-3819268D01*
X5553361Y-3830681D01*
X5553361Y-3830681D01*
X5549950Y-3843410D01*
X5549950Y-3856589D01*
X5553361Y-3869318D01*
X5553361Y-3869319D01*
X5557192Y-3875954D01*
X5559950Y-3880731D01*
X5569269Y-3890050D01*
X5580681Y-3896639D01*
X5580723Y-3896650D01*
X5580741Y-3896664D01*
X5580978Y-3896762D01*
X5580952Y-3896826D01*
X5583699Y-3898933D01*
X5584188Y-3902652D01*
X5581905Y-3905627D01*
X5579455Y-3906283D01*
X5533044Y-3906283D01*
X5525401Y-3908331D01*
X5525401Y-3908331D01*
X5518549Y-3912287D01*
X5518549Y-3912287D01*
X5414322Y-4016515D01*
X5410857Y-4017950D01*
X5368146Y-4017950D01*
X5348817Y-4021795D01*
X5348816Y-4021795D01*
X5330609Y-4029337D01*
X5314222Y-4040286D01*
X5300286Y-4054222D01*
X5289337Y-4070609D01*
X5281795Y-4088816D01*
X5281795Y-4088817D01*
X5277950Y-4108145D01*
X5130050Y-4108145D01*
X5130050Y-3164477D01*
X5131485Y-3161012D01*
X5311012Y-2981485D01*
X5314477Y-2980050D01*
X5537294Y-2980050D01*
X5635523Y-2980050D01*
X5638988Y-2981485D01*
X5658763Y-3001260D01*
X5660198Y-3004725D01*
X5658763Y-3008189D01*
X5656916Y-3009350D01*
X5648712Y-3012220D01*
X5648711Y-3012221D01*
X5637785Y-3020285D01*
X5629721Y-3031211D01*
X5629720Y-3031212D01*
X5625235Y-3044030D01*
X5625235Y-3044030D01*
X5624950Y-3047072D01*
X5624950Y-3152927D01*
X5625235Y-3155970D01*
X5625235Y-3155970D01*
X5629720Y-3168788D01*
X5629721Y-3168788D01*
X5637785Y-3179715D01*
X5648711Y-3187779D01*
X5648712Y-3187779D01*
X5648712Y-3187779D01*
X5648712Y-3187779D01*
X5648712Y-3187779D01*
X5655201Y-3190050D01*
X5661530Y-3192265D01*
X5664573Y-3192550D01*
X5664574Y-3192550D01*
X5725426Y-3192550D01*
X5725427Y-3192550D01*
X5728470Y-3192265D01*
X5741288Y-3187779D01*
X5752215Y-3179715D01*
X5760279Y-3168788D01*
X5764765Y-3155970D01*
X5765050Y-3152927D01*
X5765050Y-3047073D01*
X5764765Y-3044030D01*
X5761154Y-3033711D01*
X5760279Y-3031212D01*
X5760279Y-3031211D01*
X5752215Y-3020285D01*
X5741288Y-3012221D01*
X5741288Y-3012220D01*
X5728332Y-3007687D01*
X5725535Y-3005188D01*
X5725050Y-3003062D01*
X5725050Y-2991044D01*
X5723757Y-2986218D01*
X5724246Y-2982500D01*
X5727222Y-2980217D01*
X5728490Y-2980050D01*
X5754794Y-2980050D01*
X5762706Y-2980050D01*
X5835523Y-2980050D01*
X5838988Y-2981485D01*
X5863855Y-3006352D01*
X5865290Y-3009817D01*
X5863855Y-3013282D01*
X5862009Y-3014442D01*
X5861211Y-3014721D01*
X5850285Y-3022785D01*
X5842221Y-3033711D01*
X5842220Y-3033712D01*
X5837735Y-3046530D01*
X5837735Y-3046530D01*
X5837450Y-3049572D01*
X5837450Y-3150427D01*
X5837735Y-3153470D01*
X5837735Y-3153470D01*
X5842220Y-3166288D01*
X5842221Y-3166288D01*
X5850285Y-3177215D01*
X5861211Y-3185279D01*
X5861212Y-3185279D01*
X5861212Y-3185279D01*
X5861212Y-3185279D01*
X5861212Y-3185279D01*
X5868356Y-3187779D01*
X5874030Y-3189765D01*
X5877073Y-3190050D01*
X5877074Y-3190050D01*
X5940426Y-3190050D01*
X5940427Y-3190050D01*
X5943470Y-3189765D01*
X5956288Y-3185279D01*
X5967215Y-3177215D01*
X5975279Y-3166288D01*
X5979765Y-3153470D01*
X5980050Y-3150427D01*
X5980050Y-3049573D01*
X5980050Y-3049572D01*
X6019950Y-3049572D01*
X6019950Y-3150427D01*
X6020235Y-3153470D01*
X6020235Y-3153470D01*
X6024720Y-3166288D01*
X6024721Y-3166288D01*
X6032785Y-3177215D01*
X6043711Y-3185279D01*
X6043712Y-3185279D01*
X6043712Y-3185279D01*
X6043712Y-3185279D01*
X6043712Y-3185279D01*
X6056530Y-3189764D01*
X6056530Y-3189765D01*
X6056757Y-3189786D01*
X6060073Y-3191538D01*
X6061200Y-3194664D01*
X6061200Y-3304374D01*
X6059765Y-3307839D01*
X6057918Y-3308999D01*
X6048712Y-3312220D01*
X6048711Y-3312221D01*
X6037785Y-3320285D01*
X6029721Y-3331211D01*
X6029720Y-3331212D01*
X6025235Y-3344030D01*
X6025235Y-3344030D01*
X6024950Y-3347072D01*
X6024950Y-3452927D01*
X6025235Y-3455970D01*
X6025235Y-3455970D01*
X6029720Y-3468788D01*
X6029721Y-3468788D01*
X6037785Y-3479715D01*
X6048711Y-3487779D01*
X6048712Y-3487779D01*
X6057918Y-3491001D01*
X6060715Y-3493500D01*
X6061200Y-3495626D01*
X6061200Y-3605335D01*
X6059765Y-3608800D01*
X6056758Y-3610214D01*
X6056530Y-3610235D01*
X6056530Y-3610235D01*
X6043712Y-3614720D01*
X6043711Y-3614721D01*
X6032785Y-3622785D01*
X6024721Y-3633711D01*
X6024720Y-3633712D01*
X6020235Y-3646530D01*
X6020235Y-3646530D01*
X6019950Y-3649572D01*
X6019950Y-3750427D01*
X6020235Y-3753470D01*
X6020235Y-3753470D01*
X6024720Y-3766288D01*
X6024721Y-3766288D01*
X6032785Y-3777215D01*
X6043711Y-3785279D01*
X6043712Y-3785279D01*
X6043712Y-3785279D01*
X6043712Y-3785279D01*
X6043712Y-3785279D01*
X6050856Y-3787779D01*
X6056530Y-3789765D01*
X6059573Y-3790050D01*
X6059574Y-3790050D01*
X6122926Y-3790050D01*
X6122927Y-3790050D01*
X6125970Y-3789765D01*
X6138788Y-3785279D01*
X6145606Y-3780248D01*
X6149715Y-3777215D01*
X6157779Y-3766288D01*
X6157779Y-3766288D01*
X6157779Y-3766288D01*
X6162265Y-3753470D01*
X6162550Y-3750427D01*
X6162550Y-3649573D01*
X6162265Y-3646530D01*
X6157779Y-3633712D01*
X6157779Y-3633712D01*
X6157779Y-3633711D01*
X6149715Y-3622785D01*
X6138788Y-3614721D01*
X6138788Y-3614720D01*
X6125970Y-3610235D01*
X6125742Y-3610214D01*
X6122427Y-3608461D01*
X6121300Y-3605335D01*
X6121300Y-3497399D01*
X6122735Y-3493934D01*
X6125742Y-3492520D01*
X6128470Y-3492265D01*
X6141288Y-3487779D01*
X6145186Y-3484903D01*
X6152215Y-3479715D01*
X6160279Y-3468788D01*
X6160279Y-3468788D01*
X6160279Y-3468788D01*
X6164765Y-3455970D01*
X6165050Y-3452927D01*
X6165050Y-3347073D01*
X6164765Y-3344030D01*
X6161154Y-3333711D01*
X6160279Y-3331212D01*
X6160279Y-3331211D01*
X6152215Y-3320285D01*
X6141288Y-3312221D01*
X6141288Y-3312220D01*
X6128470Y-3307735D01*
X6125742Y-3307480D01*
X6122427Y-3305727D01*
X6121300Y-3302601D01*
X6121300Y-3194664D01*
X6122735Y-3191200D01*
X6125743Y-3189786D01*
X6125970Y-3189765D01*
X6138788Y-3185279D01*
X6149715Y-3177215D01*
X6157779Y-3166288D01*
X6162265Y-3153470D01*
X6162550Y-3150427D01*
X6162550Y-3049573D01*
X6162265Y-3046530D01*
X6157779Y-3033712D01*
X6157779Y-3033712D01*
X6157779Y-3033711D01*
X6149715Y-3022785D01*
X6138788Y-3014721D01*
X6138788Y-3014720D01*
X6125970Y-3010235D01*
X6122927Y-3009950D01*
X6122927Y-3009950D01*
X6059573Y-3009950D01*
X6059572Y-3009950D01*
X6056530Y-3010235D01*
X6056530Y-3010235D01*
X6043712Y-3014720D01*
X6043711Y-3014721D01*
X6032785Y-3022785D01*
X6024721Y-3033711D01*
X6024720Y-3033712D01*
X6020235Y-3046530D01*
X6020235Y-3046530D01*
X6019950Y-3049572D01*
X5980050Y-3049572D01*
X5979765Y-3046530D01*
X5975279Y-3033712D01*
X5975279Y-3033712D01*
X5975279Y-3033711D01*
X5967215Y-3022785D01*
X5956288Y-3014721D01*
X5956288Y-3014720D01*
X5943470Y-3010235D01*
X5943242Y-3010214D01*
X5939927Y-3008461D01*
X5938800Y-3005335D01*
X5938800Y-3004794D01*
X5937853Y-3001260D01*
X5936752Y-2997151D01*
X5936752Y-2997151D01*
X5936752Y-2997151D01*
X5934244Y-2992807D01*
X5932796Y-2990299D01*
X5927201Y-2984704D01*
X5868451Y-2925954D01*
X5861599Y-2921998D01*
X5853956Y-2919950D01*
X5853956Y-2919950D01*
X5843127Y-2919950D01*
X5839662Y-2918515D01*
X5838227Y-2915050D01*
X5839662Y-2911585D01*
X5855994Y-2895253D01*
X5862558Y-2888689D01*
X5866023Y-2887254D01*
X5867640Y-2887529D01*
X5874030Y-2889765D01*
X5877073Y-2890050D01*
X5877074Y-2890050D01*
X5940426Y-2890050D01*
X5940427Y-2890050D01*
X5943470Y-2889765D01*
X5956288Y-2885279D01*
X5967215Y-2877215D01*
X5975279Y-2866288D01*
X5979765Y-2853470D01*
X5980050Y-2850427D01*
X5980050Y-2749573D01*
X5979765Y-2746530D01*
X5975279Y-2733712D01*
X5975279Y-2733712D01*
X5975279Y-2733711D01*
X5967215Y-2722785D01*
X5956288Y-2714721D01*
X5956288Y-2714720D01*
X5943470Y-2710235D01*
X5940427Y-2709950D01*
X5940427Y-2709950D01*
X5877073Y-2709950D01*
X5877072Y-2709950D01*
X5874030Y-2710235D01*
X5874030Y-2710235D01*
X5861212Y-2714720D01*
X5861211Y-2714721D01*
X5850285Y-2722785D01*
X5842221Y-2733711D01*
X5842220Y-2733712D01*
X5837735Y-2746530D01*
X5837735Y-2746530D01*
X5837450Y-2749572D01*
X5837450Y-2826773D01*
X5836015Y-2830238D01*
X5747738Y-2918515D01*
X5744273Y-2919950D01*
X5625627Y-2919950D01*
X5622162Y-2918515D01*
X5620727Y-2915050D01*
X5622162Y-2911585D01*
X5638494Y-2895253D01*
X5645058Y-2888689D01*
X5648523Y-2887254D01*
X5650140Y-2887529D01*
X5656530Y-2889765D01*
X5659573Y-2890050D01*
X5659574Y-2890050D01*
X5722926Y-2890050D01*
X5722927Y-2890050D01*
X5725970Y-2889765D01*
X5738788Y-2885279D01*
X5749715Y-2877215D01*
X5757779Y-2866288D01*
X5762265Y-2853470D01*
X5762550Y-2850427D01*
X5762550Y-2749573D01*
X5762265Y-2746530D01*
X5757779Y-2733712D01*
X5757779Y-2733712D01*
X5757779Y-2733711D01*
X5749715Y-2722785D01*
X5738788Y-2714721D01*
X5738788Y-2714720D01*
X5725970Y-2710235D01*
X5722927Y-2709950D01*
X5722927Y-2709950D01*
X5659573Y-2709950D01*
X5659572Y-2709950D01*
X5656530Y-2710235D01*
X5656530Y-2710235D01*
X5643712Y-2714720D01*
X5643711Y-2714721D01*
X5632785Y-2722785D01*
X5624721Y-2733711D01*
X5624720Y-2733712D01*
X5620235Y-2746530D01*
X5620235Y-2746530D01*
X5619950Y-2749572D01*
X5619950Y-2826773D01*
X5618515Y-2830238D01*
X5586592Y-2862161D01*
X5583127Y-2863596D01*
X5579662Y-2862161D01*
X5578227Y-2858696D01*
X5578502Y-2857078D01*
X5579765Y-2853470D01*
X5580050Y-2850427D01*
X5580050Y-2749573D01*
X5579765Y-2746530D01*
X5575279Y-2733712D01*
X5575279Y-2733712D01*
X5575279Y-2733711D01*
X5567215Y-2722785D01*
X5556289Y-2714721D01*
X5556288Y-2714720D01*
X5543470Y-2710235D01*
X5543242Y-2710214D01*
X5539927Y-2708461D01*
X5538800Y-2705335D01*
X5538800Y-2605727D01*
X5540235Y-2602262D01*
X5541012Y-2601485D01*
X5544477Y-2600050D01*
X5556590Y-2600050D01*
X5556590Y-2600050D01*
X5569319Y-2596639D01*
X5580731Y-2590050D01*
X5590050Y-2580731D01*
X5596639Y-2569319D01*
X5600050Y-2556590D01*
X5600050Y-2556590D01*
X5600050Y-2543411D01*
X5600050Y-2543410D01*
X5596639Y-2530682D01*
X5596639Y-2530681D01*
X5590050Y-2519269D01*
X5580732Y-2509950D01*
X5580731Y-2509950D01*
X5579334Y-2509143D01*
X5577051Y-2506168D01*
X5577541Y-2502450D01*
X5580516Y-2500167D01*
X5581785Y-2500000D01*
X7395100Y-2500000D01*
X7398565Y-2501435D01*
X7400000Y-2504900D01*
X7400000Y-6395100D01*
X7398565Y-6398565D01*
X7395100Y-6400000D01*
X1604900Y-6400000D01*
X1601435Y-6398565D01*
X1600000Y-6395100D01*
X1600000Y-5814900D01*
X2089450Y-5814900D01*
X2089450Y-5835100D01*
X2091212Y-5843956D01*
X2093391Y-5854912D01*
X2093391Y-5854913D01*
X2100977Y-5873227D01*
X2101121Y-5873576D01*
X2107950Y-5883795D01*
X2109119Y-5885545D01*
X2112344Y-5890372D01*
X2126628Y-5904656D01*
X2143424Y-5915879D01*
X2162087Y-5923609D01*
X2181900Y-5927550D01*
X2181900Y-5927550D01*
X2202100Y-5927550D01*
X2202100Y-5927550D01*
X2221913Y-5923609D01*
X2240576Y-5915879D01*
X2257372Y-5904656D01*
X2271656Y-5890372D01*
X2282879Y-5873576D01*
X2290609Y-5854913D01*
X2294550Y-5835100D01*
X2294550Y-5814900D01*
X2343450Y-5814900D01*
X2343450Y-5835100D01*
X2345212Y-5843956D01*
X2347391Y-5854912D01*
X2347391Y-5854913D01*
X2354977Y-5873227D01*
X2355121Y-5873576D01*
X2361950Y-5883795D01*
X2363119Y-5885545D01*
X2366344Y-5890372D01*
X2380628Y-5904656D01*
X2397424Y-5915879D01*
X2416087Y-5923609D01*
X2435900Y-5927550D01*
X2435900Y-5927550D01*
X2456100Y-5927550D01*
X2456100Y-5927550D01*
X2475913Y-5923609D01*
X2494576Y-5915879D01*
X2511372Y-5904656D01*
X2525656Y-5890372D01*
X2536879Y-5873576D01*
X2544609Y-5854913D01*
X2548550Y-5835100D01*
X2548550Y-5814900D01*
X2544609Y-5795087D01*
X2538188Y-5779586D01*
X2538188Y-5775836D01*
X2539250Y-5774247D01*
X2582012Y-5731485D01*
X2585477Y-5730050D01*
X2613929Y-5730050D01*
X2617394Y-5731485D01*
X2618829Y-5734950D01*
X2617394Y-5738415D01*
X2609929Y-5745880D01*
X2609928Y-5745881D01*
X2602045Y-5759211D01*
X2597723Y-5774084D01*
X2597723Y-5774084D01*
X2597450Y-5777559D01*
X2597450Y-5872440D01*
X2597450Y-5872442D01*
X2597723Y-5875915D01*
X2602045Y-5890789D01*
X2609928Y-5904119D01*
X2609929Y-5904120D01*
X2620880Y-5915071D01*
X2620881Y-5915072D01*
X2634211Y-5922955D01*
X2634211Y-5922955D01*
X2634211Y-5922955D01*
X2649084Y-5927276D01*
X2652560Y-5927550D01*
X2747440Y-5927550D01*
X2747441Y-5927550D01*
X2747442Y-5927550D01*
X2749398Y-5927396D01*
X2750916Y-5927276D01*
X2765789Y-5922955D01*
X2779120Y-5915071D01*
X2790072Y-5904120D01*
X2791156Y-5902286D01*
X2797955Y-5890789D01*
X2797955Y-5890789D01*
X2797955Y-5890789D01*
X2801348Y-5879112D01*
X2803692Y-5876186D01*
X2807420Y-5875774D01*
X2809518Y-5877015D01*
X3100954Y-6168451D01*
X3106549Y-6174046D01*
X3113401Y-6178002D01*
X3115304Y-6178512D01*
X3121044Y-6180050D01*
X3121044Y-6180050D01*
X3753956Y-6180050D01*
X3756623Y-6179335D01*
X3761599Y-6178002D01*
X3768451Y-6174046D01*
X3774046Y-6168451D01*
X3891012Y-6051485D01*
X3894477Y-6050050D01*
X4071974Y-6050050D01*
X4071975Y-6050050D01*
X4077823Y-6048887D01*
X4084455Y-6044455D01*
X4088887Y-6037823D01*
X4090050Y-6031975D01*
X4090050Y-5868025D01*
X4088887Y-5862177D01*
X4086230Y-5858201D01*
X4084455Y-5855545D01*
X4078549Y-5851599D01*
X4077823Y-5851113D01*
X4071975Y-5849950D01*
X3828025Y-5849950D01*
X3822177Y-5851113D01*
X3815545Y-5855545D01*
X3811675Y-5861337D01*
X3811113Y-5862177D01*
X3809950Y-5868025D01*
X3809950Y-6031975D01*
X3811113Y-6037823D01*
X3812310Y-6039615D01*
X3813042Y-6043293D01*
X3811701Y-6045802D01*
X3738988Y-6118515D01*
X3735523Y-6119950D01*
X3139477Y-6119950D01*
X3136012Y-6118515D01*
X2818451Y-5800954D01*
X2811599Y-5796998D01*
X2806182Y-5795546D01*
X2803206Y-5793263D01*
X2802550Y-5790813D01*
X2802550Y-5777560D01*
X2802550Y-5777558D01*
X2802276Y-5774084D01*
X2802075Y-5773391D01*
X2797955Y-5759211D01*
X2797955Y-5759211D01*
X2790072Y-5745881D01*
X2790071Y-5745880D01*
X2782606Y-5738415D01*
X2781171Y-5734950D01*
X2782606Y-5731485D01*
X2786071Y-5730050D01*
X2835523Y-5730050D01*
X2838988Y-5731485D01*
X3046515Y-5939012D01*
X3047950Y-5942477D01*
X3047950Y-5959854D01*
X3051795Y-5979183D01*
X3051795Y-5979184D01*
X3057456Y-5992851D01*
X3059337Y-5997391D01*
X3065415Y-6006488D01*
X3068754Y-6011485D01*
X3070286Y-6013778D01*
X3084222Y-6027714D01*
X3100609Y-6038663D01*
X3118816Y-6046205D01*
X3138146Y-6050050D01*
X3237854Y-6050050D01*
X3257183Y-6046205D01*
X3275391Y-6038663D01*
X3291778Y-6027714D01*
X3305714Y-6013778D01*
X3316663Y-5997391D01*
X3324205Y-5979183D01*
X3328050Y-5959854D01*
X3328050Y-5940146D01*
X3324205Y-5920816D01*
X3316663Y-5902609D01*
X3305714Y-5886222D01*
X3291778Y-5872286D01*
X3288427Y-5870047D01*
X3286134Y-5868515D01*
X3275391Y-5861337D01*
X3275391Y-5861337D01*
X3275391Y-5861337D01*
X3257184Y-5853795D01*
X3257183Y-5853795D01*
X3237854Y-5849950D01*
X3237854Y-5849950D01*
X3138146Y-5849950D01*
X3138145Y-5849950D01*
X3118817Y-5853795D01*
X3118816Y-5853795D01*
X3100609Y-5861337D01*
X3084222Y-5872286D01*
X3077967Y-5878541D01*
X3074502Y-5879976D01*
X3071038Y-5878541D01*
X2878643Y-5686145D01*
X3047950Y-5686145D01*
X3047950Y-5705854D01*
X3051795Y-5725183D01*
X3051795Y-5725184D01*
X3056582Y-5736741D01*
X3059337Y-5743391D01*
X3065854Y-5753145D01*
X3070186Y-5759628D01*
X3070286Y-5759778D01*
X3084222Y-5773714D01*
X3100609Y-5784663D01*
X3118816Y-5792205D01*
X3138146Y-5796050D01*
X3237854Y-5796050D01*
X3257183Y-5792205D01*
X3275391Y-5784663D01*
X3291778Y-5773714D01*
X3305714Y-5759778D01*
X3316663Y-5743391D01*
X3324205Y-5725183D01*
X3328050Y-5705854D01*
X3328050Y-5686146D01*
X3328050Y-5686145D01*
X3809950Y-5686145D01*
X3809950Y-5705854D01*
X3813795Y-5725183D01*
X3813795Y-5725184D01*
X3818582Y-5736741D01*
X3821337Y-5743391D01*
X3827854Y-5753145D01*
X3832186Y-5759628D01*
X3832286Y-5759778D01*
X3846222Y-5773714D01*
X3862609Y-5784663D01*
X3880816Y-5792205D01*
X3900146Y-5796050D01*
X3999854Y-5796050D01*
X4019183Y-5792205D01*
X4037391Y-5784663D01*
X4053778Y-5773714D01*
X4067714Y-5759778D01*
X4078663Y-5743391D01*
X4084593Y-5729075D01*
X4087245Y-5726423D01*
X4089120Y-5726050D01*
X4306523Y-5726050D01*
X4309988Y-5727485D01*
X4363693Y-5781190D01*
X4365128Y-5784655D01*
X4363693Y-5788120D01*
X4360228Y-5789555D01*
X4280723Y-5789555D01*
X4274875Y-5790718D01*
X4268242Y-5795150D01*
X4264364Y-5800954D01*
X4263811Y-5801782D01*
X4262648Y-5807630D01*
X4262648Y-6111580D01*
X4263811Y-6117428D01*
X4265496Y-6119950D01*
X4268242Y-6124060D01*
X4270899Y-6125835D01*
X4274875Y-6128492D01*
X4280723Y-6129655D01*
X4280723Y-6129655D01*
X4584672Y-6129655D01*
X4584673Y-6129655D01*
X4590521Y-6128492D01*
X4597153Y-6124060D01*
X4601584Y-6117428D01*
X4602748Y-6111580D01*
X4602748Y-5807630D01*
X4601584Y-5801782D01*
X4597754Y-5796050D01*
X4597153Y-5795150D01*
X4592746Y-5792205D01*
X4590521Y-5790718D01*
X4584673Y-5789555D01*
X4584672Y-5789555D01*
X4459082Y-5789555D01*
X4455617Y-5788120D01*
X4339451Y-5671954D01*
X4332599Y-5667998D01*
X4324956Y-5665950D01*
X4324956Y-5665950D01*
X4089120Y-5665950D01*
X4085655Y-5664515D01*
X4084593Y-5662925D01*
X4078663Y-5648609D01*
X4078663Y-5648609D01*
X4067714Y-5632222D01*
X4053778Y-5618286D01*
X4037391Y-5607337D01*
X4037391Y-5607337D01*
X4037391Y-5607337D01*
X4019184Y-5599795D01*
X4019183Y-5599795D01*
X3999854Y-5595950D01*
X3999854Y-5595950D01*
X3900146Y-5595950D01*
X3900145Y-5595950D01*
X3880817Y-5599795D01*
X3880816Y-5599795D01*
X3862609Y-5607337D01*
X3846222Y-5618286D01*
X3832286Y-5632222D01*
X3821337Y-5648609D01*
X3813795Y-5666816D01*
X3813795Y-5666817D01*
X3809950Y-5686145D01*
X3328050Y-5686145D01*
X3324205Y-5666816D01*
X3316663Y-5648609D01*
X3305714Y-5632222D01*
X3291778Y-5618286D01*
X3275391Y-5607337D01*
X3275391Y-5607337D01*
X3275391Y-5607337D01*
X3257184Y-5599795D01*
X3257183Y-5599795D01*
X3237854Y-5595950D01*
X3237854Y-5595950D01*
X3138146Y-5595950D01*
X3138145Y-5595950D01*
X3118817Y-5599795D01*
X3118816Y-5599795D01*
X3100609Y-5607337D01*
X3084222Y-5618286D01*
X3070286Y-5632222D01*
X3059337Y-5648609D01*
X3051795Y-5666816D01*
X3051795Y-5666817D01*
X3047950Y-5686145D01*
X2878643Y-5686145D01*
X2868451Y-5675954D01*
X2868451Y-5675954D01*
X2867617Y-5675472D01*
X2867617Y-5675472D01*
X2867617Y-5675472D01*
X2861599Y-5671998D01*
X2861599Y-5671998D01*
X2853956Y-5669950D01*
X2853956Y-5669950D01*
X2567044Y-5669950D01*
X2567044Y-5669950D01*
X2559401Y-5671998D01*
X2559401Y-5671998D01*
X2553383Y-5675472D01*
X2553383Y-5675472D01*
X2552549Y-5675954D01*
X2552549Y-5675954D01*
X2496753Y-5731749D01*
X2493289Y-5733184D01*
X2491414Y-5732811D01*
X2475913Y-5726391D01*
X2475912Y-5726391D01*
X2467923Y-5724802D01*
X2456100Y-5722450D01*
X2435900Y-5722450D01*
X2426039Y-5724411D01*
X2416088Y-5726391D01*
X2416087Y-5726391D01*
X2397425Y-5734121D01*
X2380628Y-5745344D01*
X2366344Y-5759628D01*
X2355121Y-5776425D01*
X2347391Y-5795087D01*
X2347391Y-5795087D01*
X2346059Y-5801782D01*
X2343450Y-5814900D01*
X2294550Y-5814900D01*
X2290609Y-5795087D01*
X2282879Y-5776424D01*
X2271656Y-5759628D01*
X2257372Y-5745344D01*
X2240576Y-5734121D01*
X2240575Y-5734121D01*
X2240575Y-5734121D01*
X2221913Y-5726391D01*
X2221912Y-5726391D01*
X2213923Y-5724802D01*
X2202100Y-5722450D01*
X2181900Y-5722450D01*
X2172039Y-5724411D01*
X2162088Y-5726391D01*
X2162087Y-5726391D01*
X2143425Y-5734121D01*
X2126628Y-5745344D01*
X2112344Y-5759628D01*
X2101121Y-5776425D01*
X2093391Y-5795087D01*
X2093391Y-5795087D01*
X2092059Y-5801782D01*
X2089450Y-5814900D01*
X1600000Y-5814900D01*
X1600000Y-4959572D01*
X2509950Y-4959572D01*
X2509950Y-5022928D01*
X2510235Y-5025970D01*
X2510235Y-5025970D01*
X2514720Y-5038788D01*
X2514721Y-5038789D01*
X2522785Y-5049715D01*
X2533711Y-5057779D01*
X2533712Y-5057779D01*
X2533712Y-5057779D01*
X2533712Y-5057779D01*
X2533712Y-5057780D01*
X2540856Y-5060279D01*
X2546530Y-5062265D01*
X2549573Y-5062550D01*
X2569718Y-5062550D01*
X2573183Y-5063985D01*
X2573962Y-5065000D01*
X2574705Y-5066289D01*
X2575954Y-5068451D01*
X2870954Y-5363451D01*
X2997954Y-5490451D01*
X3003549Y-5496046D01*
X3010401Y-5500002D01*
X3013948Y-5500952D01*
X3018044Y-5502050D01*
X3018044Y-5502050D01*
X3065176Y-5502050D01*
X3068641Y-5503485D01*
X3069250Y-5504228D01*
X3070286Y-5505778D01*
X3084222Y-5519714D01*
X3100609Y-5530663D01*
X3118816Y-5538205D01*
X3138146Y-5542050D01*
X3237854Y-5542050D01*
X3257183Y-5538205D01*
X3275391Y-5530663D01*
X3291778Y-5519714D01*
X3305714Y-5505778D01*
X3316663Y-5489391D01*
X3324205Y-5471184D01*
X3328050Y-5451854D01*
X3328050Y-5432146D01*
X3328050Y-5432146D01*
X3809950Y-5432146D01*
X3809950Y-5451854D01*
X3813795Y-5471183D01*
X3813795Y-5471184D01*
X3818215Y-5481854D01*
X3821337Y-5489391D01*
X3822045Y-5490451D01*
X3831816Y-5505075D01*
X3832286Y-5505778D01*
X3846222Y-5519714D01*
X3862609Y-5530663D01*
X3880816Y-5538205D01*
X3900146Y-5542050D01*
X3999854Y-5542050D01*
X4019183Y-5538205D01*
X4037391Y-5530663D01*
X4053778Y-5519714D01*
X4067714Y-5505778D01*
X4078663Y-5489391D01*
X4084593Y-5475075D01*
X4087245Y-5472423D01*
X4089120Y-5472050D01*
X4627523Y-5472050D01*
X4630988Y-5473485D01*
X4909213Y-5751710D01*
X4910648Y-5755174D01*
X4910648Y-5787848D01*
X4909213Y-5791313D01*
X4907016Y-5792581D01*
X4885920Y-5798234D01*
X4885919Y-5798234D01*
X4865325Y-5806764D01*
X4846021Y-5817910D01*
X4846019Y-5817911D01*
X4828336Y-5831480D01*
X4828335Y-5831481D01*
X4812574Y-5847242D01*
X4812573Y-5847243D01*
X4799004Y-5864926D01*
X4799003Y-5864928D01*
X4787857Y-5884232D01*
X4779327Y-5904827D01*
X4779327Y-5904827D01*
X4773558Y-5926357D01*
X4773557Y-5926358D01*
X4773557Y-5926359D01*
X4770648Y-5948459D01*
X4770648Y-5970751D01*
X4773557Y-5992851D01*
X4773557Y-5992852D01*
X4773558Y-5992852D01*
X4779327Y-6014383D01*
X4779327Y-6014383D01*
X4787857Y-6034978D01*
X4799003Y-6054282D01*
X4799004Y-6054284D01*
X4812573Y-6071967D01*
X4812574Y-6071968D01*
X4828335Y-6087729D01*
X4828336Y-6087730D01*
X4846019Y-6101299D01*
X4846020Y-6101299D01*
X4846020Y-6101300D01*
X4865325Y-6112445D01*
X4885920Y-6120976D01*
X4885920Y-6120976D01*
X4907450Y-6126745D01*
X4907450Y-6126745D01*
X4907451Y-6126745D01*
X4929552Y-6129655D01*
X4929552Y-6129655D01*
X4951843Y-6129655D01*
X4951843Y-6129655D01*
X4973944Y-6126745D01*
X4995476Y-6120976D01*
X5016070Y-6112445D01*
X5035375Y-6101300D01*
X5053060Y-6087730D01*
X5068822Y-6071967D01*
X5082393Y-6054282D01*
X5093538Y-6034978D01*
X5102069Y-6014383D01*
X5107838Y-5992851D01*
X5110748Y-5970751D01*
X5110748Y-5970145D01*
X5277950Y-5970145D01*
X5277950Y-5989854D01*
X5281795Y-6009183D01*
X5281795Y-6009184D01*
X5286878Y-6021456D01*
X5289337Y-6027391D01*
X5296307Y-6037823D01*
X5299962Y-6043293D01*
X5300286Y-6043778D01*
X5314222Y-6057714D01*
X5330609Y-6068663D01*
X5348817Y-6076205D01*
X5368146Y-6080050D01*
X5467854Y-6080050D01*
X5487184Y-6076205D01*
X5505391Y-6068663D01*
X5521778Y-6057714D01*
X5535714Y-6043778D01*
X5546663Y-6027391D01*
X5554205Y-6009183D01*
X5558050Y-5989854D01*
X5558050Y-5970146D01*
X5554205Y-5950816D01*
X5546663Y-5932609D01*
X5535714Y-5916222D01*
X5521778Y-5902286D01*
X5505391Y-5891337D01*
X5505391Y-5891337D01*
X5505391Y-5891337D01*
X5487184Y-5883795D01*
X5487183Y-5883795D01*
X5467854Y-5879950D01*
X5467854Y-5879950D01*
X5368146Y-5879950D01*
X5368146Y-5879950D01*
X5348817Y-5883795D01*
X5348816Y-5883795D01*
X5330609Y-5891337D01*
X5314222Y-5902286D01*
X5300286Y-5916222D01*
X5289337Y-5932609D01*
X5281795Y-5950816D01*
X5281795Y-5950817D01*
X5277950Y-5970145D01*
X5110748Y-5970145D01*
X5110748Y-5948459D01*
X5107838Y-5926359D01*
X5102069Y-5904827D01*
X5093538Y-5884232D01*
X5089371Y-5877015D01*
X5087184Y-5873227D01*
X5082393Y-5864928D01*
X5082392Y-5864927D01*
X5082392Y-5864926D01*
X5068823Y-5847243D01*
X5068822Y-5847242D01*
X5053061Y-5831481D01*
X5053060Y-5831480D01*
X5035376Y-5817911D01*
X5035375Y-5817910D01*
X5016070Y-5806764D01*
X5016070Y-5806764D01*
X4995476Y-5798234D01*
X4995475Y-5798234D01*
X4974380Y-5792581D01*
X4971404Y-5790298D01*
X4970748Y-5787848D01*
X4970748Y-5736741D01*
X4969339Y-5731485D01*
X4968700Y-5729099D01*
X4968700Y-5729099D01*
X4968700Y-5729098D01*
X4964744Y-5722246D01*
X4958643Y-5716145D01*
X5277950Y-5716145D01*
X5277950Y-5735854D01*
X5281795Y-5755183D01*
X5281795Y-5755184D01*
X5289337Y-5773391D01*
X5289337Y-5773391D01*
X5292122Y-5777560D01*
X5300137Y-5789555D01*
X5300286Y-5789778D01*
X5314222Y-5803714D01*
X5330609Y-5814663D01*
X5348817Y-5822205D01*
X5368146Y-5826050D01*
X5467854Y-5826050D01*
X5487184Y-5822205D01*
X5505391Y-5814663D01*
X5521778Y-5803714D01*
X5535714Y-5789778D01*
X5546663Y-5773391D01*
X5554205Y-5755183D01*
X5558050Y-5735854D01*
X5558050Y-5716146D01*
X5558050Y-5716145D01*
X6039950Y-5716145D01*
X6039950Y-5735854D01*
X6043795Y-5755183D01*
X6043795Y-5755184D01*
X6051337Y-5773391D01*
X6051337Y-5773391D01*
X6054122Y-5777560D01*
X6062137Y-5789555D01*
X6062286Y-5789778D01*
X6076222Y-5803714D01*
X6092609Y-5814663D01*
X6110816Y-5822205D01*
X6130146Y-5826050D01*
X6229854Y-5826050D01*
X6249183Y-5822205D01*
X6267391Y-5814663D01*
X6283778Y-5803714D01*
X6297714Y-5789778D01*
X6308663Y-5773391D01*
X6312117Y-5765053D01*
X6314593Y-5759075D01*
X6317245Y-5756423D01*
X6319120Y-5756050D01*
X6420273Y-5756050D01*
X6423738Y-5757485D01*
X6536015Y-5869762D01*
X6537450Y-5873227D01*
X6537450Y-5950427D01*
X6537735Y-5953470D01*
X6537735Y-5953470D01*
X6542220Y-5966288D01*
X6542221Y-5966288D01*
X6550285Y-5977215D01*
X6561211Y-5985279D01*
X6561212Y-5985279D01*
X6561212Y-5985279D01*
X6561212Y-5985279D01*
X6561212Y-5985279D01*
X6574030Y-5989764D01*
X6574030Y-5989765D01*
X6574257Y-5989786D01*
X6577573Y-5991538D01*
X6578700Y-5994664D01*
X6578700Y-6021456D01*
X6580748Y-6029099D01*
X6580748Y-6029099D01*
X6581572Y-6030527D01*
X6581573Y-6030528D01*
X6584704Y-6035951D01*
X6584704Y-6035951D01*
X6652161Y-6103408D01*
X6653596Y-6106873D01*
X6652161Y-6110337D01*
X6648696Y-6111773D01*
X6647078Y-6111498D01*
X6645915Y-6111091D01*
X6643470Y-6110235D01*
X6643470Y-6110235D01*
X6643469Y-6110235D01*
X6640427Y-6109950D01*
X6640427Y-6109950D01*
X6577073Y-6109950D01*
X6577072Y-6109950D01*
X6574030Y-6110235D01*
X6574030Y-6110235D01*
X6561159Y-6114739D01*
X6557415Y-6114529D01*
X6556076Y-6113579D01*
X6398451Y-5955954D01*
X6391599Y-5951998D01*
X6383956Y-5949950D01*
X6383956Y-5949950D01*
X6324950Y-5949950D01*
X6321485Y-5948515D01*
X6320050Y-5945050D01*
X6320050Y-5898025D01*
X6320050Y-5898025D01*
X6318887Y-5892177D01*
X6314908Y-5886222D01*
X6314455Y-5885545D01*
X6309158Y-5882005D01*
X6307823Y-5881113D01*
X6301975Y-5879950D01*
X6058025Y-5879950D01*
X6052177Y-5881113D01*
X6045545Y-5885545D01*
X6042040Y-5890789D01*
X6041113Y-5892177D01*
X6039950Y-5898025D01*
X6039950Y-6061975D01*
X6041113Y-6067823D01*
X6042888Y-6070479D01*
X6045545Y-6074455D01*
X6048163Y-6076205D01*
X6052177Y-6078887D01*
X6058025Y-6080050D01*
X6058025Y-6080050D01*
X6301974Y-6080050D01*
X6301975Y-6080050D01*
X6307823Y-6078887D01*
X6314455Y-6074455D01*
X6318887Y-6067823D01*
X6320050Y-6061975D01*
X6320050Y-6014950D01*
X6321485Y-6011485D01*
X6324950Y-6010050D01*
X6365523Y-6010050D01*
X6368988Y-6011485D01*
X6536015Y-6178512D01*
X6537450Y-6181977D01*
X6537450Y-6250427D01*
X6537735Y-6253470D01*
X6537735Y-6253470D01*
X6542220Y-6266288D01*
X6542221Y-6266288D01*
X6550285Y-6277215D01*
X6561211Y-6285279D01*
X6561212Y-6285279D01*
X6561212Y-6285279D01*
X6561212Y-6285279D01*
X6561212Y-6285279D01*
X6574030Y-6289765D01*
X6577073Y-6290050D01*
X6577074Y-6290050D01*
X6640426Y-6290050D01*
X6640427Y-6290050D01*
X6643470Y-6289765D01*
X6656288Y-6285279D01*
X6667215Y-6277215D01*
X6675279Y-6266288D01*
X6679765Y-6253470D01*
X6680050Y-6250427D01*
X6680050Y-6149573D01*
X6679765Y-6146530D01*
X6679765Y-6146530D01*
X6678502Y-6142922D01*
X6678712Y-6139178D01*
X6681509Y-6136679D01*
X6685253Y-6136889D01*
X6686592Y-6137839D01*
X6718515Y-6169762D01*
X6719950Y-6173227D01*
X6719950Y-6250427D01*
X6720235Y-6253470D01*
X6720235Y-6253470D01*
X6724720Y-6266288D01*
X6724721Y-6266288D01*
X6732785Y-6277215D01*
X6743711Y-6285279D01*
X6743712Y-6285279D01*
X6743712Y-6285279D01*
X6743712Y-6285279D01*
X6743712Y-6285279D01*
X6756530Y-6289765D01*
X6759573Y-6290050D01*
X6759574Y-6290050D01*
X6822926Y-6290050D01*
X6822927Y-6290050D01*
X6825970Y-6289765D01*
X6838788Y-6285279D01*
X6849715Y-6277215D01*
X6857779Y-6266288D01*
X6862265Y-6253470D01*
X6862550Y-6250427D01*
X6862550Y-6149573D01*
X6862265Y-6146530D01*
X6861002Y-6142922D01*
X6857779Y-6133712D01*
X6857779Y-6133711D01*
X6849715Y-6122785D01*
X6838788Y-6114721D01*
X6838788Y-6114720D01*
X6825970Y-6110235D01*
X6822927Y-6109950D01*
X6822927Y-6109950D01*
X6759573Y-6109950D01*
X6759572Y-6109950D01*
X6756530Y-6110235D01*
X6756530Y-6110235D01*
X6756530Y-6110235D01*
X6750141Y-6112471D01*
X6746396Y-6112261D01*
X6745058Y-6111311D01*
X6640235Y-6006488D01*
X6638800Y-6003023D01*
X6638800Y-5994664D01*
X6640235Y-5991200D01*
X6643243Y-5989786D01*
X6643470Y-5989765D01*
X6656288Y-5985279D01*
X6664549Y-5979183D01*
X6667215Y-5977215D01*
X6675279Y-5966288D01*
X6675279Y-5966288D01*
X6675279Y-5966288D01*
X6679765Y-5953470D01*
X6680050Y-5950427D01*
X6680050Y-5849573D01*
X6679765Y-5846530D01*
X6675279Y-5833712D01*
X6675279Y-5833712D01*
X6675279Y-5833711D01*
X6667215Y-5822785D01*
X6656288Y-5814721D01*
X6656288Y-5814720D01*
X6643470Y-5810235D01*
X6640427Y-5809950D01*
X6640427Y-5809950D01*
X6577073Y-5809950D01*
X6577072Y-5809950D01*
X6574030Y-5810235D01*
X6574030Y-5810235D01*
X6574030Y-5810235D01*
X6567641Y-5812471D01*
X6563896Y-5812261D01*
X6562558Y-5811311D01*
X6453201Y-5701954D01*
X6446349Y-5697998D01*
X6438706Y-5695950D01*
X6438706Y-5695950D01*
X6319120Y-5695950D01*
X6315655Y-5694515D01*
X6314593Y-5692925D01*
X6308663Y-5678609D01*
X6308663Y-5678609D01*
X6297714Y-5662222D01*
X6283778Y-5648286D01*
X6281313Y-5646639D01*
X6272127Y-5640501D01*
X6267391Y-5637337D01*
X6267391Y-5637337D01*
X6267391Y-5637337D01*
X6249184Y-5629795D01*
X6249183Y-5629795D01*
X6229854Y-5625950D01*
X6229854Y-5625950D01*
X6130146Y-5625950D01*
X6130145Y-5625950D01*
X6110817Y-5629795D01*
X6110816Y-5629795D01*
X6092609Y-5637337D01*
X6076222Y-5648286D01*
X6062286Y-5662222D01*
X6051337Y-5678609D01*
X6043795Y-5696816D01*
X6043795Y-5696817D01*
X6039950Y-5716145D01*
X5558050Y-5716145D01*
X5554205Y-5696816D01*
X5546663Y-5678609D01*
X5535714Y-5662222D01*
X5521778Y-5648286D01*
X5519313Y-5646639D01*
X5510127Y-5640501D01*
X5505391Y-5637337D01*
X5505391Y-5637337D01*
X5505391Y-5637337D01*
X5487184Y-5629795D01*
X5487183Y-5629795D01*
X5467854Y-5625950D01*
X5467854Y-5625950D01*
X5368146Y-5625950D01*
X5368146Y-5625950D01*
X5348817Y-5629795D01*
X5348816Y-5629795D01*
X5330609Y-5637337D01*
X5314222Y-5648286D01*
X5300286Y-5662222D01*
X5289337Y-5678609D01*
X5281795Y-5696816D01*
X5281795Y-5696817D01*
X5277950Y-5716145D01*
X4958643Y-5716145D01*
X4704643Y-5462146D01*
X5277950Y-5462146D01*
X5277950Y-5481854D01*
X5281795Y-5501183D01*
X5281795Y-5501184D01*
X5287323Y-5514529D01*
X5289337Y-5519391D01*
X5300286Y-5535778D01*
X5314222Y-5549714D01*
X5330609Y-5560663D01*
X5348817Y-5568205D01*
X5368146Y-5572050D01*
X5467854Y-5572050D01*
X5487184Y-5568205D01*
X5505391Y-5560663D01*
X5521778Y-5549714D01*
X5535714Y-5535778D01*
X5546663Y-5519391D01*
X5554205Y-5501184D01*
X5558050Y-5481854D01*
X5558050Y-5462146D01*
X5558050Y-5462146D01*
X6039950Y-5462146D01*
X6039950Y-5481854D01*
X6043795Y-5501183D01*
X6043795Y-5501184D01*
X6049323Y-5514529D01*
X6051337Y-5519391D01*
X6062286Y-5535778D01*
X6076222Y-5549714D01*
X6092609Y-5560663D01*
X6110816Y-5568205D01*
X6130146Y-5572050D01*
X6229854Y-5572050D01*
X6249183Y-5568205D01*
X6267391Y-5560663D01*
X6283778Y-5549714D01*
X6297714Y-5535778D01*
X6308663Y-5519391D01*
X6312574Y-5509950D01*
X6314593Y-5505075D01*
X6317245Y-5502423D01*
X6319120Y-5502050D01*
X6457523Y-5502050D01*
X6460988Y-5503485D01*
X6536015Y-5578512D01*
X6537450Y-5581977D01*
X6537450Y-5650427D01*
X6537735Y-5653470D01*
X6537735Y-5653470D01*
X6542220Y-5666288D01*
X6542221Y-5666288D01*
X6550285Y-5677215D01*
X6561211Y-5685279D01*
X6561212Y-5685279D01*
X6561212Y-5685279D01*
X6561212Y-5685279D01*
X6561212Y-5685279D01*
X6563688Y-5686146D01*
X6574030Y-5689765D01*
X6577073Y-5690050D01*
X6577074Y-5690050D01*
X6640426Y-5690050D01*
X6640427Y-5690050D01*
X6643470Y-5689765D01*
X6656288Y-5685279D01*
X6667215Y-5677215D01*
X6671065Y-5671998D01*
X6675279Y-5666288D01*
X6675279Y-5666288D01*
X6675279Y-5666288D01*
X6679765Y-5653470D01*
X6680050Y-5650427D01*
X6680050Y-5549573D01*
X6680050Y-5549572D01*
X6719950Y-5549572D01*
X6719950Y-5650427D01*
X6720235Y-5653470D01*
X6720235Y-5653470D01*
X6724720Y-5666288D01*
X6724721Y-5666288D01*
X6732785Y-5677215D01*
X6743711Y-5685279D01*
X6743712Y-5685279D01*
X6743712Y-5685279D01*
X6743712Y-5685279D01*
X6743712Y-5685279D01*
X6746188Y-5686146D01*
X6756530Y-5689765D01*
X6759573Y-5690050D01*
X6759574Y-5690050D01*
X6822926Y-5690050D01*
X6822927Y-5690050D01*
X6825970Y-5689765D01*
X6838788Y-5685279D01*
X6849715Y-5677215D01*
X6853565Y-5671998D01*
X6857779Y-5666288D01*
X6857779Y-5666288D01*
X6857779Y-5666288D01*
X6862265Y-5653470D01*
X6862550Y-5650427D01*
X6862550Y-5634950D01*
X6863985Y-5631485D01*
X6867450Y-5630050D01*
X6907239Y-5630050D01*
X6910704Y-5631485D01*
X6919269Y-5640050D01*
X6923446Y-5642462D01*
X6930681Y-5646639D01*
X6930681Y-5646639D01*
X6930681Y-5646639D01*
X6936827Y-5648286D01*
X6943410Y-5650050D01*
X6943410Y-5650050D01*
X6943411Y-5650050D01*
X6956589Y-5650050D01*
X6956589Y-5650050D01*
X6969319Y-5646639D01*
X6972600Y-5644744D01*
X6976318Y-5644255D01*
X6979293Y-5646538D01*
X6979950Y-5648988D01*
X6979950Y-5825523D01*
X6978515Y-5828988D01*
X6938988Y-5868515D01*
X6935523Y-5869950D01*
X6867450Y-5869950D01*
X6863985Y-5868515D01*
X6862550Y-5865050D01*
X6862550Y-5849574D01*
X6862550Y-5849572D01*
X6862265Y-5846530D01*
X6862265Y-5846530D01*
X6857779Y-5833712D01*
X6857779Y-5833711D01*
X6849715Y-5822785D01*
X6838788Y-5814721D01*
X6838788Y-5814720D01*
X6825970Y-5810235D01*
X6822927Y-5809950D01*
X6822927Y-5809950D01*
X6759573Y-5809950D01*
X6759572Y-5809950D01*
X6756530Y-5810235D01*
X6756530Y-5810235D01*
X6743712Y-5814720D01*
X6743711Y-5814721D01*
X6732785Y-5822785D01*
X6724721Y-5833711D01*
X6724720Y-5833712D01*
X6720235Y-5846530D01*
X6720235Y-5846530D01*
X6719950Y-5849572D01*
X6719950Y-5950427D01*
X6720235Y-5953470D01*
X6720235Y-5953470D01*
X6724720Y-5966288D01*
X6724721Y-5966288D01*
X6732785Y-5977215D01*
X6743711Y-5985279D01*
X6743712Y-5985279D01*
X6743712Y-5985279D01*
X6743712Y-5985279D01*
X6743712Y-5985279D01*
X6756530Y-5989764D01*
X6756530Y-5989765D01*
X6759573Y-5990050D01*
X6759574Y-5990050D01*
X6822926Y-5990050D01*
X6822927Y-5990050D01*
X6825970Y-5989765D01*
X6838788Y-5985279D01*
X6847049Y-5979183D01*
X6849715Y-5977215D01*
X6857779Y-5966288D01*
X6857779Y-5966288D01*
X6857779Y-5966288D01*
X6862265Y-5953470D01*
X6862550Y-5950427D01*
X6862550Y-5934950D01*
X6863985Y-5931485D01*
X6867450Y-5930050D01*
X6953956Y-5930050D01*
X6956623Y-5929335D01*
X6961599Y-5928002D01*
X6968451Y-5924046D01*
X6974046Y-5918451D01*
X7034046Y-5858451D01*
X7036734Y-5853795D01*
X7038002Y-5851599D01*
X7040050Y-5843956D01*
X7040050Y-5356044D01*
X7040050Y-5356044D01*
X7039184Y-5352813D01*
X7038002Y-5348401D01*
X7038002Y-5348401D01*
X7038002Y-5348401D01*
X7035494Y-5344057D01*
X7034046Y-5341549D01*
X7028451Y-5335954D01*
X6968451Y-5275954D01*
X6967918Y-5275647D01*
X6967918Y-5275646D01*
X6961599Y-5271998D01*
X6953956Y-5269950D01*
X6953956Y-5269950D01*
X6869950Y-5269950D01*
X6866485Y-5268515D01*
X6865050Y-5265050D01*
X6865050Y-5247074D01*
X6865050Y-5247072D01*
X6864765Y-5244030D01*
X6864765Y-5244030D01*
X6860279Y-5231212D01*
X6860279Y-5231211D01*
X6852215Y-5220285D01*
X6841288Y-5212221D01*
X6841288Y-5212220D01*
X6828470Y-5207735D01*
X6825427Y-5207450D01*
X6825427Y-5207450D01*
X6764573Y-5207450D01*
X6764572Y-5207450D01*
X6761530Y-5207735D01*
X6761530Y-5207735D01*
X6748712Y-5212220D01*
X6748711Y-5212221D01*
X6737785Y-5220285D01*
X6729721Y-5231211D01*
X6729720Y-5231212D01*
X6725235Y-5244030D01*
X6725235Y-5244030D01*
X6724950Y-5247072D01*
X6724950Y-5352928D01*
X6725235Y-5355970D01*
X6725235Y-5355970D01*
X6729720Y-5368788D01*
X6729721Y-5368789D01*
X6737785Y-5379715D01*
X6748711Y-5387779D01*
X6748712Y-5387779D01*
X6748712Y-5387779D01*
X6748712Y-5387779D01*
X6748712Y-5387780D01*
X6761530Y-5392265D01*
X6764573Y-5392550D01*
X6764574Y-5392550D01*
X6825426Y-5392550D01*
X6825427Y-5392550D01*
X6828470Y-5392265D01*
X6841288Y-5387779D01*
X6852215Y-5379715D01*
X6853317Y-5378222D01*
X6860279Y-5368789D01*
X6860279Y-5368788D01*
X6860279Y-5368788D01*
X6864765Y-5355970D01*
X6865050Y-5352927D01*
X6865050Y-5334950D01*
X6866485Y-5331485D01*
X6869950Y-5330050D01*
X6935523Y-5330050D01*
X6938988Y-5331485D01*
X6978515Y-5371012D01*
X6979950Y-5374477D01*
X6979950Y-5551012D01*
X6978515Y-5554477D01*
X6975050Y-5555912D01*
X6972600Y-5555255D01*
X6969318Y-5553361D01*
X6956589Y-5549950D01*
X6956589Y-5549950D01*
X6943411Y-5549950D01*
X6943410Y-5549950D01*
X6930681Y-5553361D01*
X6930681Y-5553361D01*
X6919268Y-5559950D01*
X6919268Y-5559950D01*
X6910704Y-5568515D01*
X6907239Y-5569950D01*
X6867450Y-5569950D01*
X6863985Y-5568515D01*
X6862550Y-5565050D01*
X6862550Y-5549574D01*
X6862550Y-5549572D01*
X6862265Y-5546530D01*
X6862265Y-5546530D01*
X6857779Y-5533712D01*
X6857779Y-5533711D01*
X6849715Y-5522785D01*
X6838788Y-5514721D01*
X6838788Y-5514720D01*
X6825970Y-5510235D01*
X6822927Y-5509950D01*
X6822927Y-5509950D01*
X6759573Y-5509950D01*
X6759572Y-5509950D01*
X6756530Y-5510235D01*
X6756530Y-5510235D01*
X6743712Y-5514720D01*
X6743711Y-5514721D01*
X6732785Y-5522785D01*
X6724721Y-5533711D01*
X6724720Y-5533712D01*
X6720235Y-5546530D01*
X6720235Y-5546530D01*
X6719950Y-5549572D01*
X6680050Y-5549572D01*
X6679765Y-5546530D01*
X6676851Y-5538205D01*
X6675279Y-5533712D01*
X6675279Y-5533711D01*
X6667215Y-5522785D01*
X6656288Y-5514721D01*
X6656288Y-5514720D01*
X6643470Y-5510235D01*
X6640427Y-5509950D01*
X6640427Y-5509950D01*
X6577073Y-5509950D01*
X6577072Y-5509950D01*
X6574030Y-5510235D01*
X6574030Y-5510235D01*
X6561159Y-5514739D01*
X6557415Y-5514529D01*
X6556076Y-5513579D01*
X6490451Y-5447954D01*
X6483599Y-5443998D01*
X6475956Y-5441950D01*
X6475956Y-5441950D01*
X6319120Y-5441950D01*
X6315655Y-5440515D01*
X6314593Y-5438925D01*
X6308663Y-5424609D01*
X6308663Y-5424609D01*
X6297714Y-5408222D01*
X6283778Y-5394286D01*
X6281180Y-5392550D01*
X6278365Y-5390669D01*
X6267391Y-5383337D01*
X6267391Y-5383337D01*
X6267391Y-5383337D01*
X6249184Y-5375795D01*
X6249183Y-5375795D01*
X6229854Y-5371950D01*
X6229854Y-5371950D01*
X6130146Y-5371950D01*
X6130145Y-5371950D01*
X6110817Y-5375795D01*
X6110816Y-5375795D01*
X6092609Y-5383337D01*
X6076222Y-5394286D01*
X6062286Y-5408222D01*
X6051337Y-5424609D01*
X6043795Y-5442816D01*
X6043795Y-5442817D01*
X6039950Y-5462146D01*
X5558050Y-5462146D01*
X5554205Y-5442817D01*
X5546663Y-5424609D01*
X5535714Y-5408222D01*
X5521778Y-5394286D01*
X5519180Y-5392550D01*
X5516365Y-5390669D01*
X5505391Y-5383337D01*
X5505391Y-5383337D01*
X5505391Y-5383337D01*
X5487184Y-5375795D01*
X5487183Y-5375795D01*
X5467854Y-5371950D01*
X5467854Y-5371950D01*
X5368146Y-5371950D01*
X5368146Y-5371950D01*
X5348817Y-5375795D01*
X5348816Y-5375795D01*
X5330609Y-5383337D01*
X5314222Y-5394286D01*
X5300286Y-5408222D01*
X5289337Y-5424609D01*
X5281795Y-5442816D01*
X5281795Y-5442817D01*
X5277950Y-5462146D01*
X4704643Y-5462146D01*
X4660451Y-5417954D01*
X4653599Y-5413998D01*
X4645956Y-5411950D01*
X4645956Y-5411950D01*
X4089120Y-5411950D01*
X4085655Y-5410515D01*
X4084593Y-5408925D01*
X4078663Y-5394609D01*
X4078663Y-5394609D01*
X4067714Y-5378222D01*
X4053778Y-5364286D01*
X4052528Y-5363451D01*
X4041332Y-5355970D01*
X4037391Y-5353337D01*
X4037391Y-5353337D01*
X4037391Y-5353337D01*
X4019184Y-5345795D01*
X4019183Y-5345795D01*
X3999854Y-5341950D01*
X3999854Y-5341950D01*
X3900146Y-5341950D01*
X3900145Y-5341950D01*
X3880817Y-5345795D01*
X3880816Y-5345795D01*
X3862609Y-5353337D01*
X3846222Y-5364286D01*
X3832286Y-5378222D01*
X3821337Y-5394609D01*
X3813795Y-5412816D01*
X3813795Y-5412817D01*
X3809950Y-5432146D01*
X3328050Y-5432146D01*
X3324205Y-5412817D01*
X3316663Y-5394609D01*
X3305714Y-5378222D01*
X3291778Y-5364286D01*
X3290528Y-5363451D01*
X3279332Y-5355970D01*
X3275391Y-5353337D01*
X3275391Y-5353337D01*
X3275391Y-5353337D01*
X3257184Y-5345795D01*
X3257183Y-5345795D01*
X3237854Y-5341950D01*
X3237854Y-5341950D01*
X3138146Y-5341950D01*
X3138145Y-5341950D01*
X3118817Y-5345795D01*
X3118816Y-5345795D01*
X3100609Y-5353337D01*
X3084222Y-5364286D01*
X3070286Y-5378222D01*
X3059337Y-5394609D01*
X3051795Y-5412816D01*
X3051795Y-5412817D01*
X3047950Y-5432146D01*
X3047950Y-5437050D01*
X3046515Y-5440515D01*
X3043050Y-5441950D01*
X3036477Y-5441950D01*
X3033012Y-5440515D01*
X2926485Y-5333988D01*
X2925050Y-5330523D01*
X2925050Y-5178146D01*
X3047950Y-5178146D01*
X3047950Y-5197854D01*
X3051795Y-5217183D01*
X3051795Y-5217184D01*
X3059337Y-5235391D01*
X3059337Y-5235391D01*
X3070286Y-5251778D01*
X3084222Y-5265714D01*
X3100609Y-5276663D01*
X3118816Y-5284205D01*
X3138146Y-5288050D01*
X3237854Y-5288050D01*
X3257183Y-5284205D01*
X3275391Y-5276663D01*
X3291778Y-5265714D01*
X3305714Y-5251778D01*
X3316663Y-5235391D01*
X3324205Y-5217184D01*
X3326003Y-5208146D01*
X5277950Y-5208146D01*
X5277950Y-5227854D01*
X5281795Y-5247183D01*
X5281795Y-5247184D01*
X5289195Y-5265050D01*
X5289337Y-5265391D01*
X5300286Y-5281778D01*
X5314222Y-5295714D01*
X5330609Y-5306663D01*
X5348817Y-5314205D01*
X5368146Y-5318050D01*
X5467854Y-5318050D01*
X5487184Y-5314205D01*
X5505391Y-5306663D01*
X5521778Y-5295714D01*
X5535714Y-5281778D01*
X5546663Y-5265391D01*
X5554205Y-5247184D01*
X5558050Y-5227854D01*
X5558050Y-5208146D01*
X5558050Y-5208146D01*
X6039950Y-5208146D01*
X6039950Y-5227854D01*
X6043795Y-5247183D01*
X6043795Y-5247184D01*
X6051195Y-5265050D01*
X6051337Y-5265391D01*
X6062286Y-5281778D01*
X6076222Y-5295714D01*
X6092609Y-5306663D01*
X6110816Y-5314205D01*
X6130146Y-5318050D01*
X6229854Y-5318050D01*
X6249183Y-5314205D01*
X6267391Y-5306663D01*
X6283778Y-5295714D01*
X6297714Y-5281778D01*
X6308663Y-5265391D01*
X6316205Y-5247184D01*
X6320050Y-5227854D01*
X6320050Y-5208146D01*
X6316205Y-5188817D01*
X6308663Y-5170609D01*
X6297714Y-5154222D01*
X6283778Y-5140286D01*
X6267391Y-5129337D01*
X6267391Y-5129337D01*
X6267391Y-5129337D01*
X6249184Y-5121795D01*
X6249183Y-5121795D01*
X6229854Y-5117950D01*
X6229854Y-5117950D01*
X6130146Y-5117950D01*
X6130145Y-5117950D01*
X6110817Y-5121795D01*
X6110816Y-5121795D01*
X6092609Y-5129337D01*
X6076222Y-5140286D01*
X6062286Y-5154222D01*
X6051337Y-5170609D01*
X6043795Y-5188816D01*
X6043795Y-5188817D01*
X6039950Y-5208146D01*
X5558050Y-5208146D01*
X5554205Y-5188817D01*
X5546663Y-5170609D01*
X5535714Y-5154222D01*
X5521778Y-5140286D01*
X5505391Y-5129337D01*
X5505391Y-5129337D01*
X5505391Y-5129337D01*
X5487184Y-5121795D01*
X5487183Y-5121795D01*
X5467854Y-5117950D01*
X5467854Y-5117950D01*
X5368146Y-5117950D01*
X5368146Y-5117950D01*
X5348817Y-5121795D01*
X5348816Y-5121795D01*
X5330609Y-5129337D01*
X5314222Y-5140286D01*
X5300286Y-5154222D01*
X5289337Y-5170609D01*
X5281795Y-5188816D01*
X5281795Y-5188817D01*
X5277950Y-5208146D01*
X3326003Y-5208146D01*
X3326094Y-5207687D01*
X3326241Y-5206949D01*
X3326241Y-5206949D01*
X3328050Y-5197855D01*
X3328050Y-5197854D01*
X3328050Y-5178146D01*
X3328050Y-5178146D01*
X3324205Y-5158817D01*
X3324205Y-5158817D01*
X3316663Y-5140609D01*
X3305714Y-5124222D01*
X3291778Y-5110286D01*
X3275391Y-5099337D01*
X3275391Y-5099337D01*
X3275391Y-5099337D01*
X3257184Y-5091795D01*
X3257183Y-5091795D01*
X3237854Y-5087950D01*
X3237854Y-5087950D01*
X3138146Y-5087950D01*
X3138145Y-5087950D01*
X3118817Y-5091795D01*
X3118816Y-5091795D01*
X3100609Y-5099337D01*
X3084222Y-5110286D01*
X3070286Y-5124222D01*
X3059337Y-5140609D01*
X3051795Y-5158816D01*
X3051795Y-5158817D01*
X3047950Y-5178146D01*
X2925050Y-5178146D01*
X2925050Y-5069950D01*
X2926485Y-5066485D01*
X2929950Y-5065050D01*
X2947926Y-5065050D01*
X2947927Y-5065050D01*
X2950970Y-5064765D01*
X2963788Y-5060279D01*
X2965042Y-5059354D01*
X2974715Y-5052215D01*
X2982779Y-5041289D01*
X2982779Y-5041288D01*
X2982779Y-5041288D01*
X2987265Y-5028470D01*
X2987550Y-5025427D01*
X2987550Y-4993410D01*
X3439950Y-4993410D01*
X3439950Y-5006590D01*
X3443361Y-5019318D01*
X3443361Y-5019319D01*
X3448644Y-5028470D01*
X3449950Y-5030731D01*
X3459269Y-5040050D01*
X3463446Y-5042462D01*
X3470681Y-5046639D01*
X3470681Y-5046639D01*
X3470681Y-5046639D01*
X3480721Y-5049329D01*
X3483410Y-5050050D01*
X3483410Y-5050050D01*
X3483411Y-5050050D01*
X3496589Y-5050050D01*
X3496589Y-5050050D01*
X3509319Y-5046639D01*
X3520731Y-5040050D01*
X3529296Y-5031485D01*
X3532761Y-5030050D01*
X3567239Y-5030050D01*
X3570704Y-5031485D01*
X3579269Y-5040050D01*
X3583446Y-5042462D01*
X3590681Y-5046639D01*
X3590681Y-5046639D01*
X3590681Y-5046639D01*
X3600721Y-5049329D01*
X3603410Y-5050050D01*
X3603410Y-5050050D01*
X3603411Y-5050050D01*
X3616589Y-5050050D01*
X3616589Y-5050050D01*
X3629319Y-5046639D01*
X3640731Y-5040050D01*
X3650050Y-5030731D01*
X3656639Y-5019319D01*
X3660050Y-5006590D01*
X3660050Y-5006590D01*
X3660050Y-4993411D01*
X3660050Y-4993410D01*
X3656639Y-4980682D01*
X3656639Y-4980681D01*
X3650050Y-4969269D01*
X3640731Y-4959950D01*
X3629319Y-4953361D01*
X3629318Y-4953361D01*
X3616589Y-4949950D01*
X3616589Y-4949950D01*
X3603411Y-4949950D01*
X3603410Y-4949950D01*
X3590681Y-4953361D01*
X3590681Y-4953361D01*
X3579268Y-4959950D01*
X3579268Y-4959950D01*
X3570704Y-4968515D01*
X3567239Y-4969950D01*
X3532761Y-4969950D01*
X3529296Y-4968515D01*
X3520731Y-4959950D01*
X3509319Y-4953361D01*
X3509318Y-4953361D01*
X3496589Y-4949950D01*
X3496589Y-4949950D01*
X3483411Y-4949950D01*
X3483410Y-4949950D01*
X3470681Y-4953361D01*
X3470681Y-4953361D01*
X3459268Y-4959950D01*
X3459268Y-4959950D01*
X3449950Y-4969269D01*
X3449950Y-4969269D01*
X3443361Y-4980681D01*
X3443361Y-4980682D01*
X3439950Y-4993410D01*
X2987550Y-4993410D01*
X2987550Y-4964573D01*
X2987265Y-4961530D01*
X2986712Y-4959950D01*
X2982779Y-4948712D01*
X2982779Y-4948711D01*
X2974715Y-4937785D01*
X2963788Y-4929721D01*
X2963788Y-4929720D01*
X2950970Y-4925235D01*
X2947927Y-4924950D01*
X2947927Y-4924950D01*
X2842073Y-4924950D01*
X2842072Y-4924950D01*
X2839030Y-4925235D01*
X2839030Y-4925235D01*
X2826212Y-4929720D01*
X2826211Y-4929721D01*
X2815285Y-4937785D01*
X2807221Y-4948711D01*
X2807220Y-4948712D01*
X2802735Y-4961530D01*
X2802735Y-4961530D01*
X2802450Y-4964572D01*
X2802450Y-5025428D01*
X2802735Y-5028470D01*
X2802735Y-5028470D01*
X2807220Y-5041288D01*
X2807221Y-5041289D01*
X2815285Y-5052215D01*
X2826211Y-5060279D01*
X2826212Y-5060279D01*
X2826212Y-5060279D01*
X2826212Y-5060279D01*
X2826212Y-5060280D01*
X2836803Y-5063985D01*
X2839030Y-5064765D01*
X2842073Y-5065050D01*
X2860050Y-5065050D01*
X2863515Y-5066485D01*
X2864950Y-5069950D01*
X2864950Y-5260623D01*
X2863515Y-5264088D01*
X2860050Y-5265523D01*
X2856585Y-5264088D01*
X2659941Y-5067444D01*
X2658506Y-5063979D01*
X2659941Y-5060514D01*
X2661787Y-5059354D01*
X2666288Y-5057779D01*
X2666288Y-5057779D01*
X2666288Y-5057779D01*
X2677215Y-5049715D01*
X2685279Y-5038789D01*
X2685279Y-5038788D01*
X2685279Y-5038788D01*
X2689765Y-5025970D01*
X2690050Y-5022927D01*
X2690050Y-4959573D01*
X2689765Y-4956530D01*
X2688656Y-4953361D01*
X2685280Y-4943712D01*
X2685279Y-4943711D01*
X2677215Y-4932785D01*
X2666289Y-4924721D01*
X2666288Y-4924720D01*
X2653470Y-4920235D01*
X2650428Y-4919950D01*
X2650427Y-4919950D01*
X2549573Y-4919950D01*
X2549572Y-4919950D01*
X2546530Y-4920235D01*
X2546530Y-4920235D01*
X2533712Y-4924720D01*
X2533711Y-4924721D01*
X2522785Y-4932785D01*
X2514721Y-4943711D01*
X2514720Y-4943712D01*
X2510235Y-4956530D01*
X2510235Y-4956530D01*
X2509950Y-4959572D01*
X1600000Y-4959572D01*
X1600000Y-4593410D01*
X2494950Y-4593410D01*
X2494950Y-4606590D01*
X2498361Y-4619318D01*
X2498361Y-4619319D01*
X2504557Y-4630050D01*
X2504950Y-4630731D01*
X2514269Y-4640050D01*
X2514461Y-4640161D01*
X2525681Y-4646639D01*
X2525681Y-4646639D01*
X2525681Y-4646639D01*
X2534996Y-4649135D01*
X2538410Y-4650050D01*
X2538411Y-4650050D01*
X2538411Y-4650050D01*
X2551590Y-4650050D01*
X2551590Y-4650050D01*
X2564319Y-4646639D01*
X2564508Y-4646530D01*
X2566807Y-4645203D01*
X2575731Y-4640050D01*
X2579085Y-4636696D01*
X2582550Y-4635261D01*
X2586015Y-4636696D01*
X2587450Y-4640161D01*
X2587450Y-4650428D01*
X2587735Y-4653470D01*
X2587735Y-4653470D01*
X2592220Y-4666288D01*
X2592221Y-4666289D01*
X2600285Y-4677215D01*
X2611211Y-4685279D01*
X2611212Y-4685279D01*
X2611212Y-4685279D01*
X2611212Y-4685279D01*
X2611212Y-4685280D01*
X2617709Y-4687553D01*
X2624030Y-4689765D01*
X2627073Y-4690050D01*
X2627074Y-4690050D01*
X2690426Y-4690050D01*
X2690427Y-4690050D01*
X2693470Y-4689765D01*
X2706288Y-4685279D01*
X2717215Y-4677215D01*
X2725279Y-4666288D01*
X2729765Y-4653470D01*
X2730050Y-4650427D01*
X2730050Y-4549573D01*
X2730050Y-4549572D01*
X2769950Y-4549572D01*
X2769950Y-4650428D01*
X2770235Y-4653470D01*
X2770235Y-4653470D01*
X2774720Y-4666288D01*
X2774721Y-4666289D01*
X2782785Y-4677215D01*
X2793711Y-4685279D01*
X2793712Y-4685279D01*
X2793712Y-4685279D01*
X2793712Y-4685279D01*
X2793712Y-4685280D01*
X2800209Y-4687553D01*
X2806530Y-4689765D01*
X2809573Y-4690050D01*
X2809574Y-4690050D01*
X2872926Y-4690050D01*
X2872927Y-4690050D01*
X2875970Y-4689765D01*
X2888788Y-4685279D01*
X2899715Y-4677215D01*
X2907779Y-4666288D01*
X2912265Y-4653470D01*
X2912550Y-4650427D01*
X2912550Y-4634950D01*
X2913985Y-4631485D01*
X2917450Y-4630050D01*
X2965623Y-4630050D01*
X2969088Y-4631485D01*
X2970523Y-4634950D01*
X2969088Y-4638415D01*
X2873988Y-4733515D01*
X2870523Y-4734950D01*
X2842072Y-4734950D01*
X2839030Y-4735235D01*
X2839030Y-4735235D01*
X2826212Y-4739720D01*
X2826211Y-4739721D01*
X2815285Y-4747785D01*
X2807221Y-4758711D01*
X2807220Y-4758712D01*
X2802735Y-4771530D01*
X2802735Y-4771530D01*
X2802450Y-4774572D01*
X2802450Y-4835428D01*
X2802735Y-4838470D01*
X2802735Y-4838470D01*
X2807220Y-4851288D01*
X2807221Y-4851289D01*
X2815285Y-4862215D01*
X2826211Y-4870279D01*
X2826212Y-4870279D01*
X2826212Y-4870279D01*
X2826212Y-4870279D01*
X2826212Y-4870280D01*
X2839030Y-4874765D01*
X2842073Y-4875050D01*
X2842074Y-4875050D01*
X2947926Y-4875050D01*
X2947927Y-4875050D01*
X2950970Y-4874765D01*
X2963788Y-4870279D01*
X2974715Y-4862215D01*
X2982779Y-4851288D01*
X2987265Y-4838470D01*
X2987550Y-4835427D01*
X2987550Y-4802146D01*
X3059950Y-4802146D01*
X3059950Y-4821854D01*
X3063795Y-4841183D01*
X3063795Y-4841184D01*
X3067980Y-4851289D01*
X3071337Y-4859391D01*
X3073223Y-4862215D01*
X3081799Y-4875050D01*
X3082286Y-4875778D01*
X3096222Y-4889714D01*
X3112609Y-4900663D01*
X3130816Y-4908205D01*
X3150146Y-4912050D01*
X3249854Y-4912050D01*
X3269183Y-4908205D01*
X3287391Y-4900663D01*
X3303778Y-4889714D01*
X3317714Y-4875778D01*
X3328663Y-4859391D01*
X3336205Y-4841184D01*
X3340050Y-4821854D01*
X3340050Y-4802146D01*
X3340050Y-4802146D01*
X3821950Y-4802146D01*
X3821950Y-4821854D01*
X3825795Y-4841183D01*
X3825795Y-4841184D01*
X3829980Y-4851289D01*
X3833337Y-4859391D01*
X3835223Y-4862215D01*
X3843799Y-4875050D01*
X3844286Y-4875778D01*
X3858222Y-4889714D01*
X3874609Y-4900663D01*
X3892816Y-4908205D01*
X3912146Y-4912050D01*
X4011854Y-4912050D01*
X4031183Y-4908205D01*
X4049391Y-4900663D01*
X4065778Y-4889714D01*
X4079714Y-4875778D01*
X4090663Y-4859391D01*
X4098205Y-4841184D01*
X4102050Y-4821854D01*
X4102050Y-4802146D01*
X4098205Y-4782817D01*
X4090663Y-4764609D01*
X4079714Y-4748222D01*
X4065778Y-4734286D01*
X4049391Y-4723337D01*
X4049391Y-4723337D01*
X4049391Y-4723337D01*
X4031184Y-4715795D01*
X4031183Y-4715795D01*
X4011854Y-4711950D01*
X4011854Y-4711950D01*
X3912146Y-4711950D01*
X3912145Y-4711950D01*
X3892817Y-4715795D01*
X3892816Y-4715795D01*
X3874609Y-4723337D01*
X3858222Y-4734286D01*
X3844286Y-4748222D01*
X3833337Y-4764609D01*
X3825795Y-4782816D01*
X3825795Y-4782817D01*
X3821950Y-4802146D01*
X3340050Y-4802146D01*
X3336205Y-4782817D01*
X3328663Y-4764609D01*
X3317714Y-4748222D01*
X3303778Y-4734286D01*
X3287391Y-4723337D01*
X3287391Y-4723337D01*
X3287391Y-4723337D01*
X3269184Y-4715795D01*
X3269183Y-4715795D01*
X3249854Y-4711950D01*
X3249854Y-4711950D01*
X3150146Y-4711950D01*
X3150145Y-4711950D01*
X3130817Y-4715795D01*
X3130816Y-4715795D01*
X3112609Y-4723337D01*
X3096222Y-4734286D01*
X3082286Y-4748222D01*
X3071337Y-4764609D01*
X3063795Y-4782816D01*
X3063795Y-4782817D01*
X3059950Y-4802146D01*
X2987550Y-4802146D01*
X2987550Y-4774573D01*
X2987265Y-4771530D01*
X2986491Y-4769319D01*
X2982779Y-4758712D01*
X2982779Y-4758711D01*
X2974715Y-4747785D01*
X2963788Y-4739721D01*
X2963788Y-4739721D01*
X2962991Y-4739442D01*
X2960195Y-4736943D01*
X2959985Y-4733199D01*
X2961145Y-4731352D01*
X3061012Y-4631485D01*
X3064477Y-4630050D01*
X3088528Y-4630050D01*
X3091993Y-4631485D01*
X3096222Y-4635714D01*
X3112609Y-4646663D01*
X3130816Y-4654205D01*
X3150146Y-4658050D01*
X3249854Y-4658050D01*
X3269183Y-4654205D01*
X3287391Y-4646663D01*
X3303778Y-4635714D01*
X3317714Y-4621778D01*
X3328663Y-4605391D01*
X3336205Y-4587184D01*
X3340050Y-4567854D01*
X3340050Y-4548146D01*
X3337900Y-4537337D01*
X3336748Y-4531546D01*
X3336622Y-4530910D01*
X3387450Y-4530910D01*
X3387450Y-4544090D01*
X3390861Y-4556818D01*
X3390861Y-4556819D01*
X3397450Y-4568231D01*
X3406015Y-4576796D01*
X3407450Y-4580261D01*
X3407450Y-4616456D01*
X3409498Y-4624099D01*
X3409498Y-4624099D01*
X3409782Y-4624590D01*
X3409782Y-4624591D01*
X3409782Y-4624591D01*
X3412363Y-4629062D01*
X3413327Y-4630731D01*
X3413454Y-4630951D01*
X3475954Y-4693451D01*
X3481549Y-4699046D01*
X3488401Y-4703002D01*
X3491948Y-4703952D01*
X3496044Y-4705050D01*
X3496044Y-4705050D01*
X3585523Y-4705050D01*
X3588988Y-4706485D01*
X3623515Y-4741012D01*
X3624950Y-4744477D01*
X3624950Y-4756590D01*
X3628361Y-4769318D01*
X3628361Y-4769319D01*
X3634950Y-4780731D01*
X3644269Y-4790050D01*
X3647952Y-4792177D01*
X3655681Y-4796639D01*
X3655681Y-4796639D01*
X3655681Y-4796639D01*
X3660854Y-4798025D01*
X3668410Y-4800050D01*
X3668410Y-4800050D01*
X3668411Y-4800050D01*
X3681589Y-4800050D01*
X3681589Y-4800050D01*
X3686077Y-4798848D01*
X3692329Y-4797172D01*
X3693001Y-4796992D01*
X3694319Y-4796639D01*
X3694508Y-4796530D01*
X3695848Y-4795756D01*
X3705731Y-4790050D01*
X3715050Y-4780731D01*
X3721639Y-4769319D01*
X3725050Y-4756590D01*
X3725050Y-4756590D01*
X3725050Y-4743411D01*
X3725050Y-4743410D01*
X3724061Y-4739721D01*
X3721639Y-4730681D01*
X3721639Y-4730681D01*
X3721639Y-4730681D01*
X3716946Y-4722553D01*
X3715050Y-4719269D01*
X3705731Y-4709950D01*
X3694319Y-4703361D01*
X3694318Y-4703361D01*
X3681589Y-4699950D01*
X3681589Y-4699950D01*
X3669477Y-4699950D01*
X3666012Y-4698515D01*
X3618451Y-4650954D01*
X3618451Y-4650954D01*
X3616712Y-4649950D01*
X3616060Y-4649573D01*
X3615300Y-4649135D01*
X3611599Y-4646998D01*
X3611599Y-4646998D01*
X3603956Y-4644950D01*
X3603956Y-4644950D01*
X3514477Y-4644950D01*
X3511012Y-4643515D01*
X3468985Y-4601488D01*
X3467550Y-4598023D01*
X3467550Y-4580261D01*
X3468985Y-4576796D01*
X3477550Y-4568232D01*
X3477550Y-4568231D01*
X3484139Y-4556819D01*
X3487550Y-4544090D01*
X3487550Y-4544090D01*
X3487550Y-4530911D01*
X3487550Y-4530910D01*
X3484139Y-4518182D01*
X3484139Y-4518181D01*
X3477550Y-4506769D01*
X3468231Y-4497450D01*
X3456819Y-4490861D01*
X3456818Y-4490861D01*
X3444089Y-4487450D01*
X3444089Y-4487450D01*
X3430911Y-4487450D01*
X3430910Y-4487450D01*
X3418181Y-4490861D01*
X3418181Y-4490861D01*
X3406768Y-4497450D01*
X3397450Y-4506769D01*
X3397450Y-4506769D01*
X3390861Y-4518181D01*
X3390861Y-4518182D01*
X3387450Y-4530910D01*
X3336622Y-4530910D01*
X3336205Y-4528817D01*
X3336205Y-4528817D01*
X3328663Y-4510609D01*
X3317714Y-4494222D01*
X3303778Y-4480286D01*
X3303702Y-4480235D01*
X3293600Y-4473485D01*
X3287391Y-4469337D01*
X3287391Y-4469337D01*
X3287391Y-4469337D01*
X3269184Y-4461795D01*
X3269183Y-4461795D01*
X3249854Y-4457950D01*
X3249854Y-4457950D01*
X3150146Y-4457950D01*
X3150145Y-4457950D01*
X3130817Y-4461795D01*
X3130816Y-4461795D01*
X3112609Y-4469337D01*
X3096222Y-4480286D01*
X3082286Y-4494222D01*
X3071337Y-4510609D01*
X3063795Y-4528816D01*
X3063795Y-4528817D01*
X3059950Y-4548146D01*
X3059950Y-4565050D01*
X3058515Y-4568515D01*
X3055050Y-4569950D01*
X2917450Y-4569950D01*
X2913985Y-4568515D01*
X2912550Y-4565050D01*
X2912550Y-4549574D01*
X2912550Y-4549572D01*
X2912265Y-4546530D01*
X2912265Y-4546530D01*
X2907779Y-4533712D01*
X2907779Y-4533711D01*
X2899715Y-4522785D01*
X2888788Y-4514721D01*
X2888788Y-4514720D01*
X2875970Y-4510235D01*
X2872927Y-4509950D01*
X2872927Y-4509950D01*
X2809573Y-4509950D01*
X2809572Y-4509950D01*
X2806530Y-4510235D01*
X2806530Y-4510235D01*
X2793712Y-4514720D01*
X2793711Y-4514721D01*
X2782785Y-4522785D01*
X2774721Y-4533711D01*
X2774720Y-4533712D01*
X2770235Y-4546530D01*
X2770235Y-4546530D01*
X2769950Y-4549572D01*
X2730050Y-4549572D01*
X2729765Y-4546530D01*
X2726548Y-4537337D01*
X2725280Y-4533712D01*
X2725279Y-4533711D01*
X2717215Y-4522785D01*
X2706289Y-4514721D01*
X2706288Y-4514720D01*
X2693470Y-4510235D01*
X2690428Y-4509950D01*
X2690427Y-4509950D01*
X2627073Y-4509950D01*
X2627072Y-4509950D01*
X2624030Y-4510235D01*
X2624030Y-4510235D01*
X2611212Y-4514720D01*
X2611211Y-4514721D01*
X2600285Y-4522785D01*
X2592221Y-4533711D01*
X2592220Y-4533712D01*
X2587735Y-4546530D01*
X2587735Y-4546530D01*
X2587450Y-4549572D01*
X2587450Y-4559839D01*
X2586015Y-4563304D01*
X2582550Y-4564739D01*
X2579085Y-4563304D01*
X2575731Y-4559950D01*
X2564319Y-4553361D01*
X2564318Y-4553361D01*
X2551590Y-4549950D01*
X2551589Y-4549950D01*
X2538411Y-4549950D01*
X2538411Y-4549950D01*
X2525682Y-4553361D01*
X2525681Y-4553361D01*
X2514269Y-4559950D01*
X2514269Y-4559950D01*
X2504950Y-4569269D01*
X2504950Y-4569269D01*
X2498361Y-4580681D01*
X2498361Y-4580682D01*
X2494950Y-4593410D01*
X1600000Y-4593410D01*
X1600000Y-3743410D01*
X2899950Y-3743410D01*
X2899950Y-3756589D01*
X2903361Y-3769318D01*
X2903361Y-3769319D01*
X2909950Y-3780731D01*
X2919269Y-3790050D01*
X2922167Y-3791724D01*
X2930681Y-3796639D01*
X2930681Y-3796639D01*
X2930681Y-3796639D01*
X2933707Y-3797450D01*
X2943410Y-3800050D01*
X2943410Y-3800050D01*
X2943411Y-3800050D01*
X2956589Y-3800050D01*
X2956589Y-3800050D01*
X2969319Y-3796639D01*
X2980731Y-3790050D01*
X2989296Y-3781485D01*
X2992761Y-3780050D01*
X3032550Y-3780050D01*
X3036015Y-3781485D01*
X3037450Y-3784950D01*
X3037450Y-3800427D01*
X3037735Y-3803470D01*
X3037735Y-3803470D01*
X3042220Y-3816288D01*
X3042221Y-3816288D01*
X3050285Y-3827215D01*
X3061211Y-3835279D01*
X3061212Y-3835279D01*
X3061212Y-3835279D01*
X3061212Y-3835279D01*
X3061212Y-3835279D01*
X3070956Y-3838689D01*
X3074030Y-3839765D01*
X3077073Y-3840050D01*
X3077074Y-3840050D01*
X3140426Y-3840050D01*
X3140427Y-3840050D01*
X3143470Y-3839765D01*
X3147078Y-3838502D01*
X3150822Y-3838712D01*
X3153321Y-3841509D01*
X3153111Y-3845253D01*
X3152161Y-3846592D01*
X3130238Y-3868515D01*
X3126773Y-3869950D01*
X2996043Y-3869950D01*
X2988401Y-3871998D01*
X2988401Y-3871998D01*
X2981549Y-3875954D01*
X2981549Y-3875954D01*
X2925954Y-3931549D01*
X2925954Y-3931549D01*
X2921998Y-3938401D01*
X2921998Y-3938401D01*
X2919950Y-3946044D01*
X2919950Y-4238956D01*
X2921998Y-4246599D01*
X2921998Y-4246599D01*
X2925191Y-4252129D01*
X2925954Y-4253451D01*
X2925954Y-4253451D01*
X2925954Y-4253451D01*
X3001287Y-4328785D01*
X3006882Y-4334379D01*
X3013734Y-4338336D01*
X3017281Y-4339286D01*
X3021377Y-4340383D01*
X3021377Y-4340383D01*
X3063503Y-4340383D01*
X3066968Y-4341819D01*
X3068030Y-4343408D01*
X3070937Y-4350428D01*
X3071337Y-4351391D01*
X3082286Y-4367778D01*
X3096222Y-4381714D01*
X3112609Y-4392663D01*
X3130816Y-4400205D01*
X3150146Y-4404050D01*
X3249854Y-4404050D01*
X3269183Y-4400205D01*
X3287391Y-4392663D01*
X3303778Y-4381714D01*
X3317714Y-4367778D01*
X3328663Y-4351391D01*
X3336205Y-4333184D01*
X3340050Y-4313854D01*
X3340050Y-4294146D01*
X3340050Y-4294146D01*
X3821950Y-4294146D01*
X3821950Y-4313854D01*
X3825795Y-4333183D01*
X3825795Y-4333184D01*
X3832937Y-4350428D01*
X3833337Y-4351391D01*
X3844286Y-4367778D01*
X3858222Y-4381714D01*
X3874609Y-4392663D01*
X3892816Y-4400205D01*
X3912146Y-4404050D01*
X4011854Y-4404050D01*
X4031183Y-4400205D01*
X4049391Y-4392663D01*
X4065778Y-4381714D01*
X4072142Y-4375350D01*
X4078507Y-4368985D01*
X4081972Y-4367550D01*
X4303062Y-4367550D01*
X4306527Y-4368985D01*
X4307687Y-4370832D01*
X4312220Y-4383788D01*
X4312221Y-4383789D01*
X4320285Y-4394715D01*
X4331211Y-4402779D01*
X4331212Y-4402779D01*
X4331212Y-4402779D01*
X4331212Y-4402779D01*
X4331212Y-4402780D01*
X4344030Y-4407265D01*
X4347073Y-4407550D01*
X4347074Y-4407550D01*
X4452926Y-4407550D01*
X4452927Y-4407550D01*
X4455970Y-4407265D01*
X4468788Y-4402779D01*
X4470951Y-4401184D01*
X4479715Y-4394715D01*
X4487779Y-4383789D01*
X4487779Y-4383788D01*
X4487779Y-4383788D01*
X4492265Y-4370970D01*
X4492313Y-4370832D01*
X4494812Y-4368035D01*
X4496938Y-4367550D01*
X4544428Y-4367550D01*
X4547893Y-4368985D01*
X4548371Y-4369540D01*
X4554035Y-4377215D01*
X4564961Y-4385279D01*
X4564962Y-4385279D01*
X4564962Y-4385279D01*
X4564962Y-4385279D01*
X4564962Y-4385280D01*
X4574168Y-4388501D01*
X4577780Y-4389765D01*
X4580823Y-4390050D01*
X4635523Y-4390050D01*
X4638988Y-4391485D01*
X4673515Y-4426012D01*
X4674950Y-4429477D01*
X4674950Y-4486020D01*
X4673515Y-4489484D01*
X4670050Y-4490920D01*
X4667140Y-4489962D01*
X4660038Y-4484721D01*
X4660038Y-4484720D01*
X4647220Y-4480235D01*
X4644178Y-4479950D01*
X4644177Y-4479950D01*
X4580823Y-4479950D01*
X4580822Y-4479950D01*
X4577780Y-4480235D01*
X4577780Y-4480235D01*
X4564962Y-4484720D01*
X4564961Y-4484721D01*
X4554035Y-4492785D01*
X4552061Y-4495460D01*
X4548849Y-4497395D01*
X4548119Y-4497450D01*
X4496938Y-4497450D01*
X4493473Y-4496015D01*
X4492313Y-4494168D01*
X4487780Y-4481212D01*
X4487779Y-4481211D01*
X4479715Y-4470285D01*
X4468789Y-4462221D01*
X4468788Y-4462220D01*
X4455970Y-4457735D01*
X4452928Y-4457450D01*
X4452927Y-4457450D01*
X4347073Y-4457450D01*
X4347072Y-4457450D01*
X4344030Y-4457735D01*
X4344030Y-4457735D01*
X4331212Y-4462220D01*
X4331211Y-4462221D01*
X4320285Y-4470285D01*
X4312221Y-4481211D01*
X4312220Y-4481212D01*
X4307687Y-4494168D01*
X4305188Y-4496965D01*
X4303062Y-4497450D01*
X4084490Y-4497450D01*
X4081025Y-4496015D01*
X4080416Y-4495272D01*
X4079714Y-4494222D01*
X4079714Y-4494222D01*
X4065778Y-4480286D01*
X4055600Y-4473485D01*
X4049391Y-4469337D01*
X4049391Y-4469337D01*
X4049391Y-4469337D01*
X4031184Y-4461795D01*
X4031183Y-4461795D01*
X4011854Y-4457950D01*
X4011854Y-4457950D01*
X3912146Y-4457950D01*
X3912145Y-4457950D01*
X3892817Y-4461795D01*
X3892816Y-4461795D01*
X3874609Y-4469337D01*
X3858222Y-4480286D01*
X3844286Y-4494222D01*
X3833337Y-4510609D01*
X3825795Y-4528816D01*
X3825795Y-4528817D01*
X3821950Y-4548146D01*
X3821950Y-4567854D01*
X3825795Y-4587183D01*
X3825795Y-4587184D01*
X3831125Y-4600053D01*
X3833337Y-4605391D01*
X3844286Y-4621778D01*
X3858222Y-4635714D01*
X3874609Y-4646663D01*
X3892816Y-4654205D01*
X3912146Y-4658050D01*
X4011854Y-4658050D01*
X4031183Y-4654205D01*
X4049391Y-4646663D01*
X4065778Y-4635714D01*
X4079714Y-4621778D01*
X4090663Y-4605391D01*
X4098205Y-4587184D01*
X4102050Y-4567854D01*
X4102050Y-4562450D01*
X4103485Y-4558985D01*
X4106950Y-4557550D01*
X4303062Y-4557550D01*
X4306527Y-4558985D01*
X4307687Y-4560832D01*
X4312220Y-4573788D01*
X4312221Y-4573789D01*
X4320285Y-4584715D01*
X4331211Y-4592779D01*
X4331212Y-4592779D01*
X4331212Y-4592779D01*
X4331212Y-4592779D01*
X4331212Y-4592780D01*
X4333017Y-4593411D01*
X4344030Y-4597265D01*
X4347073Y-4597550D01*
X4347074Y-4597550D01*
X4452926Y-4597550D01*
X4452927Y-4597550D01*
X4455970Y-4597265D01*
X4468788Y-4592779D01*
X4476370Y-4587184D01*
X4479715Y-4584715D01*
X4487779Y-4573789D01*
X4487779Y-4573788D01*
X4487779Y-4573788D01*
X4490837Y-4565050D01*
X4492313Y-4560832D01*
X4494812Y-4558035D01*
X4496938Y-4557550D01*
X4536300Y-4557550D01*
X4539765Y-4558985D01*
X4541200Y-4562450D01*
X4541200Y-4620428D01*
X4541485Y-4623470D01*
X4541485Y-4623470D01*
X4545970Y-4636288D01*
X4545971Y-4636289D01*
X4554035Y-4647215D01*
X4564961Y-4655279D01*
X4564962Y-4655279D01*
X4564962Y-4655279D01*
X4564962Y-4655279D01*
X4564962Y-4655280D01*
X4572880Y-4658050D01*
X4577780Y-4659765D01*
X4580823Y-4660050D01*
X4580824Y-4660050D01*
X4644176Y-4660050D01*
X4644177Y-4660050D01*
X4647220Y-4659765D01*
X4660038Y-4655279D01*
X4661494Y-4654205D01*
X4667140Y-4650038D01*
X4670780Y-4649135D01*
X4673993Y-4651071D01*
X4674950Y-4653980D01*
X4674950Y-4720523D01*
X4673515Y-4723988D01*
X4638988Y-4758515D01*
X4635523Y-4759950D01*
X4574572Y-4759950D01*
X4571530Y-4760235D01*
X4571530Y-4760235D01*
X4558712Y-4764720D01*
X4558711Y-4764721D01*
X4547785Y-4772785D01*
X4539721Y-4783711D01*
X4539720Y-4783712D01*
X4535235Y-4796530D01*
X4535235Y-4796530D01*
X4534950Y-4799572D01*
X4534950Y-4905428D01*
X4535235Y-4908470D01*
X4535235Y-4908470D01*
X4539720Y-4921288D01*
X4539721Y-4921289D01*
X4547785Y-4932215D01*
X4558711Y-4940279D01*
X4558712Y-4940279D01*
X4558712Y-4940279D01*
X4558712Y-4940279D01*
X4558712Y-4940280D01*
X4568523Y-4943712D01*
X4571530Y-4944765D01*
X4574573Y-4945050D01*
X4574574Y-4945050D01*
X4635426Y-4945050D01*
X4635427Y-4945050D01*
X4638470Y-4944765D01*
X4651288Y-4940279D01*
X4655882Y-4936889D01*
X4662215Y-4932215D01*
X4670279Y-4921289D01*
X4670279Y-4921288D01*
X4670279Y-4921288D01*
X4674765Y-4908470D01*
X4675050Y-4905427D01*
X4675050Y-4809477D01*
X4676485Y-4806012D01*
X4729046Y-4753451D01*
X4729046Y-4753451D01*
X4733002Y-4746599D01*
X4735050Y-4738957D01*
X4735050Y-4738957D01*
X4735050Y-4655825D01*
X4736485Y-4652361D01*
X4739950Y-4650925D01*
X4742860Y-4651883D01*
X4747461Y-4655279D01*
X4747462Y-4655279D01*
X4747462Y-4655279D01*
X4747462Y-4655279D01*
X4747462Y-4655280D01*
X4755380Y-4658050D01*
X4760280Y-4659765D01*
X4763323Y-4660050D01*
X4763324Y-4660050D01*
X4826676Y-4660050D01*
X4826677Y-4660050D01*
X4829720Y-4659765D01*
X4842538Y-4655279D01*
X4843994Y-4654205D01*
X4853465Y-4647215D01*
X4861529Y-4636289D01*
X4861529Y-4636288D01*
X4861529Y-4636288D01*
X4866015Y-4623470D01*
X4866300Y-4620427D01*
X4866300Y-4519573D01*
X4866015Y-4516530D01*
X4863712Y-4509950D01*
X4861530Y-4503712D01*
X4861529Y-4503711D01*
X4853465Y-4492785D01*
X4842539Y-4484721D01*
X4842538Y-4484721D01*
X4833332Y-4481499D01*
X4830535Y-4479000D01*
X4830050Y-4476874D01*
X4830050Y-4393126D01*
X4831485Y-4389661D01*
X4833331Y-4388501D01*
X4842538Y-4385279D01*
X4853465Y-4377215D01*
X4859129Y-4369540D01*
X4861529Y-4366289D01*
X4861529Y-4366288D01*
X4861529Y-4366288D01*
X4866015Y-4353470D01*
X4866300Y-4350427D01*
X4866300Y-4249573D01*
X4866015Y-4246530D01*
X4864625Y-4242560D01*
X4861530Y-4233712D01*
X4861529Y-4233711D01*
X4853465Y-4222785D01*
X4842539Y-4214721D01*
X4842538Y-4214721D01*
X4833332Y-4211499D01*
X4830535Y-4209000D01*
X4830050Y-4206874D01*
X4830050Y-4113563D01*
X4831485Y-4110098D01*
X4833332Y-4108938D01*
X4843788Y-4105279D01*
X4843787Y-4105279D01*
X4843788Y-4105279D01*
X4854715Y-4097215D01*
X4860913Y-4088817D01*
X4862779Y-4086288D01*
X4862779Y-4086288D01*
X4862779Y-4086288D01*
X4867265Y-4073470D01*
X4867550Y-4070427D01*
X4867550Y-3969573D01*
X4867265Y-3966530D01*
X4865447Y-3961337D01*
X4862780Y-3953712D01*
X4862779Y-3953711D01*
X4854715Y-3942785D01*
X4843789Y-3934721D01*
X4843788Y-3934720D01*
X4833332Y-3931062D01*
X4830535Y-3928563D01*
X4830050Y-3926437D01*
X4830050Y-3836938D01*
X4831485Y-3833473D01*
X4833332Y-3832313D01*
X4833470Y-3832265D01*
X4833470Y-3832265D01*
X4846288Y-3827779D01*
X4857215Y-3819715D01*
X4857899Y-3818788D01*
X4865279Y-3808788D01*
X4865279Y-3808788D01*
X4865279Y-3808788D01*
X4869765Y-3795970D01*
X4870050Y-3792927D01*
X4870050Y-3687073D01*
X4869765Y-3684030D01*
X4869653Y-3683712D01*
X4865280Y-3671212D01*
X4865279Y-3671211D01*
X4857215Y-3660285D01*
X4846289Y-3652221D01*
X4846288Y-3652220D01*
X4833470Y-3647735D01*
X4830428Y-3647450D01*
X4830427Y-3647450D01*
X4769573Y-3647450D01*
X4769572Y-3647450D01*
X4766530Y-3647735D01*
X4766530Y-3647735D01*
X4753712Y-3652220D01*
X4753711Y-3652221D01*
X4742785Y-3660285D01*
X4734721Y-3671211D01*
X4734720Y-3671212D01*
X4730235Y-3684030D01*
X4730235Y-3684030D01*
X4729950Y-3687072D01*
X4729950Y-3792927D01*
X4730235Y-3795970D01*
X4730235Y-3795970D01*
X4734720Y-3808788D01*
X4734721Y-3808788D01*
X4742785Y-3819715D01*
X4753711Y-3827779D01*
X4753712Y-3827779D01*
X4753712Y-3827779D01*
X4753712Y-3827779D01*
X4753712Y-3827779D01*
X4757615Y-3829145D01*
X4766530Y-3832265D01*
X4766530Y-3832265D01*
X4766668Y-3832313D01*
X4769465Y-3834812D01*
X4769950Y-3836938D01*
X4769950Y-3925050D01*
X4768515Y-3928515D01*
X4765050Y-3929950D01*
X4764572Y-3929950D01*
X4761530Y-3930235D01*
X4761530Y-3930235D01*
X4748712Y-3934720D01*
X4748711Y-3934721D01*
X4737785Y-3942785D01*
X4729721Y-3953711D01*
X4729720Y-3953712D01*
X4725235Y-3966530D01*
X4725235Y-3966530D01*
X4724950Y-3969572D01*
X4724950Y-4070427D01*
X4725235Y-4073470D01*
X4725235Y-4073470D01*
X4729720Y-4086288D01*
X4729721Y-4086288D01*
X4737785Y-4097215D01*
X4748711Y-4105279D01*
X4748712Y-4105279D01*
X4748712Y-4105279D01*
X4748712Y-4105279D01*
X4748712Y-4105279D01*
X4756904Y-4108146D01*
X4761530Y-4109765D01*
X4764573Y-4110050D01*
X4765050Y-4110050D01*
X4768515Y-4111485D01*
X4769950Y-4114950D01*
X4769950Y-4205050D01*
X4768515Y-4208515D01*
X4765050Y-4209950D01*
X4763322Y-4209950D01*
X4760280Y-4210235D01*
X4760280Y-4210235D01*
X4747462Y-4214720D01*
X4747461Y-4214721D01*
X4736535Y-4222785D01*
X4728471Y-4233711D01*
X4728470Y-4233712D01*
X4723985Y-4246530D01*
X4723985Y-4246530D01*
X4723700Y-4249572D01*
X4723700Y-4350428D01*
X4723985Y-4353470D01*
X4723985Y-4353470D01*
X4728470Y-4366288D01*
X4728471Y-4366289D01*
X4736535Y-4377215D01*
X4747461Y-4385279D01*
X4747462Y-4385279D01*
X4747462Y-4385279D01*
X4747462Y-4385279D01*
X4747462Y-4385280D01*
X4756668Y-4388501D01*
X4760280Y-4389765D01*
X4763323Y-4390050D01*
X4765050Y-4390050D01*
X4768515Y-4391485D01*
X4769950Y-4394950D01*
X4769950Y-4475050D01*
X4768515Y-4478515D01*
X4765050Y-4479950D01*
X4763322Y-4479950D01*
X4760280Y-4480235D01*
X4760280Y-4480235D01*
X4747462Y-4484720D01*
X4747462Y-4484721D01*
X4742860Y-4488117D01*
X4739220Y-4489020D01*
X4736007Y-4487084D01*
X4735050Y-4484175D01*
X4735050Y-4411044D01*
X4735050Y-4411043D01*
X4734617Y-4409429D01*
X4733002Y-4403401D01*
X4732643Y-4402779D01*
X4729046Y-4396549D01*
X4685235Y-4352738D01*
X4683800Y-4349273D01*
X4683800Y-4249574D01*
X4683800Y-4249572D01*
X4683515Y-4246530D01*
X4683515Y-4246530D01*
X4679030Y-4233712D01*
X4679029Y-4233711D01*
X4670965Y-4222785D01*
X4660039Y-4214721D01*
X4660038Y-4214720D01*
X4647220Y-4210235D01*
X4644178Y-4209950D01*
X4644177Y-4209950D01*
X4580823Y-4209950D01*
X4580822Y-4209950D01*
X4577780Y-4210235D01*
X4577780Y-4210235D01*
X4564962Y-4214720D01*
X4564961Y-4214721D01*
X4554035Y-4222785D01*
X4545971Y-4233711D01*
X4545970Y-4233712D01*
X4541485Y-4246530D01*
X4541485Y-4246530D01*
X4541200Y-4249572D01*
X4541200Y-4302550D01*
X4539765Y-4306015D01*
X4536300Y-4307450D01*
X4496938Y-4307450D01*
X4493473Y-4306015D01*
X4492313Y-4304168D01*
X4487780Y-4291212D01*
X4487779Y-4291211D01*
X4479715Y-4280285D01*
X4468789Y-4272221D01*
X4468788Y-4272220D01*
X4455970Y-4267735D01*
X4452928Y-4267450D01*
X4452927Y-4267450D01*
X4347073Y-4267450D01*
X4347072Y-4267450D01*
X4344030Y-4267735D01*
X4344030Y-4267735D01*
X4331212Y-4272220D01*
X4331211Y-4272221D01*
X4320285Y-4280285D01*
X4312221Y-4291211D01*
X4312220Y-4291212D01*
X4307687Y-4304168D01*
X4305188Y-4306965D01*
X4303062Y-4307450D01*
X4106950Y-4307450D01*
X4103485Y-4306015D01*
X4102050Y-4302550D01*
X4102050Y-4294146D01*
X4102050Y-4294146D01*
X4098205Y-4274817D01*
X4090663Y-4256609D01*
X4079714Y-4240222D01*
X4065778Y-4226286D01*
X4049391Y-4215337D01*
X4049391Y-4215337D01*
X4049391Y-4215337D01*
X4031184Y-4207795D01*
X4031183Y-4207795D01*
X4011854Y-4203950D01*
X4011854Y-4203950D01*
X3912146Y-4203950D01*
X3912145Y-4203950D01*
X3892817Y-4207795D01*
X3892816Y-4207795D01*
X3874609Y-4215337D01*
X3858222Y-4226286D01*
X3844286Y-4240222D01*
X3833337Y-4256609D01*
X3825795Y-4274816D01*
X3825795Y-4274817D01*
X3821950Y-4294146D01*
X3340050Y-4294146D01*
X3336205Y-4274817D01*
X3328663Y-4256609D01*
X3317714Y-4240222D01*
X3303778Y-4226286D01*
X3287391Y-4215337D01*
X3287391Y-4215337D01*
X3287391Y-4215337D01*
X3269184Y-4207795D01*
X3269183Y-4207795D01*
X3249854Y-4203950D01*
X3249854Y-4203950D01*
X3150146Y-4203950D01*
X3150145Y-4203950D01*
X3130817Y-4207795D01*
X3130816Y-4207795D01*
X3112609Y-4215337D01*
X3096222Y-4226286D01*
X3082286Y-4240222D01*
X3071337Y-4256609D01*
X3063795Y-4274816D01*
X3063795Y-4274817D01*
X3063492Y-4276339D01*
X3061408Y-4279458D01*
X3058686Y-4280283D01*
X3039810Y-4280283D01*
X3036345Y-4278848D01*
X2981485Y-4223988D01*
X2980050Y-4220523D01*
X2980050Y-3964477D01*
X2981485Y-3961012D01*
X3011012Y-3931485D01*
X3014477Y-3930050D01*
X3362706Y-3930050D01*
X3365373Y-3929335D01*
X3370349Y-3928002D01*
X3377201Y-3924046D01*
X3382796Y-3918451D01*
X3462558Y-3838689D01*
X3466023Y-3837254D01*
X3467640Y-3837529D01*
X3474030Y-3839765D01*
X3477073Y-3840050D01*
X3477074Y-3840050D01*
X3540426Y-3840050D01*
X3540427Y-3840050D01*
X3543470Y-3839765D01*
X3547078Y-3838502D01*
X3550822Y-3838712D01*
X3553321Y-3841509D01*
X3553111Y-3845253D01*
X3552161Y-3846592D01*
X3373905Y-4024848D01*
X3370440Y-4026283D01*
X3344950Y-4026283D01*
X3341485Y-4024848D01*
X3340050Y-4021383D01*
X3340050Y-3968025D01*
X3340050Y-3968025D01*
X3338887Y-3962177D01*
X3336230Y-3958201D01*
X3334455Y-3955545D01*
X3330479Y-3952888D01*
X3327823Y-3951113D01*
X3321975Y-3949950D01*
X3078025Y-3949950D01*
X3072177Y-3951113D01*
X3065545Y-3955545D01*
X3061892Y-3961012D01*
X3061113Y-3962177D01*
X3059950Y-3968025D01*
X3059950Y-4131975D01*
X3061113Y-4137823D01*
X3062888Y-4140479D01*
X3065545Y-4144455D01*
X3068163Y-4146205D01*
X3072177Y-4148887D01*
X3078025Y-4150050D01*
X3078025Y-4150050D01*
X3321974Y-4150050D01*
X3321975Y-4150050D01*
X3327823Y-4148887D01*
X3334455Y-4144455D01*
X3338887Y-4137823D01*
X3340050Y-4131975D01*
X3340050Y-4091283D01*
X3341485Y-4087819D01*
X3344950Y-4086383D01*
X3388873Y-4086383D01*
X3391540Y-4085669D01*
X3396515Y-4084335D01*
X3403368Y-4080379D01*
X3408963Y-4074784D01*
X3443602Y-4040145D01*
X3821950Y-4040145D01*
X3821950Y-4059854D01*
X3825795Y-4079183D01*
X3825795Y-4079184D01*
X3830807Y-4091283D01*
X3833337Y-4097391D01*
X3838607Y-4105279D01*
X3842754Y-4111485D01*
X3844286Y-4113778D01*
X3858222Y-4127714D01*
X3874609Y-4138663D01*
X3892816Y-4146205D01*
X3912146Y-4150050D01*
X4011854Y-4150050D01*
X4031183Y-4146205D01*
X4049391Y-4138663D01*
X4065778Y-4127714D01*
X4079714Y-4113778D01*
X4090663Y-4097391D01*
X4098205Y-4079183D01*
X4102050Y-4059854D01*
X4102050Y-4040146D01*
X4098205Y-4020816D01*
X4090663Y-4002609D01*
X4079714Y-3986222D01*
X4065778Y-3972286D01*
X4049391Y-3961337D01*
X4049391Y-3961337D01*
X4049391Y-3961337D01*
X4031184Y-3953795D01*
X4031183Y-3953795D01*
X4011854Y-3949950D01*
X4011854Y-3949950D01*
X3912146Y-3949950D01*
X3912145Y-3949950D01*
X3892817Y-3953795D01*
X3892816Y-3953795D01*
X3874609Y-3961337D01*
X3858222Y-3972286D01*
X3844286Y-3986222D01*
X3833337Y-4002609D01*
X3825795Y-4020816D01*
X3825795Y-4020817D01*
X3821950Y-4040145D01*
X3443602Y-4040145D01*
X3645058Y-3838689D01*
X3648523Y-3837254D01*
X3650140Y-3837529D01*
X3656530Y-3839765D01*
X3659573Y-3840050D01*
X3659574Y-3840050D01*
X3722926Y-3840050D01*
X3722927Y-3840050D01*
X3725970Y-3839765D01*
X3738788Y-3835279D01*
X3739422Y-3834812D01*
X3749715Y-3827215D01*
X3757779Y-3816288D01*
X3757779Y-3816288D01*
X3757779Y-3816288D01*
X3762265Y-3803470D01*
X3762550Y-3800427D01*
X3762550Y-3784950D01*
X3763985Y-3781485D01*
X3767450Y-3780050D01*
X3830050Y-3780050D01*
X3833515Y-3781485D01*
X3834950Y-3784950D01*
X3834950Y-3802927D01*
X3835235Y-3805970D01*
X3835235Y-3805970D01*
X3839720Y-3818788D01*
X3839721Y-3818788D01*
X3847785Y-3829715D01*
X3858711Y-3837779D01*
X3858712Y-3837779D01*
X3858712Y-3837779D01*
X3858712Y-3837779D01*
X3858712Y-3837779D01*
X3869370Y-3841509D01*
X3871530Y-3842265D01*
X3874573Y-3842550D01*
X3874574Y-3842550D01*
X3935426Y-3842550D01*
X3935427Y-3842550D01*
X3938470Y-3842265D01*
X3951288Y-3837779D01*
X3955309Y-3834812D01*
X3962215Y-3829715D01*
X3970279Y-3818788D01*
X3970279Y-3818788D01*
X3970279Y-3818788D01*
X3974765Y-3805970D01*
X3975050Y-3802927D01*
X3975050Y-3697073D01*
X3975050Y-3697072D01*
X4024950Y-3697072D01*
X4024950Y-3802927D01*
X4025235Y-3805970D01*
X4025235Y-3805970D01*
X4029720Y-3818788D01*
X4029721Y-3818788D01*
X4037785Y-3829715D01*
X4048711Y-3837779D01*
X4048712Y-3837779D01*
X4048712Y-3837779D01*
X4048712Y-3837779D01*
X4048712Y-3837779D01*
X4059370Y-3841509D01*
X4061530Y-3842265D01*
X4064573Y-3842550D01*
X4064574Y-3842550D01*
X4125426Y-3842550D01*
X4125427Y-3842550D01*
X4128470Y-3842265D01*
X4137637Y-3839057D01*
X4141381Y-3839267D01*
X4142720Y-3840217D01*
X4346549Y-4044046D01*
X4353401Y-4048002D01*
X4359429Y-4049617D01*
X4361043Y-4050050D01*
X4361044Y-4050050D01*
X4361044Y-4050050D01*
X4368956Y-4050050D01*
X4537550Y-4050050D01*
X4541015Y-4051485D01*
X4542450Y-4054950D01*
X4542450Y-4070427D01*
X4542735Y-4073470D01*
X4542735Y-4073470D01*
X4547220Y-4086288D01*
X4547221Y-4086288D01*
X4555285Y-4097215D01*
X4566211Y-4105279D01*
X4566212Y-4105279D01*
X4566212Y-4105279D01*
X4566212Y-4105279D01*
X4566212Y-4105279D01*
X4574404Y-4108146D01*
X4579030Y-4109765D01*
X4582073Y-4110050D01*
X4582074Y-4110050D01*
X4645426Y-4110050D01*
X4645427Y-4110050D01*
X4648470Y-4109765D01*
X4661288Y-4105279D01*
X4672215Y-4097215D01*
X4678413Y-4088817D01*
X4680279Y-4086288D01*
X4680279Y-4086288D01*
X4680279Y-4086288D01*
X4684765Y-4073470D01*
X4685050Y-4070427D01*
X4685050Y-3969573D01*
X4684765Y-3966530D01*
X4682947Y-3961337D01*
X4680280Y-3953712D01*
X4680279Y-3953711D01*
X4672215Y-3942785D01*
X4661289Y-3934721D01*
X4661288Y-3934720D01*
X4648470Y-3930235D01*
X4645428Y-3929950D01*
X4645427Y-3929950D01*
X4582073Y-3929950D01*
X4582072Y-3929950D01*
X4579030Y-3930235D01*
X4579030Y-3930235D01*
X4566212Y-3934720D01*
X4566211Y-3934721D01*
X4555285Y-3942785D01*
X4547221Y-3953711D01*
X4547220Y-3953712D01*
X4542735Y-3966530D01*
X4542735Y-3966530D01*
X4542450Y-3969572D01*
X4542450Y-3985050D01*
X4541015Y-3988515D01*
X4537550Y-3989950D01*
X4379477Y-3989950D01*
X4376012Y-3988515D01*
X4166485Y-3778988D01*
X4165050Y-3775523D01*
X4165050Y-3697074D01*
X4165050Y-3697072D01*
X4164765Y-3694030D01*
X4164765Y-3694030D01*
X4162857Y-3688577D01*
X4162330Y-3687072D01*
X4539950Y-3687072D01*
X4539950Y-3792927D01*
X4540235Y-3795970D01*
X4540235Y-3795970D01*
X4544720Y-3808788D01*
X4544721Y-3808788D01*
X4552785Y-3819715D01*
X4563711Y-3827779D01*
X4563712Y-3827779D01*
X4563712Y-3827779D01*
X4563712Y-3827779D01*
X4563712Y-3827779D01*
X4574160Y-3831435D01*
X4576530Y-3832265D01*
X4579573Y-3832550D01*
X4579574Y-3832550D01*
X4640426Y-3832550D01*
X4640427Y-3832550D01*
X4643470Y-3832265D01*
X4656288Y-3827779D01*
X4667215Y-3819715D01*
X4667899Y-3818788D01*
X4675279Y-3808788D01*
X4675279Y-3808788D01*
X4675279Y-3808788D01*
X4679765Y-3795970D01*
X4680050Y-3792927D01*
X4680050Y-3687073D01*
X4679765Y-3684030D01*
X4679653Y-3683712D01*
X4675280Y-3671212D01*
X4675279Y-3671211D01*
X4667215Y-3660285D01*
X4656289Y-3652221D01*
X4656288Y-3652220D01*
X4643470Y-3647735D01*
X4640428Y-3647450D01*
X4640427Y-3647450D01*
X4634950Y-3647450D01*
X4631485Y-3646015D01*
X4630050Y-3642550D01*
X4630050Y-3542761D01*
X4631485Y-3539296D01*
X4640050Y-3530731D01*
X4640050Y-3530731D01*
X4646639Y-3519319D01*
X4650050Y-3506589D01*
X4650050Y-3506589D01*
X4650050Y-3493410D01*
X4650050Y-3493410D01*
X4647770Y-3484903D01*
X4646639Y-3480681D01*
X4646639Y-3480681D01*
X4646639Y-3480681D01*
X4640050Y-3469268D01*
X4630731Y-3459950D01*
X4619319Y-3453361D01*
X4619318Y-3453361D01*
X4606590Y-3449950D01*
X4606589Y-3449950D01*
X4593411Y-3449950D01*
X4593411Y-3449950D01*
X4580682Y-3453361D01*
X4580681Y-3453361D01*
X4569269Y-3459950D01*
X4569269Y-3459950D01*
X4559950Y-3469268D01*
X4559950Y-3469268D01*
X4553361Y-3480681D01*
X4553361Y-3480681D01*
X4549950Y-3493410D01*
X4549950Y-3506589D01*
X4553361Y-3519318D01*
X4553361Y-3519319D01*
X4559950Y-3530731D01*
X4568515Y-3539296D01*
X4569950Y-3542761D01*
X4569950Y-3646561D01*
X4568515Y-3650026D01*
X4566668Y-3651186D01*
X4563712Y-3652221D01*
X4552785Y-3660285D01*
X4544721Y-3671211D01*
X4544720Y-3671212D01*
X4540235Y-3684030D01*
X4540235Y-3684030D01*
X4539950Y-3687072D01*
X4162330Y-3687072D01*
X4160279Y-3681212D01*
X4160279Y-3681211D01*
X4152215Y-3670285D01*
X4141288Y-3662221D01*
X4141288Y-3662220D01*
X4128470Y-3657735D01*
X4125427Y-3657450D01*
X4125427Y-3657450D01*
X4064573Y-3657450D01*
X4064572Y-3657450D01*
X4061530Y-3657735D01*
X4061530Y-3657735D01*
X4048712Y-3662220D01*
X4048711Y-3662221D01*
X4037785Y-3670285D01*
X4029721Y-3681211D01*
X4029720Y-3681212D01*
X4025235Y-3694030D01*
X4025235Y-3694030D01*
X4024950Y-3697072D01*
X3975050Y-3697072D01*
X3974765Y-3694030D01*
X3972856Y-3688577D01*
X3970279Y-3681212D01*
X3970279Y-3681211D01*
X3962215Y-3670285D01*
X3951288Y-3662221D01*
X3951288Y-3662220D01*
X3938470Y-3657735D01*
X3935427Y-3657450D01*
X3935427Y-3657450D01*
X3874573Y-3657450D01*
X3874572Y-3657450D01*
X3871530Y-3657735D01*
X3871530Y-3657735D01*
X3858712Y-3662220D01*
X3858711Y-3662221D01*
X3847785Y-3670285D01*
X3839721Y-3681211D01*
X3839720Y-3681212D01*
X3835235Y-3694030D01*
X3835235Y-3694030D01*
X3834950Y-3697072D01*
X3834950Y-3715050D01*
X3833515Y-3718515D01*
X3830050Y-3719950D01*
X3767450Y-3719950D01*
X3763985Y-3718515D01*
X3762550Y-3715050D01*
X3762550Y-3699574D01*
X3762550Y-3699572D01*
X3762315Y-3697073D01*
X3762265Y-3696530D01*
X3759482Y-3688577D01*
X3757779Y-3683712D01*
X3757779Y-3683711D01*
X3749715Y-3672785D01*
X3738788Y-3664721D01*
X3738788Y-3664720D01*
X3725970Y-3660235D01*
X3722927Y-3659950D01*
X3722927Y-3659950D01*
X3659573Y-3659950D01*
X3659572Y-3659950D01*
X3656530Y-3660235D01*
X3656530Y-3660235D01*
X3643712Y-3664720D01*
X3643711Y-3664721D01*
X3632785Y-3672785D01*
X3624721Y-3683711D01*
X3624720Y-3683712D01*
X3620235Y-3696530D01*
X3620235Y-3696530D01*
X3619950Y-3699572D01*
X3619950Y-3776773D01*
X3618515Y-3780238D01*
X3586592Y-3812161D01*
X3583127Y-3813596D01*
X3579662Y-3812161D01*
X3578227Y-3808696D01*
X3578502Y-3807078D01*
X3578890Y-3805970D01*
X3579765Y-3803470D01*
X3580050Y-3800427D01*
X3580050Y-3699573D01*
X3579765Y-3696530D01*
X3576982Y-3688577D01*
X3575279Y-3683712D01*
X3575279Y-3683711D01*
X3567215Y-3672785D01*
X3556288Y-3664721D01*
X3556288Y-3664720D01*
X3543470Y-3660235D01*
X3540427Y-3659950D01*
X3540427Y-3659950D01*
X3477073Y-3659950D01*
X3477072Y-3659950D01*
X3474030Y-3660235D01*
X3474030Y-3660235D01*
X3461212Y-3664720D01*
X3461211Y-3664721D01*
X3450285Y-3672785D01*
X3442221Y-3683711D01*
X3442220Y-3683712D01*
X3437735Y-3696530D01*
X3437735Y-3696530D01*
X3437450Y-3699572D01*
X3437450Y-3776773D01*
X3436015Y-3780238D01*
X3347738Y-3868515D01*
X3344273Y-3869950D01*
X3225627Y-3869950D01*
X3222162Y-3868515D01*
X3220727Y-3865050D01*
X3222162Y-3861585D01*
X3238494Y-3845253D01*
X3245058Y-3838689D01*
X3248523Y-3837254D01*
X3250140Y-3837529D01*
X3256530Y-3839765D01*
X3259573Y-3840050D01*
X3259574Y-3840050D01*
X3322926Y-3840050D01*
X3322927Y-3840050D01*
X3325970Y-3839765D01*
X3338788Y-3835279D01*
X3339422Y-3834812D01*
X3349715Y-3827215D01*
X3357779Y-3816288D01*
X3357779Y-3816288D01*
X3357779Y-3816288D01*
X3362265Y-3803470D01*
X3362550Y-3800427D01*
X3362550Y-3699573D01*
X3362265Y-3696530D01*
X3359482Y-3688577D01*
X3357779Y-3683712D01*
X3357779Y-3683711D01*
X3349715Y-3672785D01*
X3338788Y-3664721D01*
X3338788Y-3664720D01*
X3325970Y-3660235D01*
X3322927Y-3659950D01*
X3322927Y-3659950D01*
X3259573Y-3659950D01*
X3259572Y-3659950D01*
X3256530Y-3660235D01*
X3256530Y-3660235D01*
X3243712Y-3664720D01*
X3243711Y-3664721D01*
X3232785Y-3672785D01*
X3224721Y-3683711D01*
X3224720Y-3683712D01*
X3220235Y-3696530D01*
X3220235Y-3696530D01*
X3219950Y-3699572D01*
X3219950Y-3776773D01*
X3218515Y-3780238D01*
X3186592Y-3812161D01*
X3183127Y-3813596D01*
X3179662Y-3812161D01*
X3178227Y-3808696D01*
X3178502Y-3807078D01*
X3178890Y-3805970D01*
X3179765Y-3803470D01*
X3180050Y-3800427D01*
X3180050Y-3699573D01*
X3179765Y-3696530D01*
X3176982Y-3688577D01*
X3175279Y-3683712D01*
X3175279Y-3683711D01*
X3167215Y-3672785D01*
X3156288Y-3664721D01*
X3156288Y-3664720D01*
X3143470Y-3660235D01*
X3140427Y-3659950D01*
X3140427Y-3659950D01*
X3077073Y-3659950D01*
X3077072Y-3659950D01*
X3074030Y-3660235D01*
X3074030Y-3660235D01*
X3061212Y-3664720D01*
X3061211Y-3664721D01*
X3050285Y-3672785D01*
X3042221Y-3683711D01*
X3042220Y-3683712D01*
X3037735Y-3696530D01*
X3037735Y-3696530D01*
X3037450Y-3699572D01*
X3037450Y-3715050D01*
X3036015Y-3718515D01*
X3032550Y-3719950D01*
X2992761Y-3719950D01*
X2989296Y-3718515D01*
X2980731Y-3709950D01*
X2969319Y-3703361D01*
X2969318Y-3703361D01*
X2956589Y-3699950D01*
X2956589Y-3699950D01*
X2943411Y-3699950D01*
X2943410Y-3699950D01*
X2930681Y-3703361D01*
X2930681Y-3703361D01*
X2919268Y-3709950D01*
X2919268Y-3709950D01*
X2909950Y-3719268D01*
X2909950Y-3719268D01*
X2903361Y-3730681D01*
X2903361Y-3730681D01*
X2899950Y-3743410D01*
X1600000Y-3743410D01*
X1600000Y-2504900D01*
X1601435Y-2501435D01*
X1604900Y-2500000D01*
X5518216Y-2500000D01*
X5521680Y-2501435D01*
G37*
%TD.AperFunction*%
%TD*%
%TA.AperFunction,NonConductor*%
G36*
X5568993Y-3481993D02*
G01*
X5569950Y-3484903D01*
X5569950Y-3616287D01*
X5568515Y-3619752D01*
X5565050Y-3621187D01*
X5562140Y-3620230D01*
X5551288Y-3612220D01*
X5551288Y-3612220D01*
X5538332Y-3607687D01*
X5535535Y-3605188D01*
X5535050Y-3603062D01*
X5535050Y-3494950D01*
X5536485Y-3491485D01*
X5539950Y-3490050D01*
X5540426Y-3490050D01*
X5540427Y-3490050D01*
X5543470Y-3489765D01*
X5556288Y-3485279D01*
X5562140Y-3480960D01*
X5565780Y-3480057D01*
X5568993Y-3481993D01*
G37*
%TD.AperFunction*%
%TA.AperFunction,NonConductor*%
G36*
X5769465Y-3767864D02*
G01*
X5769950Y-3769990D01*
X5769950Y-3807239D01*
X5768515Y-3810704D01*
X5759950Y-3819268D01*
X5759950Y-3819268D01*
X5754243Y-3829152D01*
X5751268Y-3831435D01*
X5747550Y-3830946D01*
X5745756Y-3829152D01*
X5740050Y-3819268D01*
X5731485Y-3810704D01*
X5730050Y-3807239D01*
X5730050Y-3795188D01*
X5731485Y-3791724D01*
X5733332Y-3790563D01*
X5741288Y-3787779D01*
X5741287Y-3787779D01*
X5741288Y-3787779D01*
X5752215Y-3779715D01*
X5755309Y-3775523D01*
X5760279Y-3768788D01*
X5760279Y-3768788D01*
X5760279Y-3768788D01*
X5760425Y-3768372D01*
X5762924Y-3765576D01*
X5766668Y-3765365D01*
X5769465Y-3767864D01*
G37*
%TD.AperFunction*%
%TA.AperFunction,NonConductor*%
G36*
X5637860Y-3779770D02*
G01*
X5648711Y-3787779D01*
X5648712Y-3787779D01*
X5648712Y-3787779D01*
X5648712Y-3787779D01*
X5648712Y-3787779D01*
X5655201Y-3790050D01*
X5661530Y-3792265D01*
X5664573Y-3792550D01*
X5665050Y-3792550D01*
X5668515Y-3793985D01*
X5669950Y-3797450D01*
X5669950Y-3807239D01*
X5668515Y-3810704D01*
X5659950Y-3819268D01*
X5659950Y-3819268D01*
X5654243Y-3829152D01*
X5651268Y-3831435D01*
X5647550Y-3830946D01*
X5645756Y-3829152D01*
X5640050Y-3819268D01*
X5631485Y-3810704D01*
X5630050Y-3807239D01*
X5630050Y-3783713D01*
X5631485Y-3780248D01*
X5634950Y-3778813D01*
X5637860Y-3779770D01*
G37*
%TD.AperFunction*%
%TA.AperFunction,NonConductor*%
G36*
X5752450Y-3869054D02*
G01*
X5754243Y-3870847D01*
X5759950Y-3880731D01*
X5769269Y-3890050D01*
X5780681Y-3896639D01*
X5780723Y-3896650D01*
X5780740Y-3896664D01*
X5780978Y-3896762D01*
X5780951Y-3896826D01*
X5783698Y-3898933D01*
X5784188Y-3902652D01*
X5781905Y-3905627D01*
X5779455Y-3906283D01*
X5720545Y-3906283D01*
X5717080Y-3904848D01*
X5715645Y-3901383D01*
X5717080Y-3897919D01*
X5719034Y-3896791D01*
X5719022Y-3896762D01*
X5719239Y-3896672D01*
X5719277Y-3896650D01*
X5719277Y-3896650D01*
X5719319Y-3896639D01*
X5730731Y-3890050D01*
X5740050Y-3880731D01*
X5745756Y-3870847D01*
X5748732Y-3868564D01*
X5752450Y-3869054D01*
G37*
%TD.AperFunction*%
%TA.AperFunction,NonConductor*%
G36*
X5652450Y-3869054D02*
G01*
X5654243Y-3870847D01*
X5659950Y-3880731D01*
X5669269Y-3890050D01*
X5680681Y-3896639D01*
X5680723Y-3896650D01*
X5680740Y-3896664D01*
X5680978Y-3896762D01*
X5680951Y-3896826D01*
X5683698Y-3898933D01*
X5684188Y-3902652D01*
X5681905Y-3905627D01*
X5679455Y-3906283D01*
X5620545Y-3906283D01*
X5617080Y-3904848D01*
X5615645Y-3901383D01*
X5617080Y-3897919D01*
X5619034Y-3896791D01*
X5619022Y-3896762D01*
X5619239Y-3896672D01*
X5619277Y-3896650D01*
X5619277Y-3896650D01*
X5619319Y-3896639D01*
X5630731Y-3890050D01*
X5640050Y-3880731D01*
X5645756Y-3870847D01*
X5648732Y-3868564D01*
X5652450Y-3869054D01*
G37*
%TD.AperFunction*%
M02*
