%TF.GenerationSoftware,KiCad,Pcbnew,9.0.4*%
%TF.CreationDate,2025-09-28T14:36:26-05:00*%
%TF.ProjectId,version 2,76657273-696f-46e2-9032-2e6b69636164,rev?*%
%TF.SameCoordinates,Original*%
%TF.FileFunction,Paste,Top*%
%TF.FilePolarity,Positive*%
%FSLAX45Y45*%
G04 Gerber Fmt 4.5, Leading zero omitted, Abs format (unit mm)*
G04 Created by KiCad (PCBNEW 9.0.4) date 2025-09-28 14:36:26*
%MOMM*%
%LPD*%
G01*
G04 APERTURE LIST*
G04 Aperture macros list*
%AMRoundRect*
0 Rectangle with rounded corners*
0 $1 Rounding radius*
0 $2 $3 $4 $5 $6 $7 $8 $9 X,Y pos of 4 corners*
0 Add a 4 corners polygon primitive as box body*
4,1,4,$2,$3,$4,$5,$6,$7,$8,$9,$2,$3,0*
0 Add four circle primitives for the rounded corners*
1,1,$1+$1,$2,$3*
1,1,$1+$1,$4,$5*
1,1,$1+$1,$6,$7*
1,1,$1+$1,$8,$9*
0 Add four rect primitives between the rounded corners*
20,1,$1+$1,$2,$3,$4,$5,0*
20,1,$1+$1,$4,$5,$6,$7,0*
20,1,$1+$1,$6,$7,$8,$9,0*
20,1,$1+$1,$8,$9,$2,$3,0*%
G04 Aperture macros list end*
%ADD10RoundRect,0.250000X0.262500X0.450000X-0.262500X0.450000X-0.262500X-0.450000X0.262500X-0.450000X0*%
%ADD11RoundRect,0.250000X-0.475000X0.250000X-0.475000X-0.250000X0.475000X-0.250000X0.475000X0.250000X0*%
%ADD12RoundRect,0.250000X0.250000X0.475000X-0.250000X0.475000X-0.250000X-0.475000X0.250000X-0.475000X0*%
%ADD13RoundRect,0.250000X-0.262500X-0.450000X0.262500X-0.450000X0.262500X0.450000X-0.262500X0.450000X0*%
%ADD14RoundRect,0.150000X0.150000X0.425000X-0.150000X0.425000X-0.150000X-0.425000X0.150000X-0.425000X0*%
%ADD15RoundRect,0.075000X0.075000X0.500000X-0.075000X0.500000X-0.075000X-0.500000X0.075000X-0.500000X0*%
%ADD16RoundRect,0.250000X0.840000X0.750000X-0.840000X0.750000X-0.840000X-0.750000X0.840000X-0.750000X0*%
%ADD17RoundRect,0.250000X-0.250000X-0.475000X0.250000X-0.475000X0.250000X0.475000X-0.250000X0.475000X0*%
%ADD18RoundRect,0.250000X0.450000X-0.262500X0.450000X0.262500X-0.450000X0.262500X-0.450000X-0.262500X0*%
%ADD19RoundRect,0.250000X0.475000X-0.250000X0.475000X0.250000X-0.475000X0.250000X-0.475000X-0.250000X0*%
%ADD20RoundRect,0.150000X-0.825000X-0.150000X0.825000X-0.150000X0.825000X0.150000X-0.825000X0.150000X0*%
%ADD21R,1.000000X0.800000*%
%ADD22R,0.700000X1.500000*%
G04 APERTURE END LIST*
D10*
%TO.C,R18*%
X6791250Y-5600000D03*
X6608750Y-5600000D03*
%TD*%
D11*
%TO.C,C1*%
X6000000Y-1805000D03*
X6000000Y-1995000D03*
%TD*%
D12*
%TO.C,C9*%
X6095000Y-3400000D03*
X5905000Y-3400000D03*
%TD*%
D13*
%TO.C,R6*%
X4613750Y-4020000D03*
X4796250Y-4020000D03*
%TD*%
D11*
%TO.C,C2*%
X7100000Y-1805000D03*
X7100000Y-1995000D03*
%TD*%
D10*
%TO.C,R7*%
X4795000Y-4300000D03*
X4612500Y-4300000D03*
%TD*%
%TO.C,R5*%
X3691250Y-3750000D03*
X3508750Y-3750000D03*
%TD*%
%TO.C,R16*%
X6791250Y-5900000D03*
X6608750Y-5900000D03*
%TD*%
D14*
%TO.C,J3*%
X2520000Y-2168000D03*
X2440000Y-2168000D03*
D15*
X2325000Y-2168000D03*
X2225000Y-2168000D03*
X2175000Y-2168000D03*
X2075000Y-2168000D03*
D14*
X1960000Y-2168000D03*
X1880000Y-2168000D03*
X1880000Y-2168000D03*
X1960000Y-2168000D03*
D15*
X2025000Y-2168000D03*
X2125000Y-2168000D03*
X2275000Y-2168000D03*
X2375000Y-2168000D03*
D14*
X2440000Y-2168000D03*
X2520000Y-2168000D03*
D16*
X2711000Y-2110500D03*
X2711000Y-1717500D03*
X1689000Y-2110500D03*
X1689000Y-1717500D03*
%TD*%
D17*
%TO.C,C10*%
X5505000Y-3700000D03*
X5695000Y-3700000D03*
%TD*%
D13*
%TO.C,R11*%
X5908750Y-3100000D03*
X6091250Y-3100000D03*
%TD*%
D17*
%TO.C,C11*%
X6605000Y-5300000D03*
X6795000Y-5300000D03*
%TD*%
D10*
%TO.C,R8*%
X4795000Y-4570000D03*
X4612500Y-4570000D03*
%TD*%
D13*
%TO.C,R10*%
X5908750Y-2800000D03*
X6091250Y-2800000D03*
%TD*%
%TO.C,R14*%
X6608750Y-5000000D03*
X6791250Y-5000000D03*
%TD*%
D10*
%TO.C,R4*%
X3291250Y-3750000D03*
X3108750Y-3750000D03*
%TD*%
D18*
%TO.C,R2*%
X2600000Y-4991250D03*
X2600000Y-4808750D03*
%TD*%
D10*
%TO.C,R12*%
X5691250Y-3400000D03*
X5508750Y-3400000D03*
%TD*%
D19*
%TO.C,C3*%
X2895000Y-4995000D03*
X2895000Y-4805000D03*
%TD*%
D12*
%TO.C,C8*%
X5695000Y-3100000D03*
X5505000Y-3100000D03*
%TD*%
D13*
%TO.C,R9*%
X5508750Y-2800000D03*
X5691250Y-2800000D03*
%TD*%
%TO.C,R15*%
X6608750Y-4700000D03*
X6791250Y-4700000D03*
%TD*%
D10*
%TO.C,R17*%
X6791250Y-6200000D03*
X6608750Y-6200000D03*
%TD*%
D19*
%TO.C,C6*%
X4400000Y-4527500D03*
X4400000Y-4337500D03*
%TD*%
D10*
%TO.C,R13*%
X6091250Y-3700000D03*
X5908750Y-3700000D03*
%TD*%
D20*
%TO.C,U3*%
X6252500Y-1609500D03*
X6252500Y-1736500D03*
X6252500Y-1863500D03*
X6252500Y-1990500D03*
X6747500Y-1990500D03*
X6747500Y-1863500D03*
X6747500Y-1736500D03*
X6747500Y-1609500D03*
%TD*%
D17*
%TO.C,C7*%
X4605000Y-4852500D03*
X4795000Y-4852500D03*
%TD*%
%TO.C,C4*%
X3905000Y-3750000D03*
X4095000Y-3750000D03*
%TD*%
D21*
%TO.C,SW1*%
X5015000Y-1778000D03*
X5015000Y-1557000D03*
X3985000Y-1778000D03*
X3985000Y-1557000D03*
D22*
X4800000Y-1843000D03*
X4650000Y-1843000D03*
X4350000Y-1843000D03*
X4200000Y-1843000D03*
%TD*%
D10*
%TO.C,R3*%
X2841250Y-4600000D03*
X2658750Y-4600000D03*
%TD*%
D17*
%TO.C,C5*%
X4610000Y-3740000D03*
X4800000Y-3740000D03*
%TD*%
M02*
