%TF.GenerationSoftware,KiCad,Pcbnew,9.0.4*%
%TF.CreationDate,2025-09-28T14:36:26-05:00*%
%TF.ProjectId,version 2,76657273-696f-46e2-9032-2e6b69636164,rev?*%
%TF.SameCoordinates,Original*%
%TF.FileFunction,Soldermask,Bot*%
%TF.FilePolarity,Negative*%
%FSLAX45Y45*%
G04 Gerber Fmt 4.5, Leading zero omitted, Abs format (unit mm)*
G04 Created by KiCad (PCBNEW 9.0.4) date 2025-09-28 14:36:26*
%MOMM*%
%LPD*%
G01*
G04 APERTURE LIST*
G04 Aperture macros list*
%AMRoundRect*
0 Rectangle with rounded corners*
0 $1 Rounding radius*
0 $2 $3 $4 $5 $6 $7 $8 $9 X,Y pos of 4 corners*
0 Add a 4 corners polygon primitive as box body*
4,1,4,$2,$3,$4,$5,$6,$7,$8,$9,$2,$3,0*
0 Add four circle primitives for the rounded corners*
1,1,$1+$1,$2,$3*
1,1,$1+$1,$4,$5*
1,1,$1+$1,$6,$7*
1,1,$1+$1,$8,$9*
0 Add four rect primitives between the rounded corners*
20,1,$1+$1,$2,$3,$4,$5,0*
20,1,$1+$1,$4,$5,$6,$7,0*
20,1,$1+$1,$6,$7,$8,$9,0*
20,1,$1+$1,$8,$9,$2,$3,0*%
G04 Aperture macros list end*
%ADD10C,1.650000*%
%ADD11RoundRect,0.412500X0.412500X0.412500X-0.412500X0.412500X-0.412500X-0.412500X0.412500X-0.412500X0*%
%ADD12R,2.400000X1.600000*%
%ADD13O,2.400000X1.600000*%
%ADD14C,0.650000*%
%ADD15R,1.700000X1.700000*%
%ADD16O,1.700000X1.700000*%
%ADD17R,3.000000X3.000000*%
%ADD18C,3.000000*%
%ADD19RoundRect,0.250000X-0.600000X-0.750000X0.600000X-0.750000X0.600000X0.750000X-0.600000X0.750000X0*%
%ADD20O,1.700000X2.000000*%
%ADD21C,0.900000*%
G04 APERTURE END LIST*
D10*
%TO.C,RV1*%
X2192000Y-5825000D03*
X2446000Y-5825000D03*
D11*
X2700000Y-5825000D03*
%TD*%
D12*
%TO.C,U4*%
X6180000Y-4880000D03*
D13*
X6180000Y-4626000D03*
X6180000Y-4372000D03*
X6180000Y-4118000D03*
X5418000Y-4118000D03*
X5418000Y-4372000D03*
X5418000Y-4626000D03*
X5418000Y-4880000D03*
%TD*%
D14*
%TO.C,J3*%
X2489000Y-2060500D03*
X1911000Y-2060500D03*
%TD*%
D15*
%TO.C,J5*%
X5627500Y-1793000D03*
D16*
X5373500Y-1793000D03*
%TD*%
D12*
%TO.C,U5*%
X6180000Y-5980000D03*
D13*
X6180000Y-5726000D03*
X6180000Y-5472000D03*
X6180000Y-5218000D03*
X5418000Y-5218000D03*
X5418000Y-5472000D03*
X5418000Y-5726000D03*
X5418000Y-5980000D03*
%TD*%
D17*
%TO.C,J2*%
X4432698Y-5959605D03*
D18*
X4940698Y-5959605D03*
%TD*%
D19*
%TO.C,J1*%
X3195000Y-2068250D03*
D20*
X3445000Y-2068250D03*
%TD*%
D21*
%TO.C,SW1*%
X4750000Y-1667000D03*
X4250000Y-1667000D03*
%TD*%
D12*
%TO.C,U1*%
X3950000Y-5950000D03*
D13*
X3950000Y-5696000D03*
X3950000Y-5442000D03*
X3950000Y-5188000D03*
X3188000Y-5188000D03*
X3188000Y-5442000D03*
X3188000Y-5696000D03*
X3188000Y-5950000D03*
%TD*%
D12*
%TO.C,U2*%
X3200000Y-4050000D03*
D13*
X3200000Y-4304000D03*
X3200000Y-4558000D03*
X3200000Y-4812000D03*
X3962000Y-4812000D03*
X3962000Y-4558000D03*
X3962000Y-4304000D03*
X3962000Y-4050000D03*
%TD*%
M02*
