M48
; DRILL file {KiCad 9.0.4} date 2025-09-28T14:36:28-0500
; FORMAT={-:-/ absolute / metric / decimal}
; #@! TF.CreationDate,2025-09-28T14:36:28-05:00
; #@! TF.GenerationSoftware,Kicad,Pcbnew,9.0.4
; #@! TF.FileFunction,Plated,1,2,PTH
FMAT,2
METRIC
; #@! TA.AperFunction,Plated,PTH,ViaDrill
T1C0.300
; #@! TA.AperFunction,Plated,PTH,ComponentDrill
T2C0.800
; #@! TA.AperFunction,Plated,PTH,ComponentDrill
T3C0.850
; #@! TA.AperFunction,Plated,PTH,ComponentDrill
T4C1.000
; #@! TA.AperFunction,Plated,PTH,ComponentDrill
T5C1.520
%
G90
G05
T1
X20.0Y-24.0
X25.45Y-46.0
X26.0Y-19.0
X29.5Y-37.5
X34.375Y-45.375
X34.9Y-50.0
X36.1Y-50.0
X36.75Y-47.5
X43.5Y-20.5
X44.4Y-18.7
X46.0Y-35.0
X49.18Y-20.0
X55.5Y-25.5
X56.0Y-38.5
X57.0Y-22.5
X57.0Y-38.5
X58.0Y-18.0
X58.0Y-38.5
X62.0Y-21.5
X69.5Y-47.0
X69.5Y-56.0
X71.0Y-21.0
X71.5Y-22.5
X72.0Y-25.5
X73.0Y-20.0
T2
X31.88Y-51.88
X31.88Y-54.42
X31.88Y-56.96
X31.88Y-59.5
X32.0Y-40.5
X32.0Y-43.04
X32.0Y-45.58
X32.0Y-48.12
X39.5Y-51.88
X39.5Y-54.42
X39.5Y-56.96
X39.5Y-59.5
X39.62Y-40.5
X39.62Y-43.04
X39.62Y-45.58
X39.62Y-48.12
X54.18Y-41.18
X54.18Y-43.72
X54.18Y-46.26
X54.18Y-48.8
X54.18Y-52.18
X54.18Y-54.72
X54.18Y-57.26
X54.18Y-59.8
X61.8Y-41.18
X61.8Y-43.72
X61.8Y-46.26
X61.8Y-48.8
X61.8Y-52.18
X61.8Y-54.72
X61.8Y-57.26
X61.8Y-59.8
T3
X21.92Y-58.25
X24.46Y-58.25
X27.0Y-58.25
T4
X31.95Y-20.682
X34.45Y-20.682
X53.735Y-17.93
X56.275Y-17.93
T5
X44.327Y-59.596
X49.407Y-59.596
M30
